<svg
  width="1201"
  height="630"
  viewBox="0 0 1201 630"
  fill="none"
  xmlns="http://www.w3.org/2000/svg"
>
  <g clip-path="url(#clip0_302_244)">
    <rect x="0.0844727" width="1200" height="630" fill="#142538" />
    <g filter="url(#filter0_f_302_244)">
      <circle
        cx="469.456"
        cy="469.456"
        r="469.456"
        transform="matrix(-0.997521 0.0703694 0.0703694 0.997521 1583.67 426)"
        fill="#69A8D4"
      />
    </g>
    <path
      d="M116.114 237V190.125H145.427V198.531H125.739V209.188H144.146V217.625H125.739V237H116.114ZM165.708 237.625C162.5 237.625 159.625 236.927 157.083 235.531C154.541 234.115 152.541 232.188 151.083 229.75C149.646 227.292 148.927 224.5 148.927 221.375C148.927 218.271 149.646 215.5 151.083 213.062C152.541 210.604 154.541 208.667 157.083 207.25C159.625 205.833 162.5 205.125 165.708 205.125C168.916 205.125 171.771 205.833 174.271 207.25C176.791 208.667 178.771 210.604 180.208 213.062C181.666 215.5 182.396 218.271 182.396 221.375C182.396 224.5 181.666 227.292 180.208 229.75C178.771 232.188 176.791 234.115 174.271 235.531C171.771 236.927 168.916 237.625 165.708 237.625ZM165.677 229.594C167.114 229.594 168.396 229.24 169.521 228.531C170.666 227.802 171.562 226.823 172.208 225.594C172.875 224.344 173.208 222.917 173.208 221.312C173.208 219.771 172.875 218.385 172.208 217.156C171.562 215.927 170.666 214.958 169.521 214.25C168.396 213.521 167.114 213.156 165.677 213.156C164.219 213.156 162.916 213.521 161.771 214.25C160.646 214.958 159.75 215.927 159.083 217.156C158.437 218.385 158.114 219.771 158.114 221.312C158.114 222.917 158.437 224.344 159.083 225.594C159.75 226.823 160.646 227.802 161.771 228.531C162.916 229.24 164.219 229.594 165.677 229.594ZM197.083 237H188.114V205.75H195.927L196.239 211.156C197.281 209.26 198.698 207.781 200.489 206.719C202.281 205.656 204.333 205.125 206.646 205.125C207.312 205.125 207.979 205.177 208.646 205.281C209.333 205.365 210.031 205.5 210.739 205.688L209.614 213.75C208.239 213.354 206.937 213.156 205.708 213.156C203.979 213.156 202.458 213.552 201.146 214.344C199.854 215.115 198.854 216.198 198.146 217.594C197.437 218.969 197.083 220.583 197.083 222.438V237ZM265.708 237H256.739V221.312C256.739 218.708 256.229 216.698 255.208 215.281C254.187 213.865 252.739 213.156 250.864 213.156C248.948 213.156 247.448 213.875 246.364 215.312C245.302 216.75 244.771 218.75 244.771 221.312V237H235.802V221.312C235.802 218.708 235.291 216.698 234.271 215.281C233.25 213.865 231.791 213.156 229.896 213.156C228 213.156 226.51 213.875 225.427 215.312C224.364 216.75 223.833 218.75 223.833 221.312V237H214.864V205.75H222.021L222.333 210.906C223.375 209.01 224.771 207.573 226.521 206.594C228.291 205.615 230.344 205.125 232.677 205.125C235.114 205.125 237.219 205.635 238.989 206.656C240.76 207.677 242.125 209.146 243.083 211.062C244.146 209.125 245.552 207.656 247.302 206.656C249.073 205.635 251.166 205.125 253.583 205.125C257.396 205.125 260.364 206.344 262.489 208.781C264.635 211.198 265.708 214.583 265.708 218.938V237ZM302.989 237H295.708L295.396 232C294.291 233.833 292.823 235.229 290.989 236.188C289.177 237.146 287.052 237.625 284.614 237.625C280.614 237.625 277.479 236.396 275.208 233.938C272.937 231.479 271.802 228.104 271.802 223.812V205.75H280.771V221.75C280.771 224.188 281.344 226.104 282.489 227.5C283.656 228.875 285.239 229.562 287.239 229.562C289.323 229.562 290.969 228.844 292.177 227.406C293.406 225.948 294.021 223.979 294.021 221.5V205.75H302.989V237ZM320.208 237H310.614V188.875H320.208V237ZM355.739 237H347.927L347.458 233.281C346.312 234.656 344.896 235.729 343.208 236.5C341.521 237.25 339.666 237.625 337.646 237.625C335.458 237.625 333.51 237.208 331.802 236.375C330.094 235.521 328.75 234.354 327.771 232.875C326.791 231.375 326.302 229.677 326.302 227.781C326.302 225.781 326.833 224.021 327.896 222.5C328.958 220.979 330.416 219.792 332.271 218.938C334.146 218.062 336.271 217.625 338.646 217.625C340.041 217.625 341.437 217.781 342.833 218.094C344.25 218.406 345.562 218.844 346.771 219.406V218.594C346.771 217.344 346.416 216.271 345.708 215.375C345.021 214.458 344.062 213.75 342.833 213.25C341.625 212.75 340.271 212.5 338.771 212.5C337.333 212.5 335.906 212.729 334.489 213.188C333.094 213.646 331.802 214.333 330.614 215.25L328.177 208.406C330.281 207.323 332.406 206.51 334.552 205.969C336.719 205.406 338.812 205.125 340.833 205.125C343.875 205.125 346.51 205.729 348.739 206.938C350.969 208.125 352.687 209.812 353.896 212C355.125 214.167 355.739 216.74 355.739 219.719V237ZM339.614 230.719C340.802 230.719 341.937 230.458 343.021 229.938C344.104 229.417 344.979 228.708 345.646 227.812C346.333 226.917 346.698 225.927 346.739 224.844V224.625C345.823 224 344.802 223.521 343.677 223.188C342.573 222.833 341.448 222.656 340.302 222.656C338.594 222.656 337.198 223.031 336.114 223.781C335.031 224.531 334.489 225.5 334.489 226.688C334.489 227.458 334.708 228.156 335.146 228.781C335.604 229.385 336.219 229.865 336.989 230.219C337.76 230.552 338.635 230.719 339.614 230.719ZM371.708 237H362.739V205.75H370.552L370.864 211.156C371.906 209.26 373.323 207.781 375.114 206.719C376.906 205.656 378.958 205.125 381.271 205.125C381.937 205.125 382.604 205.177 383.271 205.281C383.958 205.365 384.656 205.5 385.364 205.688L384.239 213.75C382.864 213.354 381.562 213.156 380.333 213.156C378.604 213.156 377.083 213.552 375.771 214.344C374.479 215.115 373.479 216.198 372.771 217.594C372.062 218.969 371.708 220.583 371.708 222.438V237ZM394.021 198.281C392.833 198.281 391.833 197.865 391.021 197.031C390.208 196.198 389.802 195.188 389.802 194C389.802 192.812 390.208 191.812 391.021 191C391.833 190.167 392.833 189.75 394.021 189.75C395.229 189.75 396.239 190.167 397.052 191C397.885 191.812 398.302 192.812 398.302 194C398.302 195.188 397.885 196.198 397.052 197.031C396.239 197.865 395.229 198.281 394.021 198.281ZM398.521 237H389.552V205.75H398.521V237ZM421.083 237.625C417.875 237.625 415 236.927 412.458 235.531C409.916 234.115 407.916 232.188 406.458 229.75C405.021 227.292 404.302 224.5 404.302 221.375C404.302 218.271 405.021 215.5 406.458 213.062C407.916 210.604 409.916 208.667 412.458 207.25C415 205.833 417.875 205.125 421.083 205.125C424.291 205.125 427.146 205.833 429.646 207.25C432.166 208.667 434.146 210.604 435.583 213.062C437.041 215.5 437.771 218.271 437.771 221.375C437.771 224.5 437.041 227.292 435.583 229.75C434.146 232.188 432.166 234.115 429.646 235.531C427.146 236.927 424.291 237.625 421.083 237.625ZM421.052 229.594C422.489 229.594 423.771 229.24 424.896 228.531C426.041 227.802 426.937 226.823 427.583 225.594C428.25 224.344 428.583 222.917 428.583 221.312C428.583 219.771 428.25 218.385 427.583 217.156C426.937 215.927 426.041 214.958 424.896 214.25C423.771 213.521 422.489 213.156 421.052 213.156C419.594 213.156 418.291 213.521 417.146 214.25C416.021 214.958 415.125 215.927 414.458 217.156C413.812 218.385 413.489 219.771 413.489 221.312C413.489 222.917 413.812 224.344 414.458 225.594C415.125 226.823 416.021 227.802 417.146 228.531C418.291 229.24 419.594 229.594 421.052 229.594ZM441.302 234.312L443.271 226.688C443.896 227.375 444.729 228.01 445.771 228.594C446.833 229.177 447.969 229.646 449.177 230C450.406 230.333 451.562 230.5 452.646 230.5C453.937 230.5 454.948 230.26 455.677 229.781C456.406 229.281 456.771 228.615 456.771 227.781C456.771 227.094 456.521 226.521 456.021 226.062C455.541 225.583 454.885 225.167 454.052 224.812C453.239 224.438 452.333 224.073 451.333 223.719C449.979 223.198 448.583 222.594 447.146 221.906C445.729 221.219 444.531 220.281 443.552 219.094C442.573 217.906 442.083 216.333 442.083 214.375C442.083 212.5 442.573 210.875 443.552 209.5C444.531 208.104 445.916 207.031 447.708 206.281C449.5 205.51 451.583 205.125 453.958 205.125C457.812 205.125 461.656 206.094 465.489 208.031L462.958 215.125C462.291 214.604 461.458 214.125 460.458 213.688C459.458 213.229 458.427 212.865 457.364 212.594C456.323 212.323 455.385 212.188 454.552 212.188C453.531 212.188 452.729 212.396 452.146 212.812C451.583 213.229 451.302 213.802 451.302 214.531C451.302 215.073 451.5 215.562 451.896 216C452.291 216.417 452.875 216.823 453.646 217.219C454.437 217.594 455.406 218 456.552 218.438C457.969 218.958 459.396 219.583 460.833 220.312C462.291 221.021 463.51 221.979 464.489 223.188C465.489 224.375 465.989 225.958 465.989 227.938C465.989 229.875 465.458 231.573 464.396 233.031C463.354 234.49 461.875 235.625 459.958 236.438C458.062 237.229 455.833 237.625 453.271 237.625C449 237.625 445.01 236.521 441.302 234.312ZM69.7394 316V269.125H85.7706C89.7081 269.125 93.104 269.771 95.9581 271.062C98.8331 272.333 101.041 274.156 102.583 276.531C104.125 278.885 104.896 281.698 104.896 284.969C104.896 288.24 104.125 291.073 102.583 293.469C101.041 295.844 98.8435 297.677 95.9894 298.969C93.156 300.26 89.781 300.906 85.8644 300.906H79.3644V316H69.7394ZM79.3644 292.469H84.8644C88.1352 292.469 90.6456 291.823 92.3956 290.531C94.1665 289.219 95.0519 287.365 95.0519 284.969C95.0519 282.615 94.1665 280.792 92.3956 279.5C90.6456 278.188 88.1352 277.531 84.8644 277.531H79.3644V292.469ZM137.646 312.5C133.771 315.25 129.531 316.625 124.927 316.625C121.51 316.625 118.437 315.896 115.708 314.438C113 312.958 110.854 310.958 109.271 308.438C107.708 305.917 106.927 303.073 106.927 299.906C106.927 296.885 107.635 294.188 109.052 291.812C110.489 289.438 112.437 287.562 114.896 286.188C117.354 284.812 120.146 284.125 123.271 284.125C126.5 284.125 129.344 284.885 131.802 286.406C134.26 287.906 136.177 290.01 137.552 292.719C138.927 295.406 139.614 298.521 139.614 302.062V303.062H116.583C116.958 304.292 117.573 305.375 118.427 306.312C119.281 307.229 120.344 307.958 121.614 308.5C122.885 309.042 124.344 309.312 125.989 309.312C129.177 309.312 132.146 308.281 134.896 306.219L137.646 312.5ZM116.177 298.5H131.333C131.166 297.146 130.739 295.958 130.052 294.938C129.385 293.896 128.5 293.083 127.396 292.5C126.312 291.917 125.094 291.625 123.739 291.625C122.364 291.625 121.135 291.927 120.052 292.531C118.989 293.135 118.125 293.948 117.458 294.969C116.791 295.99 116.364 297.167 116.177 298.5ZM154.271 316H145.302V284.75H153.114L153.427 290.156C154.469 288.26 155.885 286.781 157.677 285.719C159.469 284.656 161.521 284.125 163.833 284.125C164.5 284.125 165.166 284.177 165.833 284.281C166.521 284.365 167.219 284.5 167.927 284.688L166.802 292.75C165.427 292.354 164.125 292.156 162.896 292.156C161.166 292.156 159.646 292.552 158.333 293.344C157.041 294.115 156.041 295.198 155.333 296.594C154.625 297.969 154.271 299.583 154.271 301.438V316ZM169.864 313.312L171.833 305.688C172.458 306.375 173.291 307.01 174.333 307.594C175.396 308.177 176.531 308.646 177.739 309C178.969 309.333 180.125 309.5 181.208 309.5C182.5 309.5 183.51 309.26 184.239 308.781C184.969 308.281 185.333 307.615 185.333 306.781C185.333 306.094 185.083 305.521 184.583 305.062C184.104 304.583 183.448 304.167 182.614 303.812C181.802 303.438 180.896 303.073 179.896 302.719C178.541 302.198 177.146 301.594 175.708 300.906C174.291 300.219 173.094 299.281 172.114 298.094C171.135 296.906 170.646 295.333 170.646 293.375C170.646 291.5 171.135 289.875 172.114 288.5C173.094 287.104 174.479 286.031 176.271 285.281C178.062 284.51 180.146 284.125 182.521 284.125C186.375 284.125 190.219 285.094 194.052 287.031L191.521 294.125C190.854 293.604 190.021 293.125 189.021 292.688C188.021 292.229 186.989 291.865 185.927 291.594C184.885 291.323 183.948 291.188 183.114 291.188C182.094 291.188 181.291 291.396 180.708 291.812C180.146 292.229 179.864 292.802 179.864 293.531C179.864 294.073 180.062 294.562 180.458 295C180.854 295.417 181.437 295.823 182.208 296.219C183 296.594 183.969 297 185.114 297.438C186.531 297.958 187.958 298.583 189.396 299.312C190.854 300.021 192.073 300.979 193.052 302.188C194.052 303.375 194.552 304.958 194.552 306.938C194.552 308.875 194.021 310.573 192.958 312.031C191.916 313.49 190.437 314.625 188.521 315.438C186.625 316.229 184.396 316.625 181.833 316.625C177.562 316.625 173.573 315.521 169.864 313.312ZM214.833 316.625C211.625 316.625 208.75 315.927 206.208 314.531C203.666 313.115 201.666 311.188 200.208 308.75C198.771 306.292 198.052 303.5 198.052 300.375C198.052 297.271 198.771 294.5 200.208 292.062C201.666 289.604 203.666 287.667 206.208 286.25C208.75 284.833 211.625 284.125 214.833 284.125C218.041 284.125 220.896 284.833 223.396 286.25C225.916 287.667 227.896 289.604 229.333 292.062C230.791 294.5 231.521 297.271 231.521 300.375C231.521 303.5 230.791 306.292 229.333 308.75C227.896 311.188 225.916 313.115 223.396 314.531C220.896 315.927 218.041 316.625 214.833 316.625ZM214.802 308.594C216.239 308.594 217.521 308.24 218.646 307.531C219.791 306.802 220.687 305.823 221.333 304.594C222 303.344 222.333 301.917 222.333 300.312C222.333 298.771 222 297.385 221.333 296.156C220.687 294.927 219.791 293.958 218.646 293.25C217.521 292.521 216.239 292.156 214.802 292.156C213.344 292.156 212.041 292.521 210.896 293.25C209.771 293.958 208.875 294.927 208.208 296.156C207.562 297.385 207.239 298.771 207.239 300.312C207.239 301.917 207.562 303.344 208.208 304.594C208.875 305.823 209.771 306.802 210.896 307.531C212.041 308.24 213.344 308.594 214.802 308.594ZM268.427 316H259.458V300C259.458 297.562 258.875 295.656 257.708 294.281C256.562 292.885 254.989 292.188 252.989 292.188C250.906 292.188 249.25 292.917 248.021 294.375C246.812 295.812 246.208 297.771 246.208 300.25V316H237.239V284.75H244.489L244.802 289.75C245.927 287.917 247.396 286.521 249.208 285.562C251.021 284.604 253.156 284.125 255.614 284.125C259.594 284.125 262.719 285.354 264.989 287.812C267.281 290.25 268.427 293.625 268.427 297.938V316ZM303.302 316H295.489L295.021 312.281C293.875 313.656 292.458 314.729 290.771 315.5C289.083 316.25 287.229 316.625 285.208 316.625C283.021 316.625 281.073 316.208 279.364 315.375C277.656 314.521 276.312 313.354 275.333 311.875C274.354 310.375 273.864 308.677 273.864 306.781C273.864 304.781 274.396 303.021 275.458 301.5C276.521 299.979 277.979 298.792 279.833 297.938C281.708 297.062 283.833 296.625 286.208 296.625C287.604 296.625 289 296.781 290.396 297.094C291.812 297.406 293.125 297.844 294.333 298.406V297.594C294.333 296.344 293.979 295.271 293.271 294.375C292.583 293.458 291.625 292.75 290.396 292.25C289.187 291.75 287.833 291.5 286.333 291.5C284.896 291.5 283.469 291.729 282.052 292.188C280.656 292.646 279.364 293.333 278.177 294.25L275.739 287.406C277.844 286.323 279.969 285.51 282.114 284.969C284.281 284.406 286.375 284.125 288.396 284.125C291.437 284.125 294.073 284.729 296.302 285.938C298.531 287.125 300.25 288.812 301.458 291C302.687 293.167 303.302 295.74 303.302 298.719V316ZM287.177 309.719C288.364 309.719 289.5 309.458 290.583 308.938C291.666 308.417 292.541 307.708 293.208 306.812C293.896 305.917 294.26 304.927 294.302 303.844V303.625C293.385 303 292.364 302.521 291.239 302.188C290.135 301.833 289.01 301.656 287.864 301.656C286.156 301.656 284.76 302.031 283.677 302.781C282.594 303.531 282.052 304.5 282.052 305.688C282.052 306.458 282.271 307.156 282.708 307.781C283.166 308.385 283.781 308.865 284.552 309.219C285.323 309.552 286.198 309.719 287.177 309.719ZM319.896 316H310.302V267.875H319.896V316ZM332.083 277.281C330.896 277.281 329.896 276.865 329.083 276.031C328.271 275.198 327.864 274.188 327.864 273C327.864 271.812 328.271 270.812 329.083 270C329.896 269.167 330.896 268.75 332.083 268.75C333.291 268.75 334.302 269.167 335.114 270C335.948 270.812 336.364 271.812 336.364 273C336.364 274.188 335.948 275.198 335.114 276.031C334.302 276.865 333.291 277.281 332.083 277.281ZM336.583 316H327.614V284.75H336.583V316ZM373.177 316H342.364V311.5L357.958 292.781H343.208V284.75H372.083V288.562L355.896 307.969H373.177V316ZM405.802 316H397.989L397.521 312.281C396.375 313.656 394.958 314.729 393.271 315.5C391.583 316.25 389.729 316.625 387.708 316.625C385.521 316.625 383.573 316.208 381.864 315.375C380.156 314.521 378.812 313.354 377.833 311.875C376.854 310.375 376.364 308.677 376.364 306.781C376.364 304.781 376.896 303.021 377.958 301.5C379.021 299.979 380.479 298.792 382.333 297.938C384.208 297.062 386.333 296.625 388.708 296.625C390.104 296.625 391.5 296.781 392.896 297.094C394.312 297.406 395.625 297.844 396.833 298.406V297.594C396.833 296.344 396.479 295.271 395.771 294.375C395.083 293.458 394.125 292.75 392.896 292.25C391.687 291.75 390.333 291.5 388.833 291.5C387.396 291.5 385.969 291.729 384.552 292.188C383.156 292.646 381.864 293.333 380.677 294.25L378.239 287.406C380.344 286.323 382.469 285.51 384.614 284.969C386.781 284.406 388.875 284.125 390.896 284.125C393.937 284.125 396.573 284.729 398.802 285.938C401.031 287.125 402.75 288.812 403.958 291C405.187 293.167 405.802 295.74 405.802 298.719V316ZM389.677 309.719C390.864 309.719 392 309.458 393.083 308.938C394.166 308.417 395.041 307.708 395.708 306.812C396.396 305.917 396.76 304.927 396.802 303.844V303.625C395.885 303 394.864 302.521 393.739 302.188C392.635 301.833 391.51 301.656 390.364 301.656C388.656 301.656 387.26 302.031 386.177 302.781C385.094 303.531 384.552 304.5 384.552 305.688C384.552 306.458 384.771 307.156 385.208 307.781C385.666 308.385 386.281 308.865 387.052 309.219C387.823 309.552 388.698 309.719 389.677 309.719ZM444.989 316H437.114L436.646 311.75C435.312 313.25 433.708 314.438 431.833 315.312C429.979 316.188 427.948 316.625 425.739 316.625C422.885 316.625 420.333 315.927 418.083 314.531C415.854 313.115 414.094 311.177 412.802 308.719C411.51 306.26 410.864 303.479 410.864 300.375C410.864 297.25 411.51 294.469 412.802 292.031C414.094 289.573 415.854 287.646 418.083 286.25C420.333 284.833 422.885 284.125 425.739 284.125C427.781 284.125 429.677 284.5 431.427 285.25C433.198 285.979 434.729 287 436.021 288.312V269.125H444.989V316ZM428.052 308.594C429.531 308.594 430.864 308.26 432.052 307.594C433.26 306.927 434.219 306.021 434.927 304.875C435.656 303.708 436.021 302.385 436.021 300.906V299.781C436.021 298.302 435.656 296.99 434.927 295.844C434.219 294.698 433.26 293.802 432.052 293.156C430.864 292.49 429.531 292.156 428.052 292.156C426.531 292.156 425.166 292.51 423.958 293.219C422.75 293.927 421.791 294.906 421.083 296.156C420.396 297.385 420.052 298.792 420.052 300.375C420.052 301.938 420.396 303.344 421.083 304.594C421.791 305.823 422.75 306.802 423.958 307.531C425.166 308.24 426.531 308.594 428.052 308.594ZM467.458 316.625C464.25 316.625 461.375 315.927 458.833 314.531C456.291 313.115 454.291 311.188 452.833 308.75C451.396 306.292 450.677 303.5 450.677 300.375C450.677 297.271 451.396 294.5 452.833 292.062C454.291 289.604 456.291 287.667 458.833 286.25C461.375 284.833 464.25 284.125 467.458 284.125C470.666 284.125 473.521 284.833 476.021 286.25C478.541 287.667 480.521 289.604 481.958 292.062C483.416 294.5 484.146 297.271 484.146 300.375C484.146 303.5 483.416 306.292 481.958 308.75C480.521 311.188 478.541 313.115 476.021 314.531C473.521 315.927 470.666 316.625 467.458 316.625ZM467.427 308.594C468.864 308.594 470.146 308.24 471.271 307.531C472.416 306.802 473.312 305.823 473.958 304.594C474.625 303.344 474.958 301.917 474.958 300.312C474.958 298.771 474.625 297.385 473.958 296.156C473.312 294.927 472.416 293.958 471.271 293.25C470.146 292.521 468.864 292.156 467.427 292.156C465.969 292.156 464.666 292.521 463.521 293.25C462.396 293.958 461.5 294.927 460.833 296.156C460.187 297.385 459.864 298.771 459.864 300.312C459.864 301.917 460.187 303.344 460.833 304.594C461.5 305.823 462.396 306.802 463.521 307.531C464.666 308.24 465.969 308.594 467.427 308.594ZM487.677 313.312L489.646 305.688C490.271 306.375 491.104 307.01 492.146 307.594C493.208 308.177 494.344 308.646 495.552 309C496.781 309.333 497.937 309.5 499.021 309.5C500.312 309.5 501.323 309.26 502.052 308.781C502.781 308.281 503.146 307.615 503.146 306.781C503.146 306.094 502.896 305.521 502.396 305.062C501.916 304.583 501.26 304.167 500.427 303.812C499.614 303.438 498.708 303.073 497.708 302.719C496.354 302.198 494.958 301.594 493.521 300.906C492.104 300.219 490.906 299.281 489.927 298.094C488.948 296.906 488.458 295.333 488.458 293.375C488.458 291.5 488.948 289.875 489.927 288.5C490.906 287.104 492.291 286.031 494.083 285.281C495.875 284.51 497.958 284.125 500.333 284.125C504.187 284.125 508.031 285.094 511.864 287.031L509.333 294.125C508.666 293.604 507.833 293.125 506.833 292.688C505.833 292.229 504.802 291.865 503.739 291.594C502.698 291.323 501.76 291.188 500.927 291.188C499.906 291.188 499.104 291.396 498.521 291.812C497.958 292.229 497.677 292.802 497.677 293.531C497.677 294.073 497.875 294.562 498.271 295C498.666 295.417 499.25 295.823 500.021 296.219C500.812 296.594 501.781 297 502.927 297.438C504.344 297.958 505.771 298.583 507.208 299.312C508.666 300.021 509.885 300.979 510.864 302.188C511.864 303.375 512.364 304.958 512.364 306.938C512.364 308.875 511.833 310.573 510.771 312.031C509.729 313.49 508.25 314.625 506.333 315.438C504.437 316.229 502.208 316.625 499.646 316.625C495.375 316.625 491.385 315.521 487.677 313.312Z"
      fill="#F4F4F4"
    />
    <path
      d="M108.014 442.145C106.578 443.539 104.876 444.633 102.907 445.426C100.938 446.219 98.7988 446.615 96.4883 446.615C94.1504 446.615 91.9971 446.219 90.0283 445.426C88.0596 444.619 86.3438 443.498 84.8809 442.062C83.4316 440.613 82.3037 438.918 81.4971 436.977C80.6904 435.035 80.2871 432.916 80.2871 430.619C80.2871 428.322 80.6904 426.203 81.4971 424.262C82.3037 422.307 83.4316 420.611 84.8809 419.176C86.3438 417.74 88.0596 416.626 90.0283 415.833C91.9971 415.026 94.1504 414.623 96.4883 414.623C98.7852 414.623 100.911 415.02 102.866 415.812C104.835 416.605 106.537 417.706 107.973 419.114L103.563 423.544C102.702 422.491 101.649 421.664 100.405 421.062C99.1748 420.447 97.835 420.14 96.3857 420.14C95.0049 420.14 93.7266 420.406 92.5508 420.939C91.3887 421.459 90.3701 422.197 89.4951 423.154C88.6201 424.098 87.9434 425.205 87.4648 426.477C86.9863 427.748 86.7471 429.122 86.7471 430.599C86.7471 432.103 86.9863 433.49 87.4648 434.762C87.9434 436.033 88.6201 437.147 89.4951 438.104C90.3701 439.048 91.3887 439.786 92.5508 440.319C93.7266 440.839 95.0049 441.099 96.3857 441.099C97.835 441.099 99.1748 440.798 100.405 440.196C101.636 439.581 102.682 438.747 103.543 437.694L108.014 442.145ZM121.446 446.41C119.341 446.41 117.454 445.952 115.786 445.036C114.118 444.106 112.806 442.842 111.849 441.242C110.905 439.629 110.434 437.797 110.434 435.746C110.434 433.709 110.905 431.891 111.849 430.291C112.806 428.678 114.118 427.406 115.786 426.477C117.454 425.547 119.341 425.082 121.446 425.082C123.552 425.082 125.425 425.547 127.065 426.477C128.72 427.406 130.019 428.678 130.962 430.291C131.919 431.891 132.397 433.709 132.397 435.746C132.397 437.797 131.919 439.629 130.962 441.242C130.019 442.842 128.72 444.106 127.065 445.036C125.425 445.952 123.552 446.41 121.446 446.41ZM121.426 441.14C122.369 441.14 123.21 440.907 123.948 440.442C124.7 439.964 125.288 439.321 125.712 438.515C126.149 437.694 126.368 436.758 126.368 435.705C126.368 434.693 126.149 433.784 125.712 432.978C125.288 432.171 124.7 431.535 123.948 431.07C123.21 430.592 122.369 430.353 121.426 430.353C120.469 430.353 119.614 430.592 118.862 431.07C118.124 431.535 117.536 432.171 117.099 432.978C116.675 433.784 116.463 434.693 116.463 435.705C116.463 436.758 116.675 437.694 117.099 438.515C117.536 439.321 118.124 439.964 118.862 440.442C119.614 440.907 120.469 441.14 121.426 441.14ZM156.617 446H150.731V435.5C150.731 433.9 150.349 432.649 149.583 431.747C148.831 430.831 147.799 430.373 146.486 430.373C145.119 430.373 144.032 430.852 143.226 431.809C142.433 432.752 142.036 434.037 142.036 435.664V446H136.15V425.492H140.908L141.113 428.773C141.852 427.57 142.815 426.654 144.005 426.025C145.194 425.396 146.596 425.082 148.209 425.082C150.82 425.082 152.871 425.889 154.361 427.502C155.865 429.102 156.617 431.316 156.617 434.146V446ZM175.136 445.467C173.563 446.096 172.039 446.41 170.562 446.41C169.031 446.41 167.678 446.089 166.502 445.446C165.34 444.79 164.431 443.881 163.774 442.719C163.118 441.543 162.79 440.189 162.79 438.658V430.742H159.201V425.492H163.098V420.365H168.676V425.492H174.356V430.742H168.676V437.592C168.676 438.713 168.983 439.588 169.599 440.217C170.214 440.832 170.979 441.14 171.896 441.14C172.729 441.14 173.543 440.88 174.336 440.36L175.136 445.467ZM183.831 446H177.945V425.492H183.072L183.277 429.04C183.961 427.796 184.891 426.825 186.066 426.128C187.242 425.431 188.589 425.082 190.106 425.082C190.544 425.082 190.981 425.116 191.419 425.185C191.87 425.239 192.328 425.328 192.793 425.451L192.055 430.742C191.152 430.482 190.298 430.353 189.491 430.353C188.356 430.353 187.358 430.612 186.497 431.132C185.649 431.638 184.993 432.349 184.528 433.265C184.063 434.167 183.831 435.227 183.831 436.443V446ZM205.241 446.41C203.136 446.41 201.249 445.952 199.581 445.036C197.913 444.106 196.601 442.842 195.644 441.242C194.7 439.629 194.229 437.797 194.229 435.746C194.229 433.709 194.7 431.891 195.644 430.291C196.601 428.678 197.913 427.406 199.581 426.477C201.249 425.547 203.136 425.082 205.241 425.082C207.347 425.082 209.22 425.547 210.86 426.477C212.515 427.406 213.813 428.678 214.757 430.291C215.714 431.891 216.192 433.709 216.192 435.746C216.192 437.797 215.714 439.629 214.757 441.242C213.813 442.842 212.515 444.106 210.86 445.036C209.22 445.952 207.347 446.41 205.241 446.41ZM205.221 441.14C206.164 441.14 207.005 440.907 207.743 440.442C208.495 439.964 209.083 439.321 209.507 438.515C209.944 437.694 210.163 436.758 210.163 435.705C210.163 434.693 209.944 433.784 209.507 432.978C209.083 432.171 208.495 431.535 207.743 431.07C207.005 430.592 206.164 430.353 205.221 430.353C204.264 430.353 203.409 430.592 202.657 431.07C201.919 431.535 201.331 432.171 200.894 432.978C200.47 433.784 200.258 434.693 200.258 435.705C200.258 436.758 200.47 437.694 200.894 438.515C201.331 439.321 201.919 439.964 202.657 440.442C203.409 440.907 204.264 441.14 205.221 441.14ZM226.241 446H219.945V414.418H226.241V446ZM248.369 446H241.684L229.42 415.238H236.044L245.026 438.781L253.968 415.238H260.612L248.369 446ZM278.803 446H273.676L273.368 443.56C272.616 444.462 271.687 445.166 270.579 445.672C269.472 446.164 268.255 446.41 266.929 446.41C265.493 446.41 264.215 446.137 263.094 445.59C261.973 445.029 261.091 444.264 260.448 443.293C259.806 442.309 259.484 441.194 259.484 439.95C259.484 438.638 259.833 437.482 260.53 436.484C261.228 435.486 262.185 434.707 263.401 434.146C264.632 433.572 266.026 433.285 267.585 433.285C268.501 433.285 269.417 433.388 270.333 433.593C271.263 433.798 272.124 434.085 272.917 434.454V433.921C272.917 433.101 272.685 432.396 272.22 431.809C271.769 431.207 271.14 430.742 270.333 430.414C269.54 430.086 268.651 429.922 267.667 429.922C266.724 429.922 265.787 430.072 264.857 430.373C263.941 430.674 263.094 431.125 262.314 431.727L260.715 427.235C262.096 426.524 263.49 425.991 264.898 425.636C266.32 425.267 267.694 425.082 269.021 425.082C271.017 425.082 272.746 425.479 274.209 426.271C275.672 427.051 276.8 428.158 277.593 429.594C278.399 431.016 278.803 432.704 278.803 434.659V446ZM268.221 441.878C269 441.878 269.745 441.707 270.456 441.365C271.167 441.023 271.741 440.559 272.179 439.971C272.63 439.383 272.869 438.733 272.896 438.022V437.879C272.295 437.469 271.625 437.154 270.887 436.936C270.162 436.703 269.424 436.587 268.672 436.587C267.551 436.587 266.635 436.833 265.924 437.325C265.213 437.817 264.857 438.453 264.857 439.232C264.857 439.738 265.001 440.196 265.288 440.606C265.589 441.003 265.992 441.317 266.498 441.55C267.004 441.769 267.578 441.878 268.221 441.878ZM289.692 446H283.396V414.418H289.692V446ZM314.773 446H309.995L309.79 442.719C309.065 443.922 308.102 444.838 306.898 445.467C305.709 446.096 304.314 446.41 302.715 446.41C300.09 446.41 298.032 445.604 296.542 443.99C295.052 442.377 294.307 440.162 294.307 437.346V425.492H300.192V435.992C300.192 437.592 300.568 438.85 301.32 439.766C302.086 440.668 303.125 441.119 304.438 441.119C305.805 441.119 306.885 440.647 307.678 439.704C308.484 438.747 308.888 437.455 308.888 435.828V425.492H314.773V446ZM338.665 443.703C336.122 445.508 333.34 446.41 330.318 446.41C328.076 446.41 326.06 445.932 324.269 444.975C322.491 444.004 321.083 442.691 320.044 441.037C319.019 439.383 318.506 437.517 318.506 435.438C318.506 433.456 318.971 431.686 319.9 430.127C320.844 428.568 322.122 427.338 323.735 426.436C325.349 425.533 327.181 425.082 329.231 425.082C331.351 425.082 333.217 425.581 334.83 426.579C336.443 427.563 337.701 428.944 338.604 430.722C339.506 432.485 339.957 434.529 339.957 436.854V437.51H324.843C325.089 438.316 325.492 439.027 326.053 439.643C326.613 440.244 327.311 440.723 328.145 441.078C328.979 441.434 329.936 441.611 331.016 441.611C333.107 441.611 335.056 440.935 336.86 439.581L338.665 443.703ZM324.576 434.516H334.522C334.413 433.627 334.133 432.848 333.682 432.178C333.244 431.494 332.663 430.961 331.938 430.578C331.228 430.195 330.428 430.004 329.539 430.004C328.637 430.004 327.83 430.202 327.119 430.599C326.422 430.995 325.854 431.528 325.417 432.198C324.979 432.868 324.699 433.641 324.576 434.516ZM348.304 446H341.68L353.943 415.238H360.608L372.852 446H366.228L363.705 439.396H350.826L348.304 446ZM352.897 433.859H361.654L357.266 422.457L352.897 433.859ZM394.016 442.739C393.018 443.888 391.794 444.79 390.345 445.446C388.896 446.089 387.303 446.41 385.566 446.41C383.461 446.41 381.574 445.952 379.906 445.036C378.252 444.106 376.946 442.835 375.989 441.222C375.046 439.608 374.574 437.783 374.574 435.746C374.574 433.695 375.046 431.87 375.989 430.271C376.946 428.657 378.252 427.393 379.906 426.477C381.574 425.547 383.461 425.082 385.566 425.082C387.289 425.082 388.875 425.403 390.324 426.046C391.773 426.688 392.997 427.577 393.995 428.712L390.529 432.342C389.996 431.727 389.319 431.248 388.499 430.906C387.692 430.551 386.845 430.373 385.956 430.373C384.931 430.373 384.015 430.605 383.208 431.07C382.401 431.521 381.766 432.15 381.301 432.957C380.836 433.75 380.604 434.666 380.604 435.705C380.604 436.758 380.836 437.694 381.301 438.515C381.766 439.335 382.401 439.978 383.208 440.442C384.015 440.894 384.931 441.119 385.956 441.119C386.845 441.119 387.699 440.948 388.52 440.606C389.34 440.251 390.01 439.766 390.529 439.15L394.016 442.739ZM415.795 442.739C414.797 443.888 413.573 444.79 412.124 445.446C410.675 446.089 409.082 446.41 407.346 446.41C405.24 446.41 403.354 445.952 401.686 445.036C400.031 444.106 398.726 442.835 397.769 441.222C396.825 439.608 396.354 437.783 396.354 435.746C396.354 433.695 396.825 431.87 397.769 430.271C398.726 428.657 400.031 427.393 401.686 426.477C403.354 425.547 405.24 425.082 407.346 425.082C409.068 425.082 410.654 425.403 412.104 426.046C413.553 426.688 414.776 427.577 415.774 428.712L412.309 432.342C411.775 431.727 411.099 431.248 410.278 430.906C409.472 430.551 408.624 430.373 407.735 430.373C406.71 430.373 405.794 430.605 404.987 431.07C404.181 431.521 403.545 432.15 403.08 432.957C402.615 433.75 402.383 434.666 402.383 435.705C402.383 436.758 402.615 437.694 403.08 438.515C403.545 439.335 404.181 439.978 404.987 440.442C405.794 440.894 406.71 441.119 407.735 441.119C408.624 441.119 409.479 440.948 410.299 440.606C411.119 440.251 411.789 439.766 412.309 439.15L415.795 442.739ZM438.292 443.703C435.749 445.508 432.967 446.41 429.945 446.41C427.703 446.41 425.687 445.932 423.896 444.975C422.118 444.004 420.71 442.691 419.671 441.037C418.646 439.383 418.133 437.517 418.133 435.438C418.133 433.456 418.598 431.686 419.527 430.127C420.471 428.568 421.749 427.338 423.362 426.436C424.976 425.533 426.808 425.082 428.858 425.082C430.978 425.082 432.844 425.581 434.457 426.579C436.07 427.563 437.328 428.944 438.23 430.722C439.133 432.485 439.584 434.529 439.584 436.854V437.51H424.47C424.716 438.316 425.119 439.027 425.68 439.643C426.24 440.244 426.938 440.723 427.771 441.078C428.605 441.434 429.562 441.611 430.643 441.611C432.734 441.611 434.683 440.935 436.487 439.581L438.292 443.703ZM424.203 434.516H434.149C434.04 433.627 433.76 432.848 433.309 432.178C432.871 431.494 432.29 430.961 431.565 430.578C430.854 430.195 430.055 430.004 429.166 430.004C428.264 430.004 427.457 430.202 426.746 430.599C426.049 430.995 425.481 431.528 425.044 432.198C424.606 432.868 424.326 433.641 424.203 434.516ZM441.881 444.236L443.173 439.232C443.583 439.684 444.13 440.101 444.813 440.483C445.511 440.866 446.256 441.174 447.049 441.406C447.855 441.625 448.614 441.734 449.325 441.734C450.173 441.734 450.836 441.577 451.314 441.263C451.793 440.935 452.032 440.497 452.032 439.95C452.032 439.499 451.868 439.123 451.54 438.822C451.226 438.508 450.795 438.234 450.248 438.002C449.715 437.756 449.12 437.517 448.464 437.284C447.575 436.942 446.659 436.546 445.716 436.095C444.786 435.644 444 435.028 443.357 434.249C442.715 433.47 442.394 432.438 442.394 431.152C442.394 429.922 442.715 428.855 443.357 427.953C444 427.037 444.909 426.333 446.085 425.841C447.261 425.335 448.628 425.082 450.187 425.082C452.716 425.082 455.238 425.718 457.754 426.989L456.093 431.645C455.655 431.303 455.108 430.988 454.452 430.701C453.796 430.4 453.119 430.161 452.422 429.983C451.738 429.806 451.123 429.717 450.576 429.717C449.906 429.717 449.38 429.854 448.997 430.127C448.628 430.4 448.443 430.776 448.443 431.255C448.443 431.61 448.573 431.932 448.833 432.219C449.093 432.492 449.476 432.759 449.981 433.019C450.501 433.265 451.137 433.531 451.889 433.818C452.818 434.16 453.755 434.57 454.698 435.049C455.655 435.514 456.455 436.143 457.098 436.936C457.754 437.715 458.082 438.754 458.082 440.053C458.082 441.324 457.733 442.438 457.036 443.396C456.353 444.353 455.382 445.098 454.124 445.631C452.88 446.15 451.417 446.41 449.735 446.41C446.933 446.41 444.314 445.686 441.881 444.236ZM471.392 446.41C469.286 446.41 467.399 445.952 465.731 445.036C464.063 444.106 462.751 442.842 461.794 441.242C460.851 439.629 460.379 437.797 460.379 435.746C460.379 433.709 460.851 431.891 461.794 430.291C462.751 428.678 464.063 427.406 465.731 426.477C467.399 425.547 469.286 425.082 471.392 425.082C473.497 425.082 475.37 425.547 477.011 426.477C478.665 427.406 479.964 428.678 480.907 430.291C481.864 431.891 482.343 433.709 482.343 435.746C482.343 437.797 481.864 439.629 480.907 441.242C479.964 442.842 478.665 444.106 477.011 445.036C475.37 445.952 473.497 446.41 471.392 446.41ZM471.371 441.14C472.314 441.14 473.155 440.907 473.894 440.442C474.646 439.964 475.233 439.321 475.657 438.515C476.095 437.694 476.313 436.758 476.313 435.705C476.313 434.693 476.095 433.784 475.657 432.978C475.233 432.171 474.646 431.535 473.894 431.07C473.155 430.592 472.314 430.353 471.371 430.353C470.414 430.353 469.56 430.592 468.808 431.07C468.069 431.535 467.481 432.171 467.044 432.978C466.62 433.784 466.408 434.693 466.408 435.705C466.408 436.758 466.62 437.694 467.044 438.515C467.481 439.321 468.069 439.964 468.808 440.442C469.56 440.907 470.414 441.14 471.371 441.14ZM491.981 446H486.096V425.492H491.223L491.428 429.04C492.111 427.796 493.041 426.825 494.217 426.128C495.393 425.431 496.739 425.082 498.257 425.082C498.694 425.082 499.132 425.116 499.569 425.185C500.021 425.239 500.479 425.328 500.943 425.451L500.205 430.742C499.303 430.482 498.448 430.353 497.642 430.353C496.507 430.353 495.509 430.612 494.647 431.132C493.8 431.638 493.144 432.349 492.679 433.265C492.214 434.167 491.981 435.227 491.981 436.443V446Z"
      fill="#E33132"
    />
    <path
      fill-rule="evenodd"
      clip-rule="evenodd"
      d="M668.183 148.68L899.449 66.2817L1136.94 147.216L1098.49 453.189L899.449 563.421L703.523 454.654L668.183 148.68V148.68Z"
      fill="#E23237"
    />
    <path
      fill-rule="evenodd"
      clip-rule="evenodd"
      d="M1136.94 147.216L899.449 66.2817V563.421L1098.49 453.373L1136.94 147.216V147.216V147.216Z"
      fill="#B52E31"
    />
    <path
      fill-rule="evenodd"
      clip-rule="evenodd"
      d="M899.815 124.327V124.327L755.709 444.95L809.543 444.034L838.474 371.706H899.998H900.181H967.748L999.426 444.95L1050.88 445.865L899.815 124.327V124.327V124.327ZM900.181 227.051L948.888 328.859H902.195H899.815H857.334L900.181 227.051V227.051V227.051Z"
      fill="white"
    />
  </g>
  <rect x="0.584473" y="0.5" width="1199" height="629" stroke="#69A8D4" />
  <defs>
    <filter
      id="filter0_f_302_244"
      x="-21.0636"
      y="-242.148"
      width="2338.95"
      height="2338.95"
      filterUnits="userSpaceOnUse"
      color-interpolation-filters="sRGB"
    >
      <feFlood flood-opacity="0" result="BackgroundImageFix" />
      <feBlend
        mode="normal"
        in="SourceGraphic"
        in2="BackgroundImageFix"
        result="shape"
      />
      <feGaussianBlur
        stdDeviation="350"
        result="effect1_foregroundBlur_302_244"
      />
    </filter>
    <clipPath id="clip0_302_244">
      <rect x="0.0844727" width="1200" height="630" fill="white" />
    </clipPath>
  </defs>
</svg>
