<svg
  width="1200"
  height="630"
  viewBox="0 0 1200 630"
  fill="none"
  xmlns="http://www.w3.org/2000/svg"
>
  <g clip-path="url(#clip0_309_440)">
    <rect width="1200" height="630" fill="#142538" />
    <g filter="url(#filter0_f_309_440)">
      <circle cx="1010.65" cy="533.192" r="360.192" fill="#69A8D4" />
    </g>
    <path
      d="M121.438 269.125C119.25 271.25 116.656 272.917 113.656 274.125C110.656 275.333 107.396 275.938 103.875 275.938C100.312 275.938 97.0312 275.333 94.0312 274.125C91.0312 272.896 88.4167 271.188 86.1875 269C83.9792 266.792 82.2604 264.208 81.0312 261.25C79.8021 258.292 79.1875 255.062 79.1875 251.562C79.1875 248.062 79.8021 244.833 81.0312 241.875C82.2604 238.896 83.9792 236.312 86.1875 234.125C88.4167 231.938 91.0312 230.24 94.0312 229.031C97.0312 227.802 100.312 227.188 103.875 227.188C107.375 227.188 110.615 227.792 113.594 229C116.594 230.208 119.188 231.885 121.375 234.031L114.656 240.781C113.344 239.177 111.74 237.917 109.844 237C107.969 236.062 105.927 235.594 103.719 235.594C101.615 235.594 99.6667 236 97.875 236.812C96.1042 237.604 94.5521 238.729 93.2188 240.188C91.8854 241.625 90.8542 243.312 90.125 245.25C89.3958 247.188 89.0312 249.281 89.0312 251.531C89.0312 253.823 89.3958 255.938 90.125 257.875C90.8542 259.812 91.8854 261.51 93.2188 262.969C94.5521 264.406 96.1042 265.531 97.875 266.344C99.6667 267.135 101.615 267.531 103.719 267.531C105.927 267.531 107.969 267.073 109.844 266.156C111.719 265.219 113.312 263.948 114.625 262.344L121.438 269.125ZM144.469 238.688H138.094L142.531 228.125H150.688L144.469 238.688ZM141.906 275.625C138.698 275.625 135.823 274.927 133.281 273.531C130.74 272.115 128.74 270.177 127.281 267.719C125.844 265.26 125.125 262.479 125.125 259.375C125.125 256.25 125.844 253.469 127.281 251.031C128.74 248.573 130.74 246.646 133.281 245.25C135.823 243.833 138.698 243.125 141.906 243.125C145.115 243.125 147.969 243.833 150.469 245.25C152.99 246.646 154.969 248.573 156.406 251.031C157.865 253.469 158.594 256.25 158.594 259.375C158.594 262.479 157.865 265.26 156.406 267.719C154.969 270.177 152.99 272.115 150.469 273.531C147.969 274.927 145.115 275.625 141.906 275.625ZM141.875 267.594C143.312 267.594 144.594 267.24 145.719 266.531C146.865 265.802 147.76 264.812 148.406 263.562C149.073 262.312 149.406 260.896 149.406 259.312C149.406 257.771 149.073 256.385 148.406 255.156C147.76 253.906 146.865 252.927 145.719 252.219C144.594 251.51 143.312 251.156 141.875 251.156C140.417 251.156 139.115 251.51 137.969 252.219C136.844 252.927 135.948 253.906 135.281 255.156C134.635 256.385 134.312 257.771 134.312 259.312C134.312 260.896 134.635 262.312 135.281 263.562C135.948 264.812 136.844 265.802 137.969 266.531C139.115 267.24 140.417 267.594 141.875 267.594ZM215.156 275H206.188V259.312C206.188 256.708 205.677 254.698 204.656 253.281C203.635 251.865 202.188 251.156 200.312 251.156C198.396 251.156 196.896 251.875 195.812 253.312C194.75 254.75 194.219 256.75 194.219 259.312V275H185.25V259.312C185.25 256.708 184.74 254.698 183.719 253.281C182.698 251.865 181.24 251.156 179.344 251.156C177.448 251.156 175.958 251.875 174.875 253.312C173.812 254.75 173.281 256.75 173.281 259.312V275H164.312V243.75H171.469L171.781 248.906C172.823 247.01 174.219 245.573 175.969 244.594C177.74 243.615 179.792 243.125 182.125 243.125C184.562 243.125 186.667 243.635 188.438 244.656C190.208 245.677 191.573 247.146 192.531 249.062C193.594 247.125 195 245.656 196.75 244.656C198.521 243.635 200.615 243.125 203.031 243.125C206.844 243.125 209.812 244.344 211.938 246.781C214.083 249.198 215.156 252.583 215.156 256.938V275ZM237.031 275.625C233.823 275.625 230.948 274.927 228.406 273.531C225.865 272.115 223.865 270.188 222.406 267.75C220.969 265.292 220.25 262.5 220.25 259.375C220.25 256.271 220.969 253.5 222.406 251.062C223.865 248.604 225.865 246.667 228.406 245.25C230.948 243.833 233.823 243.125 237.031 243.125C240.24 243.125 243.094 243.833 245.594 245.25C248.115 246.667 250.094 248.604 251.531 251.062C252.99 253.5 253.719 256.271 253.719 259.375C253.719 262.5 252.99 265.292 251.531 267.75C250.094 270.188 248.115 272.115 245.594 273.531C243.094 274.927 240.24 275.625 237.031 275.625ZM237 267.594C238.438 267.594 239.719 267.24 240.844 266.531C241.99 265.802 242.885 264.823 243.531 263.594C244.198 262.344 244.531 260.917 244.531 259.312C244.531 257.771 244.198 256.385 243.531 255.156C242.885 253.927 241.99 252.958 240.844 252.25C239.719 251.521 238.438 251.156 237 251.156C235.542 251.156 234.24 251.521 233.094 252.25C231.969 252.958 231.073 253.927 230.406 255.156C229.76 256.385 229.438 257.771 229.438 259.312C229.438 260.917 229.76 262.344 230.406 263.594C231.073 264.823 231.969 265.802 233.094 266.531C234.24 267.24 235.542 267.594 237 267.594ZM304.5 275H297.219L296.906 270C295.802 271.833 294.333 273.229 292.5 274.188C290.688 275.146 288.562 275.625 286.125 275.625C282.125 275.625 278.99 274.396 276.719 271.938C274.448 269.479 273.312 266.104 273.312 261.812V243.75H282.281V259.75C282.281 262.188 282.854 264.104 284 265.5C285.167 266.875 286.75 267.562 288.75 267.562C290.833 267.562 292.479 266.844 293.688 265.406C294.917 263.948 295.531 261.979 295.531 259.5V243.75H304.5V275ZM309.938 272.312L311.906 264.688C312.531 265.375 313.365 266.01 314.406 266.594C315.469 267.177 316.604 267.646 317.812 268C319.042 268.333 320.198 268.5 321.281 268.5C322.573 268.5 323.583 268.26 324.312 267.781C325.042 267.281 325.406 266.615 325.406 265.781C325.406 265.094 325.156 264.521 324.656 264.062C324.177 263.583 323.521 263.167 322.688 262.812C321.875 262.438 320.969 262.073 319.969 261.719C318.615 261.198 317.219 260.594 315.781 259.906C314.365 259.219 313.167 258.281 312.188 257.094C311.208 255.906 310.719 254.333 310.719 252.375C310.719 250.5 311.208 248.875 312.188 247.5C313.167 246.104 314.552 245.031 316.344 244.281C318.135 243.51 320.219 243.125 322.594 243.125C326.448 243.125 330.292 244.094 334.125 246.031L331.594 253.125C330.927 252.604 330.094 252.125 329.094 251.688C328.094 251.229 327.062 250.865 326 250.594C324.958 250.323 324.021 250.188 323.188 250.188C322.167 250.188 321.365 250.396 320.781 250.812C320.219 251.229 319.938 251.802 319.938 252.531C319.938 253.073 320.135 253.562 320.531 254C320.927 254.417 321.51 254.823 322.281 255.219C323.073 255.594 324.042 256 325.188 256.438C326.604 256.958 328.031 257.583 329.469 258.312C330.927 259.021 332.146 259.979 333.125 261.188C334.125 262.375 334.625 263.958 334.625 265.938C334.625 267.875 334.094 269.573 333.031 271.031C331.99 272.49 330.51 273.625 328.594 274.438C326.698 275.229 324.469 275.625 321.906 275.625C317.635 275.625 313.646 274.521 309.938 272.312ZM367.938 275H360.125L359.656 271.281C358.51 272.656 357.094 273.729 355.406 274.5C353.719 275.25 351.865 275.625 349.844 275.625C347.656 275.625 345.708 275.208 344 274.375C342.292 273.521 340.948 272.354 339.969 270.875C338.99 269.375 338.5 267.677 338.5 265.781C338.5 263.781 339.031 262.021 340.094 260.5C341.156 258.979 342.615 257.792 344.469 256.938C346.344 256.062 348.469 255.625 350.844 255.625C352.24 255.625 353.635 255.781 355.031 256.094C356.448 256.406 357.76 256.844 358.969 257.406V256.594C358.969 255.344 358.615 254.271 357.906 253.375C357.219 252.458 356.26 251.75 355.031 251.25C353.823 250.75 352.469 250.5 350.969 250.5C349.531 250.5 348.104 250.729 346.688 251.188C345.292 251.646 344 252.333 342.812 253.25L340.375 246.406C342.479 245.323 344.604 244.51 346.75 243.969C348.917 243.406 351.01 243.125 353.031 243.125C356.073 243.125 358.708 243.729 360.938 244.938C363.167 246.125 364.885 247.812 366.094 250C367.323 252.167 367.938 254.74 367.938 257.719V275ZM351.812 268.719C353 268.719 354.135 268.458 355.219 267.938C356.302 267.417 357.177 266.708 357.844 265.812C358.531 264.917 358.896 263.927 358.938 262.844V262.625C358.021 262 357 261.521 355.875 261.188C354.771 260.833 353.646 260.656 352.5 260.656C350.792 260.656 349.396 261.031 348.312 261.781C347.229 262.531 346.688 263.5 346.688 264.688C346.688 265.458 346.906 266.156 347.344 266.781C347.802 267.385 348.417 267.865 349.188 268.219C349.958 268.552 350.833 268.719 351.812 268.719ZM383.906 275H374.938V243.75H382.75L383.062 249.156C384.104 247.26 385.521 245.781 387.312 244.719C389.104 243.656 391.156 243.125 393.469 243.125C394.135 243.125 394.802 243.177 395.469 243.281C396.156 243.365 396.854 243.5 397.562 243.688L396.438 251.75C395.062 251.354 393.76 251.156 392.531 251.156C390.802 251.156 389.281 251.552 387.969 252.344C386.677 253.115 385.677 254.198 384.969 255.594C384.26 256.969 383.906 258.583 383.906 260.438V275ZM101.062 354H91.4375V315.531H77.625V307.125H114.906V315.531H101.062V354ZM143.5 354H135.688L135.219 350.281C134.073 351.656 132.656 352.729 130.969 353.5C129.281 354.25 127.427 354.625 125.406 354.625C123.219 354.625 121.271 354.208 119.562 353.375C117.854 352.521 116.51 351.354 115.531 349.875C114.552 348.375 114.062 346.677 114.062 344.781C114.062 342.781 114.594 341.021 115.656 339.5C116.719 337.979 118.177 336.792 120.031 335.938C121.906 335.062 124.031 334.625 126.406 334.625C127.802 334.625 129.198 334.781 130.594 335.094C132.01 335.406 133.323 335.844 134.531 336.406V335.594C134.531 334.344 134.177 333.271 133.469 332.375C132.781 331.458 131.823 330.75 130.594 330.25C129.385 329.75 128.031 329.5 126.531 329.5C125.094 329.5 123.667 329.729 122.25 330.188C120.854 330.646 119.562 331.333 118.375 332.25L115.938 325.406C118.042 324.323 120.167 323.51 122.312 322.969C124.479 322.406 126.573 322.125 128.594 322.125C131.635 322.125 134.271 322.729 136.5 323.938C138.729 325.125 140.448 326.812 141.656 329C142.885 331.167 143.5 333.74 143.5 336.719V354ZM127.375 347.719C128.562 347.719 129.698 347.458 130.781 346.938C131.865 346.417 132.74 345.708 133.406 344.812C134.094 343.917 134.458 342.927 134.5 341.844V341.625C133.583 341 132.562 340.521 131.438 340.188C130.333 339.833 129.208 339.656 128.062 339.656C126.354 339.656 124.958 340.031 123.875 340.781C122.792 341.531 122.25 342.5 122.25 343.688C122.25 344.458 122.469 345.156 122.906 345.781C123.365 346.385 123.979 346.865 124.75 347.219C125.521 347.552 126.396 347.719 127.375 347.719ZM155.031 315.281C153.844 315.281 152.844 314.865 152.031 314.031C151.219 313.198 150.812 312.188 150.812 311C150.812 309.812 151.219 308.812 152.031 308C152.844 307.167 153.844 306.75 155.031 306.75C156.24 306.75 157.25 307.167 158.062 308C158.896 308.812 159.312 309.812 159.312 311C159.312 312.188 158.896 313.198 158.062 314.031C157.25 314.865 156.24 315.281 155.031 315.281ZM159.531 354H150.562V322.75H159.531V354ZM176.844 354H167.25V305.875H176.844V354ZM222.156 354H211.906L206.906 334.719L201.906 354H191.656L181.562 322.75H191.062L196.656 344.531L202.969 322.75H210.812L217.156 344.625L222.75 322.75H232.25L222.156 354ZM241.469 315.281C240.281 315.281 239.281 314.865 238.469 314.031C237.656 313.198 237.25 312.188 237.25 311C237.25 309.812 237.656 308.812 238.469 308C239.281 307.167 240.281 306.75 241.469 306.75C242.677 306.75 243.688 307.167 244.5 308C245.333 308.812 245.75 309.812 245.75 311C245.75 312.188 245.333 313.198 244.5 314.031C243.688 314.865 242.677 315.281 241.469 315.281ZM245.969 354H237V322.75H245.969V354ZM284.875 354H275.906V338C275.906 335.562 275.323 333.656 274.156 332.281C273.01 330.885 271.438 330.188 269.438 330.188C267.354 330.188 265.698 330.917 264.469 332.375C263.26 333.812 262.656 335.771 262.656 338.25V354H253.688V322.75H260.938L261.25 327.75C262.375 325.917 263.844 324.521 265.656 323.562C267.469 322.604 269.604 322.125 272.062 322.125C276.042 322.125 279.167 323.354 281.438 325.812C283.729 328.25 284.875 331.625 284.875 335.938V354ZM324.062 354H316.188L315.719 349.75C314.385 351.25 312.781 352.438 310.906 353.312C309.052 354.188 307.021 354.625 304.812 354.625C301.958 354.625 299.406 353.927 297.156 352.531C294.927 351.115 293.167 349.177 291.875 346.719C290.583 344.26 289.938 341.479 289.938 338.375C289.938 335.25 290.583 332.469 291.875 330.031C293.167 327.573 294.927 325.646 297.156 324.25C299.406 322.833 301.958 322.125 304.812 322.125C306.854 322.125 308.75 322.5 310.5 323.25C312.271 323.979 313.802 325 315.094 326.312V307.125H324.062V354ZM307.125 346.594C308.604 346.594 309.938 346.26 311.125 345.594C312.333 344.927 313.292 344.021 314 342.875C314.729 341.708 315.094 340.385 315.094 338.906V337.781C315.094 336.302 314.729 334.99 314 333.844C313.292 332.698 312.333 331.802 311.125 331.156C309.938 330.49 308.604 330.156 307.125 330.156C305.604 330.156 304.24 330.51 303.031 331.219C301.823 331.927 300.865 332.906 300.156 334.156C299.469 335.385 299.125 336.792 299.125 338.375C299.125 339.938 299.469 341.344 300.156 342.594C300.865 343.823 301.823 344.802 303.031 345.531C304.24 346.24 305.604 346.594 307.125 346.594ZM372.312 348.125C370.125 350.25 367.531 351.917 364.531 353.125C361.531 354.333 358.271 354.938 354.75 354.938C351.188 354.938 347.906 354.333 344.906 353.125C341.906 351.896 339.292 350.188 337.062 348C334.854 345.792 333.135 343.208 331.906 340.25C330.677 337.292 330.062 334.062 330.062 330.562C330.062 327.062 330.677 323.833 331.906 320.875C333.135 317.896 334.854 315.312 337.062 313.125C339.292 310.938 341.906 309.24 344.906 308.031C347.906 306.802 351.188 306.188 354.75 306.188C358.25 306.188 361.49 306.792 364.469 308C367.469 309.208 370.062 310.885 372.25 313.031L365.531 319.781C364.219 318.177 362.615 316.917 360.719 316C358.844 315.062 356.802 314.594 354.594 314.594C352.49 314.594 350.542 315 348.75 315.812C346.979 316.604 345.427 317.729 344.094 319.188C342.76 320.625 341.729 322.312 341 324.25C340.271 326.188 339.906 328.281 339.906 330.531C339.906 332.823 340.271 334.938 341 336.875C341.729 338.812 342.76 340.51 344.094 341.969C345.427 343.406 346.979 344.531 348.75 345.344C350.542 346.135 352.49 346.531 354.594 346.531C356.802 346.531 358.844 346.073 360.719 345.156C362.594 344.219 364.188 342.948 365.5 341.344L372.312 348.125ZM376.375 348.938L380.938 341.594C382.375 342.76 383.76 343.719 385.094 344.469C386.448 345.198 387.781 345.74 389.094 346.094C390.406 346.427 391.75 346.594 393.125 346.594C394.75 346.594 396.156 346.365 397.344 345.906C398.531 345.448 399.448 344.792 400.094 343.938C400.76 343.083 401.094 342.094 401.094 340.969C401.094 339.656 400.677 338.552 399.844 337.656C399.01 336.76 397.917 335.979 396.562 335.312C395.229 334.625 393.781 333.969 392.219 333.344C390.698 332.719 389.167 332.042 387.625 331.312C386.104 330.562 384.698 329.677 383.406 328.656C382.135 327.635 381.104 326.396 380.312 324.938C379.542 323.458 379.156 321.667 379.156 319.562C379.156 316.812 379.844 314.438 381.219 312.438C382.615 310.438 384.521 308.896 386.938 307.812C389.354 306.729 392.115 306.188 395.219 306.188C397.406 306.188 399.677 306.479 402.031 307.062C404.406 307.646 406.771 308.531 409.125 309.719L405.344 317.5C403.865 316.604 402.271 315.896 400.562 315.375C398.854 314.854 397.25 314.594 395.75 314.594C394.396 314.594 393.208 314.802 392.188 315.219C391.188 315.635 390.406 316.219 389.844 316.969C389.281 317.698 389 318.562 389 319.562C389 320.75 389.406 321.781 390.219 322.656C391.031 323.51 392.083 324.271 393.375 324.938C394.688 325.604 396.094 326.271 397.594 326.938C399.135 327.604 400.688 328.333 402.25 329.125C403.833 329.917 405.271 330.854 406.562 331.938C407.875 333 408.927 334.281 409.719 335.781C410.531 337.26 410.938 339.042 410.938 341.125C410.938 343.875 410.208 346.292 408.75 348.375C407.292 350.438 405.26 352.052 402.656 353.219C400.052 354.365 397.021 354.938 393.562 354.938C390.396 354.938 387.365 354.427 384.469 353.406C381.573 352.385 378.875 350.896 376.375 348.938ZM414.188 348.938L418.75 341.594C420.188 342.76 421.573 343.719 422.906 344.469C424.26 345.198 425.594 345.74 426.906 346.094C428.219 346.427 429.562 346.594 430.938 346.594C432.562 346.594 433.969 346.365 435.156 345.906C436.344 345.448 437.26 344.792 437.906 343.938C438.573 343.083 438.906 342.094 438.906 340.969C438.906 339.656 438.49 338.552 437.656 337.656C436.823 336.76 435.729 335.979 434.375 335.312C433.042 334.625 431.594 333.969 430.031 333.344C428.51 332.719 426.979 332.042 425.438 331.312C423.917 330.562 422.51 329.677 421.219 328.656C419.948 327.635 418.917 326.396 418.125 324.938C417.354 323.458 416.969 321.667 416.969 319.562C416.969 316.812 417.656 314.438 419.031 312.438C420.427 310.438 422.333 308.896 424.75 307.812C427.167 306.729 429.927 306.188 433.031 306.188C435.219 306.188 437.49 306.479 439.844 307.062C442.219 307.646 444.583 308.531 446.938 309.719L443.156 317.5C441.677 316.604 440.083 315.896 438.375 315.375C436.667 314.854 435.062 314.594 433.562 314.594C432.208 314.594 431.021 314.802 430 315.219C429 315.635 428.219 316.219 427.656 316.969C427.094 317.698 426.812 318.562 426.812 319.562C426.812 320.75 427.219 321.781 428.031 322.656C428.844 323.51 429.896 324.271 431.188 324.938C432.5 325.604 433.906 326.271 435.406 326.938C436.948 327.604 438.5 328.333 440.062 329.125C441.646 329.917 443.083 330.854 444.375 331.938C445.688 333 446.74 334.281 447.531 335.781C448.344 337.26 448.75 339.042 448.75 341.125C448.75 343.875 448.021 346.292 446.562 348.375C445.104 350.438 443.073 352.052 440.469 353.219C437.865 354.365 434.833 354.938 431.375 354.938C428.208 354.938 425.177 354.427 422.281 353.406C419.385 352.385 416.688 350.896 414.188 348.938ZM501 322.75L488.25 354H479.562L466.812 322.75H476.406L483.938 344.938L491.469 322.75H501ZM537.031 354H507.156V348.344C510.844 345.052 513.938 342.146 516.438 339.625C518.958 337.104 520.969 334.854 522.469 332.875C523.969 330.896 525.052 329.083 525.719 327.438C526.385 325.771 526.719 324.156 526.719 322.594C526.719 320.99 526.417 319.583 525.812 318.375C525.229 317.167 524.396 316.229 523.312 315.562C522.25 314.896 521.01 314.562 519.594 314.562C517.969 314.562 516.396 315.031 514.875 315.969C513.354 316.885 512.062 318.156 511 319.781L506.125 313.656C507.958 311.281 510.229 309.448 512.938 308.156C515.667 306.844 518.5 306.188 521.438 306.188C524.229 306.188 526.771 306.781 529.062 307.969C531.354 309.156 533.177 310.844 534.531 313.031C535.885 315.219 536.562 317.802 536.562 320.781C536.562 322.865 536.198 324.969 535.469 327.094C534.76 329.198 533.719 331.292 532.344 333.375C530.99 335.458 529.323 337.531 527.344 339.594C525.385 341.635 523.146 343.635 520.625 345.594H537.031V354ZM109.594 429.5C105.719 432.25 101.479 433.625 96.875 433.625C93.4583 433.625 90.3854 432.896 87.6562 431.438C84.9479 429.958 82.8021 427.958 81.2188 425.438C79.6562 422.917 78.875 420.073 78.875 416.906C78.875 413.885 79.5833 411.188 81 408.812C82.4375 406.438 84.3854 404.562 86.8438 403.188C89.3021 401.812 92.0938 401.125 95.2188 401.125C98.4479 401.125 101.292 401.885 103.75 403.406C106.208 404.906 108.125 407.01 109.5 409.719C110.875 412.406 111.562 415.521 111.562 419.062V420.062H88.5312C88.9062 421.292 89.5208 422.375 90.375 423.312C91.2292 424.229 92.2917 424.958 93.5625 425.5C94.8333 426.042 96.2917 426.312 97.9375 426.312C101.125 426.312 104.094 425.281 106.844 423.219L109.594 429.5ZM88.125 415.5H103.281C103.115 414.146 102.688 412.958 102 411.938C101.333 410.896 100.448 410.083 99.3438 409.5C98.2604 408.917 97.0417 408.625 95.6875 408.625C94.3125 408.625 93.0833 408.927 92 409.531C90.9375 410.135 90.0729 410.948 89.4062 411.969C88.7396 412.99 88.3125 414.167 88.125 415.5ZM148.438 433H139.469V417C139.469 414.562 138.885 412.656 137.719 411.281C136.573 409.885 135 409.188 133 409.188C130.917 409.188 129.26 409.917 128.031 411.375C126.823 412.812 126.219 414.771 126.219 417.25V433H117.25V401.75H124.5L124.812 406.75C125.938 404.917 127.406 403.521 129.219 402.562C131.031 401.604 133.167 401.125 135.625 401.125C139.604 401.125 142.729 402.354 145 404.812C147.292 407.25 148.438 410.625 148.438 414.938V433ZM200.562 433H169.938V386.125H179.562V424.594H200.562V433ZM233.562 433H225.75L225.281 429.281C224.135 430.656 222.719 431.729 221.031 432.5C219.344 433.25 217.49 433.625 215.469 433.625C213.281 433.625 211.333 433.208 209.625 432.375C207.917 431.521 206.573 430.354 205.594 428.875C204.615 427.375 204.125 425.677 204.125 423.781C204.125 421.781 204.656 420.021 205.719 418.5C206.781 416.979 208.24 415.792 210.094 414.938C211.969 414.062 214.094 413.625 216.469 413.625C217.865 413.625 219.26 413.781 220.656 414.094C222.073 414.406 223.385 414.844 224.594 415.406V414.594C224.594 413.344 224.24 412.271 223.531 411.375C222.844 410.458 221.885 409.75 220.656 409.25C219.448 408.75 218.094 408.5 216.594 408.5C215.156 408.5 213.729 408.729 212.312 409.188C210.917 409.646 209.625 410.333 208.438 411.25L206 404.406C208.104 403.323 210.229 402.51 212.375 401.969C214.542 401.406 216.635 401.125 218.656 401.125C221.698 401.125 224.333 401.729 226.562 402.938C228.792 404.125 230.51 405.812 231.719 408C232.948 410.167 233.562 412.74 233.562 415.719V433ZM217.438 426.719C218.625 426.719 219.76 426.458 220.844 425.938C221.927 425.417 222.802 424.708 223.469 423.812C224.156 422.917 224.521 421.927 224.562 420.844V420.625C223.646 420 222.625 419.521 221.5 419.188C220.396 418.833 219.271 418.656 218.125 418.656C216.417 418.656 215.021 419.031 213.938 419.781C212.854 420.531 212.312 421.5 212.312 422.688C212.312 423.458 212.531 424.156 212.969 424.781C213.427 425.385 214.042 425.865 214.812 426.219C215.583 426.552 216.458 426.719 217.438 426.719ZM249.531 433H240.562V401.75H248.375L248.688 407.156C249.729 405.26 251.146 403.781 252.938 402.719C254.729 401.656 256.781 401.125 259.094 401.125C259.76 401.125 260.427 401.177 261.094 401.281C261.781 401.365 262.479 401.5 263.188 401.688L262.062 409.75C260.688 409.354 259.385 409.156 258.156 409.156C256.427 409.156 254.906 409.552 253.594 410.344C252.302 411.115 251.302 412.198 250.594 413.594C249.885 414.969 249.531 416.583 249.531 418.438V433ZM294.25 433H286.438L285.969 429.281C284.823 430.656 283.406 431.729 281.719 432.5C280.031 433.25 278.177 433.625 276.156 433.625C273.969 433.625 272.021 433.208 270.312 432.375C268.604 431.521 267.26 430.354 266.281 428.875C265.302 427.375 264.812 425.677 264.812 423.781C264.812 421.781 265.344 420.021 266.406 418.5C267.469 416.979 268.927 415.792 270.781 414.938C272.656 414.062 274.781 413.625 277.156 413.625C278.552 413.625 279.948 413.781 281.344 414.094C282.76 414.406 284.073 414.844 285.281 415.406V414.594C285.281 413.344 284.927 412.271 284.219 411.375C283.531 410.458 282.573 409.75 281.344 409.25C280.135 408.75 278.781 408.5 277.281 408.5C275.844 408.5 274.417 408.729 273 409.188C271.604 409.646 270.312 410.333 269.125 411.25L266.688 404.406C268.792 403.323 270.917 402.51 273.062 401.969C275.229 401.406 277.323 401.125 279.344 401.125C282.385 401.125 285.021 401.729 287.25 402.938C289.479 404.125 291.198 405.812 292.406 408C293.635 410.167 294.25 412.74 294.25 415.719V433ZM278.125 426.719C279.312 426.719 280.448 426.458 281.531 425.938C282.615 425.417 283.49 424.708 284.156 423.812C284.844 422.917 285.208 421.927 285.25 420.844V420.625C284.333 420 283.312 419.521 282.188 419.188C281.083 418.833 279.958 418.656 278.812 418.656C277.104 418.656 275.708 419.031 274.625 419.781C273.542 420.531 273 421.5 273 422.688C273 423.458 273.219 424.156 273.656 424.781C274.115 425.385 274.729 425.865 275.5 426.219C276.271 426.552 277.146 426.719 278.125 426.719ZM332 401.75L319.25 433H310.562L297.812 401.75H307.406L314.938 423.938L322.469 401.75H332ZM364.969 429.5C361.094 432.25 356.854 433.625 352.25 433.625C348.833 433.625 345.76 432.896 343.031 431.438C340.323 429.958 338.177 427.958 336.594 425.438C335.031 422.917 334.25 420.073 334.25 416.906C334.25 413.885 334.958 411.188 336.375 408.812C337.812 406.438 339.76 404.562 342.219 403.188C344.677 401.812 347.469 401.125 350.594 401.125C353.823 401.125 356.667 401.885 359.125 403.406C361.583 404.906 363.5 407.01 364.875 409.719C366.25 412.406 366.938 415.521 366.938 419.062V420.062H343.906C344.281 421.292 344.896 422.375 345.75 423.312C346.604 424.229 347.667 424.958 348.938 425.5C350.208 426.042 351.667 426.312 353.312 426.312C356.5 426.312 359.469 425.281 362.219 423.219L364.969 429.5ZM343.5 415.5H358.656C358.49 414.146 358.062 412.958 357.375 411.938C356.708 410.896 355.823 410.083 354.719 409.5C353.635 408.917 352.417 408.625 351.062 408.625C349.688 408.625 348.458 408.927 347.375 409.531C346.312 410.135 345.448 410.948 344.781 411.969C344.115 412.99 343.688 414.167 343.5 415.5ZM382.219 433H372.625V384.875H382.219V433ZM419.062 433.938C415.792 433.938 412.938 433.385 410.5 432.281C408.062 431.177 406.167 429.625 404.812 427.625C403.479 425.604 402.812 423.25 402.812 420.562C402.812 417.583 403.646 415.021 405.312 412.875C407 410.708 409.292 409.146 412.188 408.188C409.771 407.271 407.875 405.875 406.5 404C405.146 402.104 404.469 399.865 404.469 397.281C404.469 394.823 405.062 392.698 406.25 390.906C407.458 389.094 409.156 387.688 411.344 386.688C413.531 385.688 416.104 385.188 419.062 385.188C422 385.188 424.562 385.688 426.75 386.688C428.938 387.688 430.625 389.094 431.812 390.906C433.021 392.698 433.625 394.823 433.625 397.281C433.625 399.865 432.938 402.104 431.562 404C430.188 405.875 428.302 407.271 425.906 408.188C428.823 409.146 431.115 410.698 432.781 412.844C434.469 414.99 435.312 417.562 435.312 420.562C435.312 423.229 434.635 425.573 433.281 427.594C431.927 429.594 430.031 431.156 427.594 432.281C425.156 433.385 422.312 433.938 419.062 433.938ZM419.062 404.125C420.604 404.125 421.854 403.594 422.812 402.531C423.771 401.448 424.25 400.042 424.25 398.312C424.25 396.583 423.771 395.177 422.812 394.094C421.854 393.01 420.604 392.469 419.062 392.469C417.521 392.469 416.26 393.01 415.281 394.094C414.323 395.177 413.844 396.583 413.844 398.312C413.844 400.042 414.323 401.448 415.281 402.531C416.26 403.594 417.521 404.125 419.062 404.125ZM419.062 426.281C420.375 426.281 421.531 425.99 422.531 425.406C423.531 424.802 424.312 423.958 424.875 422.875C425.438 421.792 425.719 420.552 425.719 419.156C425.719 417.719 425.438 416.469 424.875 415.406C424.312 414.323 423.531 413.49 422.531 412.906C421.531 412.302 420.375 412 419.062 412C417.729 412 416.562 412.302 415.562 412.906C414.583 413.49 413.812 414.323 413.25 415.406C412.688 416.469 412.406 417.719 412.406 419.156C412.406 420.552 412.688 421.792 413.25 422.875C413.812 423.958 414.583 424.802 415.562 425.406C416.562 425.99 417.729 426.281 419.062 426.281Z"
      fill="#F4F4F4"
    />
    <path
      d="M943.5 315C894.032 315 863.116 339.667 850.748 388.997C869.3 364.33 890.942 355.083 915.674 361.247C929.786 364.765 939.872 374.979 951.039 386.28C969.225 404.69 990.273 425.998 1036.25 425.998C1085.72 425.998 1116.64 401.331 1129 351.996C1110.45 376.663 1088.81 385.915 1064.07 379.75C1049.97 376.233 1039.88 366.019 1028.71 354.717C1010.53 336.307 989.475 315 943.5 315ZM850.748 425.998C801.284 425.998 770.364 450.665 758 499.999C776.548 475.332 798.19 466.081 822.926 472.25C837.034 475.772 847.12 485.981 858.286 497.278C876.472 515.688 897.525 537 943.5 537C992.968 537 1023.88 512.333 1036.25 462.998C1017.7 487.666 996.058 496.917 971.326 490.748C957.214 487.235 947.128 477.017 935.961 465.72C917.775 447.31 896.727 425.998 850.748 425.998Z"
      fill="#06B6D4"
    />
    <path
      d="M1059.78 36.7527C1059.92 37.2993 1060 37.8629 1060 38.4291V126.435C1060 127.564 1059.7 128.674 1059.14 129.651C1058.57 130.628 1057.76 131.439 1056.78 132.001L982.963 174.528V258.82C982.963 261.114 981.745 263.231 979.757 264.386L825.676 353.145C825.323 353.346 824.938 353.474 824.554 353.611C824.409 353.659 824.273 353.747 824.121 353.787C823.044 354.071 821.912 354.071 820.834 353.787C820.658 353.739 820.498 353.643 820.33 353.579C819.977 353.45 819.608 353.338 819.271 353.145L665.222 264.386C664.244 263.824 663.43 263.013 662.865 262.035C662.299 261.058 662.001 259.949 662 258.82V-5.1966C662 -5.77411 662.08 -6.33557 662.224 -6.881C662.273 -7.06548 662.385 -7.23391 662.449 -7.4184C662.569 -7.75527 662.681 -8.10017 662.858 -8.41299C662.978 -8.62153 663.154 -8.78997 663.299 -8.98247C663.483 -9.23914 663.651 -9.50383 663.868 -9.72842C664.052 -9.9129 664.292 -10.0493 664.501 -10.2097C664.733 -10.4022 664.942 -10.6107 665.206 -10.7631L742.243 -55.1428C743.218 -55.7044 744.324 -56 745.449 -56C746.574 -56 747.68 -55.7044 748.655 -55.1428L825.684 -10.7631H825.7C825.956 -10.6027 826.173 -10.4022 826.405 -10.2177C826.614 -10.0573 826.846 -9.9129 827.03 -9.73644C827.255 -9.50383 827.415 -9.23914 827.608 -8.98247C827.744 -8.78997 827.928 -8.62153 828.04 -8.41299C828.225 -8.09215 828.329 -7.75527 828.457 -7.4184C828.521 -7.23391 828.634 -7.06548 828.682 -6.87297C828.829 -6.32638 828.905 -5.7628 828.906 -5.1966V159.705L893.094 122.721V38.4211C893.094 37.8596 893.174 37.2901 893.318 36.7527C893.374 36.5602 893.479 36.3918 893.543 36.2073C893.671 35.8704 893.783 35.5255 893.96 35.2127C894.08 35.0042 894.256 34.8357 894.392 34.6432C894.585 34.3866 894.745 34.1219 894.97 33.8973C895.154 33.7128 895.386 33.5765 895.595 33.416C895.835 33.2235 896.044 33.015 896.3 32.8626L973.345 -11.5171C974.32 -12.0795 975.426 -12.3755 976.551 -12.3755C977.676 -12.3755 978.782 -12.0795 979.757 -11.5171L1056.79 32.8626C1057.06 33.023 1057.27 33.2235 1057.51 33.408C1057.71 33.5684 1057.94 33.7128 1058.12 33.8893C1058.35 34.1219 1058.51 34.3866 1058.7 34.6432C1058.85 34.8357 1059.02 35.0042 1059.13 35.2127C1059.32 35.5255 1059.42 35.8704 1059.55 36.2073C1059.62 36.3918 1059.73 36.5602 1059.78 36.7527ZM1047.16 122.721V49.5381L1020.2 65.0665L982.963 86.5225V159.705L1047.17 122.721H1047.16ZM970.131 255.106V181.875L933.5 202.81L828.898 262.549V336.47L970.131 255.106ZM674.841 5.91235V255.106L816.057 336.462V262.557L742.283 220.776L742.259 220.76L742.227 220.744C741.978 220.6 741.77 220.391 741.537 220.215C741.337 220.055 741.105 219.926 740.928 219.75L740.912 219.726C740.704 219.525 740.56 219.277 740.383 219.052C740.223 218.835 740.031 218.651 739.902 218.426L739.894 218.402C739.75 218.162 739.662 217.873 739.558 217.6C739.453 217.36 739.317 217.135 739.253 216.878C739.173 216.573 739.157 216.245 739.125 215.932C739.093 215.691 739.029 215.451 739.029 215.21V42.8968L701.797 21.4328L674.841 5.91235ZM745.457 -42.165L681.277 -5.1966L745.441 31.7718L809.613 -5.20462L745.441 -42.165H745.457ZM778.833 188.548L816.065 167.101V5.91235L789.109 21.4408L751.869 42.8968V204.085L778.833 188.548ZM976.551 1.46075L912.379 38.4291L976.551 75.3975L1040.71 38.4211L976.551 1.46075ZM970.131 86.5225L932.891 65.0665L905.935 49.5381V122.721L943.167 144.169L970.131 159.705V86.5225ZM822.47 251.44L916.595 197.668L963.646 170.798L899.522 133.854L825.692 176.389L758.402 215.154L822.47 251.44Z"
      fill="#FF2D20"
    />
  </g>
  <rect x="0.5" y="0.5" width="1199" height="629" stroke="#69A8D4" />
  <defs>
    <filter
      id="filter0_f_309_440"
      x="113.376"
      y="-364.078"
      width="1794.54"
      height="1794.54"
      filterUnits="userSpaceOnUse"
      color-interpolation-filters="sRGB"
    >
      <feFlood flood-opacity="0" result="BackgroundImageFix" />
      <feBlend
        mode="normal"
        in="SourceGraphic"
        in2="BackgroundImageFix"
        result="shape"
      />
      <feGaussianBlur
        stdDeviation="268.539"
        result="effect1_foregroundBlur_309_440"
      />
    </filter>
    <clipPath id="clip0_309_440">
      <rect width="1200" height="630" fill="white" />
    </clipPath>
  </defs>
</svg>
