<svg xmlns="http://www.w3.org/2000/svg" width="200" height="200" class="w-10 h-10" viewBox="0 0 40 45"><title>Adrián UB</title><path fill="#111827" d="M14.1169 3.30926C17.7698 1.25447 22.2302 1.25447 25.8831 3.30926L33.8831 7.80926C37.6617 9.93468 40 13.9329 40 18.2682V26.7318C40 31.0671 37.6617 35.0653 33.8831 37.1907L25.8831 41.6907C22.2302 43.7455 17.7698 43.7455 14.1169 41.6907L6.11686 37.1907C2.33834 35.0653 0 31.0671 0 26.7318V18.2682C0 13.9329 2.33834 9.93468 6.11687 7.80926L14.1169 3.30926Z"/><g clipPath="url(#clip0)"><path fill="#f9fafb" d="M12.11 31.86c-1.06,0 -2.09,-0.22 -3.07,-0.67 -0.99,-0.45 -1.8,-1.13 -2.43,-2.05 -0.63,-0.92 -0.94,-2.05 -0.94,-3.38l0 -8.86c0,-0.29 0.1,-0.53 0.29,-0.73 0.2,-0.21 0.44,-0.31 0.72,-0.31 0.29,0 0.53,0.1 0.73,0.31 0.2,0.2 0.3,0.44 0.3,0.73l0 8.93c0,0.89 0.21,1.66 0.62,2.29 0.41,0.62 0.95,1.1 1.63,1.41 0.67,0.31 1.39,0.47 2.15,0.47 0.76,0 1.48,-0.16 2.16,-0.47 0.67,-0.31 1.21,-0.79 1.62,-1.41 0.41,-0.63 0.62,-1.4 0.62,-2.29l0 -8.93c0,-0.29 0.1,-0.53 0.29,-0.73 0.2,-0.21 0.43,-0.31 0.72,-0.31 0.28,0 0.53,0.1 0.73,0.31 0.2,0.2 0.3,0.44 0.3,0.73l0 8.86c0,1.33 -0.31,2.46 -0.94,3.38 -0.63,0.92 -1.44,1.6 -2.43,2.05 -0.98,0.45 -2.01,0.67 -3.07,0.67z" clipRule="evenodd" fillRule="evenodd"/><path fill="#f9fafb" d="M23.8 31.64c-0.28,0 -0.52,-0.1 -0.72,-0.29 -0.19,-0.2 -0.29,-0.44 -0.29,-0.72l0 -13.62c0,-0.29 0.1,-0.53 0.29,-0.73 0.2,-0.2 0.44,-0.3 0.72,-0.3l5.3 0c1.6,0 2.84,0.36 3.71,1.1 0.88,0.73 1.31,1.72 1.31,2.96 0,0.86 -0.2,1.59 -0.61,2.16 -0.41,0.58 -0.94,1.01 -1.59,1.29 0.9,0.29 1.64,0.74 2.22,1.37 0.57,0.63 0.86,1.42 0.86,2.38 0,1.38 -0.46,2.45 -1.39,3.23 -0.93,0.78 -2.39,1.17 -4.38,1.17l-5.43 0zm4.76 -8.89c1.33,0 2.27,-0.22 2.8,-0.67 0.54,-0.45 0.81,-1.08 0.81,-1.89 0,-0.7 -0.29,-1.26 -0.86,-1.68 -0.58,-0.42 -1.37,-0.63 -2.37,-0.63l-4.11 0 0 4.87 3.73 0zm0.47 6.98c1.45,0 2.48,-0.22 3.09,-0.67 0.6,-0.45 0.9,-1.09 0.9,-1.91 0,-1.71 -1.32,-2.56 -3.97,-2.56l-4.22 0 0 5.14 4.2 0z" clipRule="evenodd" fillRule="evenodd"/></g><style>@media (prefers-color-scheme:dark){:root{filter:invert(100%)}}</style></svg>