<svg
  width="1200"
  height="630"
  viewBox="0 0 1200 630"
  fill="none"
  xmlns="http://www.w3.org/2000/svg"
>
  <g clip-path="url(#clip0_309_406)">
    <rect width="1200" height="630" fill="#142538" />
    <g filter="url(#filter0_f_309_406)">
      <circle
        cx="469.456"
        cy="469.456"
        r="469.456"
        transform="matrix(-0.997521 0.0703694 0.0703694 0.997521 1583.58 426)"
        fill="#69A8D4"
      />
    </g>
    <path
      d="M89.8438 259H79.75L98.4375 212.125H108.594L127.25 259H117.156L113.312 248.938H93.6875L89.8438 259ZM96.8438 240.5H110.188L103.5 223.125L96.8438 240.5ZM140.812 274.625H131.812V227.75H139.688L140.156 232C141.49 230.479 143.083 229.292 144.938 228.438C146.812 227.562 148.854 227.125 151.062 227.125C153.938 227.125 156.49 227.833 158.719 229.25C160.948 230.646 162.708 232.573 164 235.031C165.292 237.469 165.938 240.25 165.938 243.375C165.938 246.479 165.292 249.26 164 251.719C162.708 254.177 160.948 256.115 158.719 257.531C156.49 258.927 153.938 259.625 151.062 259.625C149.021 259.625 147.125 259.26 145.375 258.531C143.646 257.781 142.125 256.75 140.812 255.438V274.625ZM148.781 251.562C150.344 251.562 151.719 251.219 152.906 250.531C154.094 249.823 155.021 248.854 155.688 247.625C156.375 246.375 156.719 244.958 156.719 243.375C156.719 241.771 156.375 240.354 155.688 239.125C155.021 237.896 154.094 236.927 152.906 236.219C151.719 235.51 150.354 235.156 148.812 235.156C147.354 235.156 146.042 235.479 144.875 236.125C143.708 236.75 142.76 237.625 142.031 238.75C141.323 239.875 140.917 241.167 140.812 242.625V244.188C140.917 245.604 141.323 246.875 142.031 248C142.74 249.104 143.677 249.979 144.844 250.625C146.01 251.25 147.323 251.562 148.781 251.562ZM180.594 259H171.625V227.75H179.438L179.75 233.156C180.792 231.26 182.208 229.781 184 228.719C185.792 227.656 187.844 227.125 190.156 227.125C190.823 227.125 191.49 227.177 192.156 227.281C192.844 227.365 193.542 227.5 194.25 227.688L193.125 235.75C191.75 235.354 190.448 235.156 189.219 235.156C187.49 235.156 185.969 235.552 184.656 236.344C183.365 237.115 182.365 238.198 181.656 239.594C180.948 240.969 180.594 242.583 180.594 244.438V259ZM227.156 255.5C223.281 258.25 219.042 259.625 214.438 259.625C211.021 259.625 207.948 258.896 205.219 257.438C202.51 255.958 200.365 253.958 198.781 251.438C197.219 248.917 196.438 246.073 196.438 242.906C196.438 239.885 197.146 237.188 198.562 234.812C200 232.438 201.948 230.562 204.406 229.188C206.865 227.812 209.656 227.125 212.781 227.125C216.01 227.125 218.854 227.885 221.312 229.406C223.771 230.906 225.688 233.01 227.062 235.719C228.438 238.406 229.125 241.521 229.125 245.062V246.062H206.094C206.469 247.292 207.083 248.375 207.938 249.312C208.792 250.229 209.854 250.958 211.125 251.5C212.396 252.042 213.854 252.312 215.5 252.312C218.688 252.312 221.656 251.281 224.406 249.219L227.156 255.5ZM205.688 241.5H220.844C220.677 240.146 220.25 238.958 219.562 237.938C218.896 236.896 218.01 236.083 216.906 235.5C215.823 234.917 214.604 234.625 213.25 234.625C211.875 234.625 210.646 234.927 209.562 235.531C208.5 236.135 207.635 236.948 206.969 237.969C206.302 238.99 205.875 240.167 205.688 241.5ZM266 259H257.031V243C257.031 240.562 256.448 238.656 255.281 237.281C254.135 235.885 252.562 235.188 250.562 235.188C248.479 235.188 246.823 235.917 245.594 237.375C244.385 238.812 243.781 240.771 243.781 243.25V259H234.812V227.75H242.062L242.375 232.75C243.5 230.917 244.969 229.521 246.781 228.562C248.594 227.604 250.729 227.125 253.188 227.125C257.167 227.125 260.292 228.354 262.562 230.812C264.854 233.25 266 236.625 266 240.938V259ZM305.188 259H297.312L296.844 254.75C295.51 256.25 293.906 257.438 292.031 258.312C290.177 259.188 288.146 259.625 285.938 259.625C283.083 259.625 280.531 258.927 278.281 257.531C276.052 256.115 274.292 254.177 273 251.719C271.708 249.26 271.062 246.479 271.062 243.375C271.062 240.25 271.708 237.469 273 235.031C274.292 232.573 276.052 230.646 278.281 229.25C280.531 227.833 283.083 227.125 285.938 227.125C287.979 227.125 289.875 227.5 291.625 228.25C293.396 228.979 294.927 230 296.219 231.312V212.125H305.188V259ZM288.25 251.594C289.729 251.594 291.062 251.26 292.25 250.594C293.458 249.927 294.417 249.021 295.125 247.875C295.854 246.708 296.219 245.385 296.219 243.906V242.781C296.219 241.302 295.854 239.99 295.125 238.844C294.417 237.698 293.458 236.802 292.25 236.156C291.062 235.49 289.729 235.156 288.25 235.156C286.729 235.156 285.365 235.51 284.156 236.219C282.948 236.927 281.99 237.906 281.281 239.156C280.594 240.385 280.25 241.792 280.25 243.375C280.25 244.938 280.594 246.344 281.281 247.594C281.99 248.823 282.948 249.802 284.156 250.531C285.365 251.24 286.729 251.594 288.25 251.594ZM341.594 255.5C337.719 258.25 333.479 259.625 328.875 259.625C325.458 259.625 322.385 258.896 319.656 257.438C316.948 255.958 314.802 253.958 313.219 251.438C311.656 248.917 310.875 246.073 310.875 242.906C310.875 239.885 311.583 237.188 313 234.812C314.438 232.438 316.385 230.562 318.844 229.188C321.302 227.812 324.094 227.125 327.219 227.125C330.448 227.125 333.292 227.885 335.75 229.406C338.208 230.906 340.125 233.01 341.5 235.719C342.875 238.406 343.562 241.521 343.562 245.062V246.062H320.531C320.906 247.292 321.521 248.375 322.375 249.312C323.229 250.229 324.292 250.958 325.562 251.5C326.833 252.042 328.292 252.312 329.938 252.312C333.125 252.312 336.094 251.281 338.844 249.219L341.594 255.5ZM320.125 241.5H335.281C335.115 240.146 334.688 238.958 334 237.938C333.333 236.896 332.448 236.083 331.344 235.5C330.26 234.917 329.042 234.625 327.688 234.625C326.312 234.625 325.083 234.927 324 235.531C322.938 236.135 322.073 236.948 321.406 237.969C320.74 238.99 320.312 240.167 320.125 241.5ZM358.219 259H349.25V227.75H357.062L357.375 233.156C358.417 231.26 359.833 229.781 361.625 228.719C363.417 227.656 365.469 227.125 367.781 227.125C368.448 227.125 369.115 227.177 369.781 227.281C370.469 227.365 371.167 227.5 371.875 227.688L370.75 235.75C369.375 235.354 368.073 235.156 366.844 235.156C365.115 235.156 363.594 235.552 362.281 236.344C360.99 237.115 359.99 238.198 359.281 239.594C358.573 240.969 358.219 242.583 358.219 244.438V259ZM418.375 259H410.562L410.094 255.281C408.948 256.656 407.531 257.729 405.844 258.5C404.156 259.25 402.302 259.625 400.281 259.625C398.094 259.625 396.146 259.208 394.438 258.375C392.729 257.521 391.385 256.354 390.406 254.875C389.427 253.375 388.938 251.677 388.938 249.781C388.938 247.781 389.469 246.021 390.531 244.5C391.594 242.979 393.052 241.792 394.906 240.938C396.781 240.062 398.906 239.625 401.281 239.625C402.677 239.625 404.073 239.781 405.469 240.094C406.885 240.406 408.198 240.844 409.406 241.406V240.594C409.406 239.344 409.052 238.271 408.344 237.375C407.656 236.458 406.698 235.75 405.469 235.25C404.26 234.75 402.906 234.5 401.406 234.5C399.969 234.5 398.542 234.729 397.125 235.188C395.729 235.646 394.438 236.333 393.25 237.25L390.812 230.406C392.917 229.323 395.042 228.51 397.188 227.969C399.354 227.406 401.448 227.125 403.469 227.125C406.51 227.125 409.146 227.729 411.375 228.938C413.604 230.125 415.323 231.812 416.531 234C417.76 236.167 418.375 238.74 418.375 241.719V259ZM402.25 252.719C403.438 252.719 404.573 252.458 405.656 251.938C406.74 251.417 407.615 250.708 408.281 249.812C408.969 248.917 409.333 247.927 409.375 246.844V246.625C408.458 246 407.438 245.521 406.312 245.188C405.208 244.833 404.083 244.656 402.938 244.656C401.229 244.656 399.833 245.031 398.75 245.781C397.667 246.531 397.125 247.5 397.125 248.688C397.125 249.458 397.344 250.156 397.781 250.781C398.24 251.385 398.854 251.865 399.625 252.219C400.396 252.552 401.271 252.719 402.25 252.719ZM110.5 333.031C108.979 334.781 107.115 336.156 104.906 337.156C102.698 338.135 100.271 338.625 97.625 338.625C94.4167 338.625 91.5417 337.927 89 336.531C86.4792 335.115 84.4896 333.177 83.0312 330.719C81.5938 328.26 80.875 325.479 80.875 322.375C80.875 319.25 81.5938 316.469 83.0312 314.031C84.4896 311.573 86.4792 309.646 89 308.25C91.5417 306.833 94.4167 306.125 97.625 306.125C100.25 306.125 102.667 306.615 104.875 307.594C107.083 308.573 108.948 309.927 110.469 311.656L105.188 317.188C104.375 316.25 103.344 315.521 102.094 315C100.865 314.458 99.5729 314.188 98.2188 314.188C96.6562 314.188 95.2604 314.542 94.0312 315.25C92.8021 315.938 91.8333 316.896 91.125 318.125C90.4167 319.333 90.0625 320.729 90.0625 322.312C90.0625 323.917 90.4167 325.344 91.125 326.594C91.8333 327.844 92.8021 328.823 94.0312 329.531C95.2604 330.219 96.6562 330.562 98.2188 330.562C99.5729 330.562 100.875 330.302 102.125 329.781C103.375 329.24 104.396 328.5 105.188 327.562L110.5 333.031ZM130.844 338.625C127.635 338.625 124.76 337.927 122.219 336.531C119.677 335.115 117.677 333.188 116.219 330.75C114.781 328.292 114.062 325.5 114.062 322.375C114.062 319.271 114.781 316.5 116.219 314.062C117.677 311.604 119.677 309.667 122.219 308.25C124.76 306.833 127.635 306.125 130.844 306.125C134.052 306.125 136.906 306.833 139.406 308.25C141.927 309.667 143.906 311.604 145.344 314.062C146.802 316.5 147.531 319.271 147.531 322.375C147.531 325.5 146.802 328.292 145.344 330.75C143.906 333.188 141.927 335.115 139.406 336.531C136.906 337.927 134.052 338.625 130.844 338.625ZM130.812 330.594C132.25 330.594 133.531 330.24 134.656 329.531C135.802 328.802 136.698 327.823 137.344 326.594C138.01 325.344 138.344 323.917 138.344 322.312C138.344 320.771 138.01 319.385 137.344 318.156C136.698 316.927 135.802 315.958 134.656 315.25C133.531 314.521 132.25 314.156 130.812 314.156C129.354 314.156 128.052 314.521 126.906 315.25C125.781 315.958 124.885 316.927 124.219 318.156C123.573 319.385 123.25 320.771 123.25 322.312C123.25 323.917 123.573 325.344 124.219 326.594C124.885 327.823 125.781 328.802 126.906 329.531C128.052 330.24 129.354 330.594 130.812 330.594ZM204.094 338H195.125V322.312C195.125 319.708 194.615 317.698 193.594 316.281C192.573 314.865 191.125 314.156 189.25 314.156C187.333 314.156 185.833 314.875 184.75 316.312C183.688 317.75 183.156 319.75 183.156 322.312V338H174.188V322.312C174.188 319.708 173.677 317.698 172.656 316.281C171.635 314.865 170.177 314.156 168.281 314.156C166.385 314.156 164.896 314.875 163.812 316.312C162.75 317.75 162.219 319.75 162.219 322.312V338H153.25V306.75H160.406L160.719 311.906C161.76 310.01 163.156 308.573 164.906 307.594C166.677 306.615 168.729 306.125 171.062 306.125C173.5 306.125 175.604 306.635 177.375 307.656C179.146 308.677 180.51 310.146 181.469 312.062C182.531 310.125 183.938 308.656 185.688 307.656C187.458 306.635 189.552 306.125 191.969 306.125C195.781 306.125 198.75 307.344 200.875 309.781C203.021 312.198 204.094 315.583 204.094 319.938V338ZM225.969 338.625C222.76 338.625 219.885 337.927 217.344 336.531C214.802 335.115 212.802 333.188 211.344 330.75C209.906 328.292 209.188 325.5 209.188 322.375C209.188 319.271 209.906 316.5 211.344 314.062C212.802 311.604 214.802 309.667 217.344 308.25C219.885 306.833 222.76 306.125 225.969 306.125C229.177 306.125 232.031 306.833 234.531 308.25C237.052 309.667 239.031 311.604 240.469 314.062C241.927 316.5 242.656 319.271 242.656 322.375C242.656 325.5 241.927 328.292 240.469 330.75C239.031 333.188 237.052 335.115 234.531 336.531C232.031 337.927 229.177 338.625 225.969 338.625ZM225.938 330.594C227.375 330.594 228.656 330.24 229.781 329.531C230.927 328.802 231.823 327.823 232.469 326.594C233.135 325.344 233.469 323.917 233.469 322.312C233.469 320.771 233.135 319.385 232.469 318.156C231.823 316.927 230.927 315.958 229.781 315.25C228.656 314.521 227.375 314.156 225.938 314.156C224.479 314.156 223.177 314.521 222.031 315.25C220.906 315.958 220.01 316.927 219.344 318.156C218.698 319.385 218.375 320.771 218.375 322.312C218.375 323.917 218.698 325.344 219.344 326.594C220.01 327.823 220.906 328.802 222.031 329.531C223.177 330.24 224.479 330.594 225.938 330.594ZM295.062 338H287.188L286.719 333.75C285.385 335.25 283.781 336.438 281.906 337.312C280.052 338.188 278.021 338.625 275.812 338.625C272.958 338.625 270.406 337.927 268.156 336.531C265.927 335.115 264.167 333.177 262.875 330.719C261.583 328.26 260.938 325.479 260.938 322.375C260.938 319.25 261.583 316.469 262.875 314.031C264.167 311.573 265.927 309.646 268.156 308.25C270.406 306.833 272.958 306.125 275.812 306.125C277.854 306.125 279.75 306.5 281.5 307.25C283.271 307.979 284.802 309 286.094 310.312V291.125H295.062V338ZM278.125 330.594C279.604 330.594 280.938 330.26 282.125 329.594C283.333 328.927 284.292 328.021 285 326.875C285.729 325.708 286.094 324.385 286.094 322.906V321.781C286.094 320.302 285.729 318.99 285 317.844C284.292 316.698 283.333 315.802 282.125 315.156C280.938 314.49 279.604 314.156 278.125 314.156C276.604 314.156 275.24 314.51 274.031 315.219C272.823 315.927 271.865 316.906 271.156 318.156C270.469 319.385 270.125 320.792 270.125 322.375C270.125 323.938 270.469 325.344 271.156 326.594C271.865 327.823 272.823 328.802 274.031 329.531C275.24 330.24 276.604 330.594 278.125 330.594ZM331.469 334.5C327.594 337.25 323.354 338.625 318.75 338.625C315.333 338.625 312.26 337.896 309.531 336.438C306.823 334.958 304.677 332.958 303.094 330.438C301.531 327.917 300.75 325.073 300.75 321.906C300.75 318.885 301.458 316.188 302.875 313.812C304.312 311.438 306.26 309.562 308.719 308.188C311.177 306.812 313.969 306.125 317.094 306.125C320.323 306.125 323.167 306.885 325.625 308.406C328.083 309.906 330 312.01 331.375 314.719C332.75 317.406 333.438 320.521 333.438 324.062V325.062H310.406C310.781 326.292 311.396 327.375 312.25 328.312C313.104 329.229 314.167 329.958 315.438 330.5C316.708 331.042 318.167 331.312 319.812 331.312C323 331.312 325.969 330.281 328.719 328.219L331.469 334.5ZM310 320.5H325.156C324.99 319.146 324.562 317.958 323.875 316.938C323.208 315.896 322.323 315.083 321.219 314.5C320.135 313.917 318.917 313.625 317.562 313.625C316.188 313.625 314.958 313.927 313.875 314.531C312.812 315.135 311.948 315.948 311.281 316.969C310.615 317.99 310.188 319.167 310 320.5ZM336.938 335.312L338.906 327.688C339.531 328.375 340.365 329.01 341.406 329.594C342.469 330.177 343.604 330.646 344.812 331C346.042 331.333 347.198 331.5 348.281 331.5C349.573 331.5 350.583 331.26 351.312 330.781C352.042 330.281 352.406 329.615 352.406 328.781C352.406 328.094 352.156 327.521 351.656 327.062C351.177 326.583 350.521 326.167 349.688 325.812C348.875 325.438 347.969 325.073 346.969 324.719C345.615 324.198 344.219 323.594 342.781 322.906C341.365 322.219 340.167 321.281 339.188 320.094C338.208 318.906 337.719 317.333 337.719 315.375C337.719 313.5 338.208 311.875 339.188 310.5C340.167 309.104 341.552 308.031 343.344 307.281C345.135 306.51 347.219 306.125 349.594 306.125C353.448 306.125 357.292 307.094 361.125 309.031L358.594 316.125C357.927 315.604 357.094 315.125 356.094 314.688C355.094 314.229 354.062 313.865 353 313.594C351.958 313.323 351.021 313.188 350.188 313.188C349.167 313.188 348.365 313.396 347.781 313.812C347.219 314.229 346.938 314.802 346.938 315.531C346.938 316.073 347.135 316.562 347.531 317C347.927 317.417 348.51 317.823 349.281 318.219C350.073 318.594 351.042 319 352.188 319.438C353.604 319.958 355.031 320.583 356.469 321.312C357.927 322.021 359.146 322.979 360.125 324.188C361.125 325.375 361.625 326.958 361.625 328.938C361.625 330.875 361.094 332.573 360.031 334.031C358.99 335.49 357.51 336.625 355.594 337.438C353.698 338.229 351.469 338.625 348.906 338.625C344.635 338.625 340.646 337.521 336.938 335.312ZM376.062 353.625H367.062V306.75H374.938L375.406 311C376.74 309.479 378.333 308.292 380.188 307.438C382.062 306.562 384.104 306.125 386.312 306.125C389.188 306.125 391.74 306.833 393.969 308.25C396.198 309.646 397.958 311.573 399.25 314.031C400.542 316.469 401.188 319.25 401.188 322.375C401.188 325.479 400.542 328.26 399.25 330.719C397.958 333.177 396.198 335.115 393.969 336.531C391.74 337.927 389.188 338.625 386.312 338.625C384.271 338.625 382.375 338.26 380.625 337.531C378.896 336.781 377.375 335.75 376.062 334.438V353.625ZM384.031 330.562C385.594 330.562 386.969 330.219 388.156 329.531C389.344 328.823 390.271 327.854 390.938 326.625C391.625 325.375 391.969 323.958 391.969 322.375C391.969 320.771 391.625 319.354 390.938 318.125C390.271 316.896 389.344 315.927 388.156 315.219C386.969 314.51 385.604 314.156 384.062 314.156C382.604 314.156 381.292 314.479 380.125 315.125C378.958 315.75 378.01 316.625 377.281 317.75C376.573 318.875 376.167 320.167 376.062 321.625V323.188C376.167 324.604 376.573 325.875 377.281 327C377.99 328.104 378.927 328.979 380.094 329.625C381.26 330.25 382.573 330.562 384.031 330.562ZM416.469 338H406.875V289.875H416.469V338ZM452.906 334.5C449.031 337.25 444.792 338.625 440.188 338.625C436.771 338.625 433.698 337.896 430.969 336.438C428.26 334.958 426.115 332.958 424.531 330.438C422.969 327.917 422.188 325.073 422.188 321.906C422.188 318.885 422.896 316.188 424.312 313.812C425.75 311.438 427.698 309.562 430.156 308.188C432.615 306.812 435.406 306.125 438.531 306.125C441.76 306.125 444.604 306.885 447.062 308.406C449.521 309.906 451.438 312.01 452.812 314.719C454.188 317.406 454.875 320.521 454.875 324.062V325.062H431.844C432.219 326.292 432.833 327.375 433.688 328.312C434.542 329.229 435.604 329.958 436.875 330.5C438.146 331.042 439.604 331.312 441.25 331.312C444.438 331.312 447.406 330.281 450.156 328.219L452.906 334.5ZM431.438 320.5H446.594C446.427 319.146 446 317.958 445.312 316.938C444.646 315.896 443.76 315.083 442.656 314.5C441.573 313.917 440.354 313.625 439 313.625C437.625 313.625 436.396 313.927 435.312 314.531C434.25 315.135 433.385 315.948 432.719 316.969C432.052 317.99 431.625 319.167 431.438 320.5ZM473.344 338.375C470.531 338.375 468.01 337.677 465.781 336.281C463.552 334.865 461.802 332.948 460.531 330.531C459.26 328.094 458.625 325.333 458.625 322.25C458.625 319.146 459.26 316.385 460.531 313.969C461.802 311.552 463.552 309.646 465.781 308.25C468.01 306.833 470.542 306.125 473.375 306.125C475.583 306.125 477.604 306.562 479.438 307.438C481.292 308.292 482.885 309.479 484.219 311L484.625 306.75H492.5V337.125C492.5 340.583 491.74 343.594 490.219 346.156C488.719 348.74 486.594 350.729 483.844 352.125C481.094 353.542 477.875 354.25 474.188 354.25C469.062 354.25 464.417 352.646 460.25 349.438L463.875 342.125C466.646 344.854 469.875 346.219 473.562 346.219C475.542 346.219 477.271 345.823 478.75 345.031C480.25 344.24 481.417 343.135 482.25 341.719C483.104 340.302 483.531 338.656 483.531 336.781V334.219C482.24 335.51 480.729 336.531 479 337.281C477.271 338.01 475.385 338.375 473.344 338.375ZM475.656 330.375C477.115 330.375 478.438 330.062 479.625 329.438C480.812 328.792 481.76 327.906 482.469 326.781C483.177 325.635 483.531 324.344 483.531 322.906V321.562C483.531 320.125 483.167 318.844 482.438 317.719C481.729 316.594 480.781 315.719 479.594 315.094C478.427 314.448 477.115 314.125 475.656 314.125C474.156 314.125 472.812 314.479 471.625 315.188C470.438 315.896 469.5 316.865 468.812 318.094C468.125 319.302 467.781 320.688 467.781 322.25C467.781 323.812 468.125 325.208 468.812 326.438C469.5 327.667 470.438 328.635 471.625 329.344C472.812 330.031 474.156 330.375 475.656 330.375ZM527.688 338H519.875L519.406 334.281C518.26 335.656 516.844 336.729 515.156 337.5C513.469 338.25 511.615 338.625 509.594 338.625C507.406 338.625 505.458 338.208 503.75 337.375C502.042 336.521 500.698 335.354 499.719 333.875C498.74 332.375 498.25 330.677 498.25 328.781C498.25 326.781 498.781 325.021 499.844 323.5C500.906 321.979 502.365 320.792 504.219 319.938C506.094 319.062 508.219 318.625 510.594 318.625C511.99 318.625 513.385 318.781 514.781 319.094C516.198 319.406 517.51 319.844 518.719 320.406V319.594C518.719 318.344 518.365 317.271 517.656 316.375C516.969 315.458 516.01 314.75 514.781 314.25C513.573 313.75 512.219 313.5 510.719 313.5C509.281 313.5 507.854 313.729 506.438 314.188C505.042 314.646 503.75 315.333 502.562 316.25L500.125 309.406C502.229 308.323 504.354 307.51 506.5 306.969C508.667 306.406 510.76 306.125 512.781 306.125C515.823 306.125 518.458 306.729 520.688 307.938C522.917 309.125 524.635 310.812 525.844 313C527.073 315.167 527.688 317.74 527.688 320.719V338ZM511.562 331.719C512.75 331.719 513.885 331.458 514.969 330.938C516.052 330.417 516.927 329.708 517.594 328.812C518.281 327.917 518.646 326.927 518.688 325.844V325.625C517.771 325 516.75 324.521 515.625 324.188C514.521 323.833 513.396 323.656 512.25 323.656C510.542 323.656 509.146 324.031 508.062 324.781C506.979 325.531 506.438 326.5 506.438 327.688C506.438 328.458 506.656 329.156 507.094 329.781C507.552 330.385 508.167 330.865 508.938 331.219C509.708 331.552 510.583 331.719 511.562 331.719ZM543.656 338H534.688V306.75H542.5L542.812 312.156C543.854 310.26 545.271 308.781 547.062 307.719C548.854 306.656 550.906 306.125 553.219 306.125C553.885 306.125 554.552 306.177 555.219 306.281C555.906 306.365 556.604 306.5 557.312 306.688L556.188 314.75C554.812 314.354 553.51 314.156 552.281 314.156C550.552 314.156 549.031 314.552 547.719 315.344C546.427 316.115 545.427 317.198 544.719 318.594C544.01 319.969 543.656 321.583 543.656 323.438V338ZM125.406 417H114.344L92.4375 385V417H82.8125V370.125H93.875L115.781 402.188V370.125H125.406V417ZM161.844 413.5C157.969 416.25 153.729 417.625 149.125 417.625C145.708 417.625 142.635 416.896 139.906 415.438C137.198 413.958 135.052 411.958 133.469 409.438C131.906 406.917 131.125 404.073 131.125 400.906C131.125 397.885 131.833 395.188 133.25 392.812C134.688 390.438 136.635 388.562 139.094 387.188C141.552 385.812 144.344 385.125 147.469 385.125C150.698 385.125 153.542 385.885 156 387.406C158.458 388.906 160.375 391.01 161.75 393.719C163.125 396.406 163.812 399.521 163.812 403.062V404.062H140.781C141.156 405.292 141.771 406.375 142.625 407.312C143.479 408.229 144.542 408.958 145.812 409.5C147.083 410.042 148.542 410.312 150.188 410.312C153.375 410.312 156.344 409.281 159.094 407.219L161.844 413.5ZM140.375 399.5H155.531C155.365 398.146 154.938 396.958 154.25 395.938C153.583 394.896 152.698 394.083 151.594 393.5C150.51 392.917 149.292 392.625 147.938 392.625C146.562 392.625 145.333 392.927 144.25 393.531C143.188 394.135 142.323 394.948 141.656 395.969C140.99 396.99 140.562 398.167 140.375 399.5ZM167.312 414.312L169.281 406.688C169.906 407.375 170.74 408.01 171.781 408.594C172.844 409.177 173.979 409.646 175.188 410C176.417 410.333 177.573 410.5 178.656 410.5C179.948 410.5 180.958 410.26 181.688 409.781C182.417 409.281 182.781 408.615 182.781 407.781C182.781 407.094 182.531 406.521 182.031 406.062C181.552 405.583 180.896 405.167 180.062 404.812C179.25 404.438 178.344 404.073 177.344 403.719C175.99 403.198 174.594 402.594 173.156 401.906C171.74 401.219 170.542 400.281 169.562 399.094C168.583 397.906 168.094 396.333 168.094 394.375C168.094 392.5 168.583 390.875 169.562 389.5C170.542 388.104 171.927 387.031 173.719 386.281C175.51 385.51 177.594 385.125 179.969 385.125C183.823 385.125 187.667 386.094 191.5 388.031L188.969 395.125C188.302 394.604 187.469 394.125 186.469 393.688C185.469 393.229 184.438 392.865 183.375 392.594C182.333 392.323 181.396 392.188 180.562 392.188C179.542 392.188 178.74 392.396 178.156 392.812C177.594 393.229 177.312 393.802 177.312 394.531C177.312 395.073 177.51 395.562 177.906 396C178.302 396.417 178.885 396.823 179.656 397.219C180.448 397.594 181.417 398 182.562 398.438C183.979 398.958 185.406 399.583 186.844 400.312C188.302 401.021 189.521 401.979 190.5 403.188C191.5 404.375 192 405.958 192 407.938C192 409.875 191.469 411.573 190.406 413.031C189.365 414.49 187.885 415.625 185.969 416.438C184.073 417.229 181.844 417.625 179.281 417.625C175.01 417.625 171.021 416.521 167.312 414.312ZM218.969 416.188C216.573 417.146 214.25 417.625 212 417.625C209.667 417.625 207.604 417.135 205.812 416.156C204.042 415.156 202.656 413.771 201.656 412C200.656 410.208 200.156 408.146 200.156 405.812V393.75H194.688V385.75H200.625V377.938H209.125V385.75H217.781V393.75H209.125V404.188C209.125 405.896 209.594 407.229 210.531 408.188C211.469 409.125 212.635 409.594 214.031 409.594C215.302 409.594 216.542 409.198 217.75 408.406L218.969 416.188ZM213.719 428.25L213.25 419.844C216.896 419.844 219.604 418.979 221.375 417.25C223.146 415.521 224.031 412.917 224.031 409.438V370.125H233.656V409.312C233.656 413.812 232.979 417.448 231.625 420.219C230.292 423.01 228.156 425.042 225.219 426.312C222.302 427.604 218.469 428.25 213.719 428.25ZM239.125 411.938L243.688 404.594C245.125 405.76 246.51 406.719 247.844 407.469C249.198 408.198 250.531 408.74 251.844 409.094C253.156 409.427 254.5 409.594 255.875 409.594C257.5 409.594 258.906 409.365 260.094 408.906C261.281 408.448 262.198 407.792 262.844 406.938C263.51 406.083 263.844 405.094 263.844 403.969C263.844 402.656 263.427 401.552 262.594 400.656C261.76 399.76 260.667 398.979 259.312 398.312C257.979 397.625 256.531 396.969 254.969 396.344C253.448 395.719 251.917 395.042 250.375 394.312C248.854 393.562 247.448 392.677 246.156 391.656C244.885 390.635 243.854 389.396 243.062 387.938C242.292 386.458 241.906 384.667 241.906 382.562C241.906 379.812 242.594 377.438 243.969 375.438C245.365 373.438 247.271 371.896 249.688 370.812C252.104 369.729 254.865 369.188 257.969 369.188C260.156 369.188 262.427 369.479 264.781 370.062C267.156 370.646 269.521 371.531 271.875 372.719L268.094 380.5C266.615 379.604 265.021 378.896 263.312 378.375C261.604 377.854 260 377.594 258.5 377.594C257.146 377.594 255.958 377.802 254.938 378.219C253.938 378.635 253.156 379.219 252.594 379.969C252.031 380.698 251.75 381.562 251.75 382.562C251.75 383.75 252.156 384.781 252.969 385.656C253.781 386.51 254.833 387.271 256.125 387.938C257.438 388.604 258.844 389.271 260.344 389.938C261.885 390.604 263.438 391.333 265 392.125C266.583 392.917 268.021 393.854 269.312 394.938C270.625 396 271.677 397.281 272.469 398.781C273.281 400.26 273.688 402.042 273.688 404.125C273.688 406.875 272.958 409.292 271.5 411.375C270.042 413.438 268.01 415.052 265.406 416.219C262.802 417.365 259.771 417.938 256.312 417.938C253.146 417.938 250.115 417.427 247.219 416.406C244.323 415.385 241.625 413.896 239.125 411.938ZM323.031 413.5C319.156 416.25 314.917 417.625 310.312 417.625C306.896 417.625 303.823 416.896 301.094 415.438C298.385 413.958 296.24 411.958 294.656 409.438C293.094 406.917 292.312 404.073 292.312 400.906C292.312 397.885 293.021 395.188 294.438 392.812C295.875 390.438 297.823 388.562 300.281 387.188C302.74 385.812 305.531 385.125 308.656 385.125C311.885 385.125 314.729 385.885 317.188 387.406C319.646 388.906 321.562 391.01 322.938 393.719C324.312 396.406 325 399.521 325 403.062V404.062H301.969C302.344 405.292 302.958 406.375 303.812 407.312C304.667 408.229 305.729 408.958 307 409.5C308.271 410.042 309.729 410.312 311.375 410.312C314.562 410.312 317.531 409.281 320.281 407.219L323.031 413.5ZM301.562 399.5H316.719C316.552 398.146 316.125 396.958 315.438 395.938C314.771 394.896 313.885 394.083 312.781 393.5C311.698 392.917 310.479 392.625 309.125 392.625C307.75 392.625 306.521 392.927 305.438 393.531C304.375 394.135 303.51 394.948 302.844 395.969C302.177 396.99 301.75 398.167 301.562 399.5ZM361.875 417H352.906V401C352.906 398.562 352.323 396.656 351.156 395.281C350.01 393.885 348.438 393.188 346.438 393.188C344.354 393.188 342.698 393.917 341.469 395.375C340.26 396.812 339.656 398.771 339.656 401.25V417H330.688V385.75H337.938L338.25 390.75C339.375 388.917 340.844 387.521 342.656 386.562C344.469 385.604 346.604 385.125 349.062 385.125C353.042 385.125 356.167 386.354 358.438 388.812C360.729 391.25 361.875 394.625 361.875 398.938V417ZM383.375 417V370.125H398.719C404.385 370.125 409.292 371.083 413.438 373C417.583 374.917 420.792 377.625 423.062 381.125C425.333 384.625 426.469 388.771 426.469 393.562C426.469 398.333 425.333 402.479 423.062 406C420.792 409.5 417.583 412.208 413.438 414.125C409.292 416.042 404.385 417 398.719 417H383.375ZM393 408.594H399.062C402.812 408.594 405.99 408.01 408.594 406.844C411.219 405.656 413.208 403.948 414.562 401.719C415.938 399.469 416.625 396.75 416.625 393.562C416.625 390.354 415.938 387.635 414.562 385.406C413.208 383.177 411.219 381.479 408.594 380.312C405.99 379.125 402.812 378.531 399.062 378.531H393V408.594ZM461.281 413.5C457.406 416.25 453.167 417.625 448.562 417.625C445.146 417.625 442.073 416.896 439.344 415.438C436.635 413.958 434.49 411.958 432.906 409.438C431.344 406.917 430.562 404.073 430.562 400.906C430.562 397.885 431.271 395.188 432.688 392.812C434.125 390.438 436.073 388.562 438.531 387.188C440.99 385.812 443.781 385.125 446.906 385.125C450.135 385.125 452.979 385.885 455.438 387.406C457.896 388.906 459.812 391.01 461.188 393.719C462.562 396.406 463.25 399.521 463.25 403.062V404.062H440.219C440.594 405.292 441.208 406.375 442.062 407.312C442.917 408.229 443.979 408.958 445.25 409.5C446.521 410.042 447.979 410.312 449.625 410.312C452.812 410.312 455.781 409.281 458.531 407.219L461.281 413.5ZM439.812 399.5H454.969C454.802 398.146 454.375 396.958 453.688 395.938C453.021 394.896 452.135 394.083 451.031 393.5C449.948 392.917 448.729 392.625 447.375 392.625C446 392.625 444.771 392.927 443.688 393.531C442.625 394.135 441.76 394.948 441.094 395.969C440.427 396.99 440 398.167 439.812 399.5ZM489.844 416.188C487.448 417.146 485.125 417.625 482.875 417.625C480.542 417.625 478.479 417.135 476.688 416.156C474.917 415.156 473.531 413.771 472.531 412C471.531 410.208 471.031 408.146 471.031 405.812V393.75H465.562V385.75H471.5V377.938H480V385.75H488.656V393.75H480V404.188C480 405.896 480.469 407.229 481.406 408.188C482.344 409.125 483.51 409.594 484.906 409.594C486.177 409.594 487.417 409.198 488.625 408.406L489.844 416.188ZM522.312 417H514.5L514.031 413.281C512.885 414.656 511.469 415.729 509.781 416.5C508.094 417.25 506.24 417.625 504.219 417.625C502.031 417.625 500.083 417.208 498.375 416.375C496.667 415.521 495.323 414.354 494.344 412.875C493.365 411.375 492.875 409.677 492.875 407.781C492.875 405.781 493.406 404.021 494.469 402.5C495.531 400.979 496.99 399.792 498.844 398.938C500.719 398.062 502.844 397.625 505.219 397.625C506.615 397.625 508.01 397.781 509.406 398.094C510.823 398.406 512.135 398.844 513.344 399.406V398.594C513.344 397.344 512.99 396.271 512.281 395.375C511.594 394.458 510.635 393.75 509.406 393.25C508.198 392.75 506.844 392.5 505.344 392.5C503.906 392.5 502.479 392.729 501.062 393.188C499.667 393.646 498.375 394.333 497.188 395.25L494.75 388.406C496.854 387.323 498.979 386.51 501.125 385.969C503.292 385.406 505.385 385.125 507.406 385.125C510.448 385.125 513.083 385.729 515.312 386.938C517.542 388.125 519.26 389.812 520.469 392C521.698 394.167 522.312 396.74 522.312 399.719V417ZM506.188 410.719C507.375 410.719 508.51 410.458 509.594 409.938C510.677 409.417 511.552 408.708 512.219 407.812C512.906 406.917 513.271 405.927 513.312 404.844V404.625C512.396 404 511.375 403.521 510.25 403.188C509.146 402.833 508.021 402.656 506.875 402.656C505.167 402.656 503.771 403.031 502.688 403.781C501.604 404.531 501.062 405.5 501.062 406.688C501.062 407.458 501.281 408.156 501.719 408.781C502.177 409.385 502.792 409.865 503.562 410.219C504.333 410.552 505.208 410.719 506.188 410.719Z"
      fill="#F4F4F4"
    />
    <path
      fill-rule="evenodd"
      clip-rule="evenodd"
      d="M1001.57 145.252C998.778 145.252 996.183 145.851 993.787 146.649C998.878 150.038 1001.67 154.524 1003.07 159.607C1003.17 160.306 1003.37 160.804 1003.47 161.502C1003.57 162.1 1003.67 162.697 1003.67 163.296C1004.07 172.069 1001.37 173.164 999.476 178.349C996.581 185.029 997.38 192.206 1000.87 197.988C1001.17 198.685 1001.57 199.482 1002.07 200.18C998.279 174.96 1019.34 171.171 1023.23 163.296C1023.53 156.417 1017.84 151.832 1013.35 148.642C1009.06 146.05 1005.16 145.252 1001.57 145.252ZM1033.31 150.934C1032.91 153.228 1033.21 152.63 1033.11 153.825C1033.01 154.623 1033.01 155.619 1032.91 156.417C1032.71 157.214 1032.52 158.012 1032.22 158.81C1032.01 159.607 1031.72 160.405 1031.42 161.202C1031.02 162 1030.72 162.699 1030.32 163.495C1030.02 163.894 1029.82 164.292 1029.52 164.692L1028.92 165.588C1028.42 166.287 1027.92 166.984 1027.42 167.583C1026.82 168.181 1026.33 168.879 1025.63 169.377V169.477C1025.03 169.975 1024.43 170.572 1023.73 171.072C1021.64 172.666 1019.24 173.863 1017.04 175.358C1016.34 175.856 1015.65 176.256 1015.05 176.854C1014.35 177.353 1013.75 177.851 1013.15 178.448C1012.45 179.046 1011.95 179.645 1011.35 180.342C1010.86 180.941 1010.26 181.638 1009.86 182.337C1009.36 183.034 1008.86 183.732 1008.46 184.43C1008.06 185.228 1007.76 185.925 1007.36 186.723C1007.06 187.52 1006.76 188.219 1006.56 189.015C1006.3 189.837 1006.06 190.668 1005.86 191.508C1005.77 191.906 1005.77 192.405 1005.67 192.804C1005.56 193.202 1005.56 193.602 1005.47 194C1005.47 194.797 1005.37 195.695 1005.37 196.493C1005.37 197.09 1005.37 197.688 1005.47 198.287C1005.47 199.084 1005.57 199.882 1005.77 200.778C1005.87 201.576 1006.07 202.373 1006.26 203.171C1006.56 203.969 1006.76 204.766 1007.06 205.562C1007.26 206.062 1007.56 206.56 1007.76 206.96L984.805 198.086C980.913 196.991 977.119 195.993 973.227 195.097L966.939 193.6C960.932 192.404 954.869 191.506 948.774 190.91C948.573 190.91 948.473 190.809 948.273 190.809C942.285 190.211 936.395 189.913 930.407 189.913C926.015 189.913 921.624 190.112 917.331 190.411C911.243 190.809 905.154 191.607 899.066 192.604C897.568 192.804 896.07 193.102 894.575 193.401C891.479 194 888.486 194.697 885.591 195.396L881.099 196.591C879.601 197.19 878.205 197.887 876.807 198.486L873.514 199.982C873.313 200.081 873.114 200.081 873.015 200.18C872.017 200.678 871.118 201.078 870.219 201.576C869.921 201.676 869.72 201.776 869.521 201.875C868.424 202.373 867.326 202.97 866.427 203.47C865.729 203.769 865.029 204.168 864.431 204.467C864.132 204.667 863.732 204.866 863.532 204.965C862.633 205.463 861.736 205.962 860.937 206.461C860.038 206.958 859.24 207.458 858.542 207.956C857.844 208.455 857.144 208.853 856.546 209.351C856.446 209.451 856.345 209.451 856.246 209.551C855.647 209.949 854.949 210.448 854.35 210.946L854.149 211.147L852.654 212.342C852.453 212.441 852.252 212.641 852.054 212.74C851.555 213.14 851.056 213.638 850.556 214.036C850.457 214.237 850.258 214.335 850.158 214.436C849.558 215.034 848.96 215.531 848.361 216.129C848.261 216.129 848.261 216.23 848.16 216.33C847.563 216.828 846.963 217.425 846.364 218.024C846.265 218.124 846.265 218.224 846.165 218.224C845.641 218.732 845.142 219.264 844.668 219.818C844.467 220.019 844.169 220.218 843.97 220.417C843.471 221.015 842.872 221.612 842.272 222.211C842.172 222.411 841.973 222.51 841.874 222.709C841.075 223.507 840.375 224.304 839.577 225.102L839.279 225.401C837.682 227.095 835.984 228.79 834.188 230.285C832.418 231.862 830.551 233.327 828.598 234.671C826.662 236.027 824.664 237.291 822.609 238.46C820.572 239.576 818.473 240.575 816.321 241.451C814.198 242.352 812.033 243.15 809.834 243.842C805.642 244.74 801.349 246.434 797.656 246.733C796.857 246.733 795.96 246.934 795.161 247.033C794.262 247.233 793.464 247.432 792.665 247.631L790.271 248.529C789.471 248.827 788.672 249.226 787.874 249.624C787.176 250.123 786.377 250.522 785.679 251.02C784.979 251.519 784.281 252.116 783.682 252.716C782.984 253.214 782.285 253.911 781.686 254.51C781.087 255.207 780.489 255.806 779.989 256.503C779.49 257.301 778.892 257.999 778.492 258.795C777.993 259.494 777.494 260.292 777.095 261.089C776.694 261.986 776.297 262.783 775.997 263.681C775.682 264.54 775.382 265.404 775.098 266.273C774.899 267.07 774.7 267.868 774.599 268.664C774.599 268.766 774.499 268.865 774.499 268.965C774.3 269.861 774.3 271.058 774.199 271.655C774.1 272.354 774 272.951 774 273.65C774 274.048 774 274.546 774.1 274.946C774.201 275.643 774.301 276.242 774.5 276.84C774.7 277.437 774.899 278.036 775.199 278.634V278.733C775.498 279.332 775.897 279.93 776.295 280.529C776.697 281.126 777.095 281.724 777.593 282.323C778.093 282.821 778.693 283.418 779.292 283.918C779.89 284.515 780.489 285.013 781.187 285.513C783.583 287.607 784.182 288.304 787.276 289.899C787.775 290.198 788.274 290.397 788.873 290.697C788.974 290.697 789.072 290.795 789.173 290.795C789.173 290.996 789.173 291.095 789.272 291.295C789.372 292.093 789.571 292.89 789.772 293.686C789.962 294.507 790.229 295.308 790.569 296.079C790.869 296.678 791.07 297.276 791.368 297.875C791.468 298.074 791.569 298.273 791.667 298.373C792.067 299.171 792.466 299.868 792.866 300.565L794.363 302.659C794.862 303.257 795.459 303.954 796.06 304.553C796.658 305.152 797.257 305.648 797.956 306.248C797.956 306.248 798.056 306.347 798.156 306.347C798.754 306.845 799.353 307.345 799.953 307.743C800.651 308.242 801.349 308.641 802.148 309.039C802.847 309.439 803.646 309.837 804.444 310.134C805.042 310.435 805.742 310.634 806.44 310.833C806.541 310.934 806.639 310.934 806.839 311.034C807.24 311.133 807.738 311.233 808.136 311.332C807.838 316.716 807.738 321.799 808.538 323.593C809.434 325.587 813.826 319.506 818.218 312.529C817.619 319.406 817.22 327.482 818.218 329.873C819.316 332.366 825.305 324.591 830.494 316.017C901.263 299.669 965.842 348.516 972.629 417.499C971.331 406.733 958.055 400.752 951.967 402.246C948.973 409.624 943.882 419.094 935.697 424.976C936.412 418.319 936.075 411.591 934.699 405.039C932.504 414.21 928.212 422.783 922.322 430.16C912.841 430.857 903.359 426.272 898.368 419.392C897.968 419.094 897.869 418.497 897.57 418.096C897.27 417.399 896.97 416.701 896.771 416.004C896.48 415.336 896.278 414.632 896.172 413.911C896.071 413.212 896.071 412.515 896.071 411.717V410.221C896.172 409.523 896.371 408.826 896.57 408.129C896.771 407.43 896.97 406.733 897.27 406.035C897.668 405.336 897.968 404.639 898.467 403.942C900.165 399.156 900.165 395.269 897.071 392.977C896.471 392.585 895.836 392.251 895.174 391.978C894.774 391.88 894.275 391.681 893.876 391.58C893.577 391.48 893.378 391.38 893.078 391.281C892.378 391.081 891.68 390.882 890.982 390.783C890.301 390.586 889.595 390.485 888.886 390.484C888.186 390.383 887.387 390.283 886.689 390.283C886.19 390.283 885.691 390.385 885.191 390.385C884.394 390.385 883.696 390.484 882.998 390.683C882.298 390.783 881.6 390.883 880.9 391.082C880.202 391.283 879.502 391.482 878.804 391.779C878.106 392.079 877.507 392.378 876.808 392.677C876.209 392.977 875.61 393.375 874.912 393.674C851.656 408.826 865.53 444.315 881.399 454.584C875.411 455.679 869.322 456.975 867.626 458.271L867.425 458.471C871.719 461.063 876.209 463.256 880.9 465.151C887.289 467.243 894.076 469.137 897.071 469.935V470.035C905.34 471.729 913.797 472.332 922.223 471.829C966.44 468.739 1002.67 435.144 1009.26 390.883C1009.46 391.779 1009.66 392.577 1009.86 393.475C1010.16 395.269 1010.56 397.162 1010.76 399.058V399.156C1010.96 400.054 1011.06 400.952 1011.16 401.748V402.149C1011.26 403.044 1011.36 403.942 1011.36 404.741C1011.46 405.836 1011.55 406.932 1011.55 408.03V409.625C1011.55 410.123 1011.66 410.72 1011.66 411.219C1011.66 411.817 1011.55 412.416 1011.55 413.014V414.409C1011.55 415.108 1011.45 415.705 1011.45 416.404C1011.45 416.802 1011.45 417.201 1011.36 417.7C1011.36 418.397 1011.26 419.094 1011.26 419.892C1011.15 420.191 1011.15 420.49 1011.15 420.79C1011.06 421.587 1010.96 422.286 1010.86 423.082C1010.86 423.381 1010.86 423.681 1010.76 423.98C1010.66 424.976 1010.46 425.874 1010.36 426.871V427.07C1010.16 427.968 1009.96 428.964 1009.76 429.862V430.16L1009.16 432.852C1009.16 432.952 1009.06 433.151 1009.06 433.251C1008.86 434.148 1008.66 435.045 1008.36 435.942V436.241C1008.06 437.239 1007.76 438.135 1007.56 439.033C1007.46 439.132 1007.46 439.232 1007.46 439.232L1006.56 442.222C1006.16 443.22 1005.86 444.116 1005.47 445.113C1005.07 446.111 1004.77 447.108 1004.37 448.004C1003.97 449.002 1003.57 449.898 1003.17 450.895H1003.07C1002.67 451.793 1002.27 452.789 1001.77 453.687C1001.67 453.987 1001.57 454.186 1001.47 454.385C1001.37 454.485 1001.37 454.585 1001.27 454.684C994.785 467.743 985.204 479.206 973.225 488.179C972.427 488.677 971.628 489.274 970.831 489.874C970.63 490.073 970.33 490.172 970.131 490.372C969.433 490.871 968.733 491.369 967.936 491.867L968.234 492.466H968.335L972.527 491.867H972.627C975.222 491.468 977.817 490.969 980.412 490.471C981.11 490.371 981.911 490.172 982.609 489.973C983.108 489.872 983.506 489.774 984.005 489.673C984.705 489.575 985.403 489.374 986.101 489.275C986.7 489.075 987.3 488.976 987.899 488.777C997.88 486.384 1007.56 483.094 1016.85 479.206C1000.97 500.839 979.713 518.284 954.86 529.748C966.339 528.95 977.817 527.057 988.897 523.867C1029.12 512.004 1062.96 484.988 1083.22 448.603C1079.11 471.683 1069.94 493.571 1056.37 512.701C1066.04 506.328 1074.98 498.907 1083.02 490.571C1105.38 467.244 1120.05 437.637 1125.04 405.836C1128.45 421.613 1129.42 437.816 1127.94 453.886C1200 353.501 1133.92 249.427 1106.28 222.013C1106.18 221.813 1106.08 221.714 1106.08 221.515C1105.98 221.614 1105.98 221.614 1105.98 221.714C1105.98 221.614 1105.98 221.614 1105.88 221.513C1105.88 222.711 1105.78 223.906 1105.68 225.103C1105.38 227.396 1105.08 229.589 1104.68 231.783C1104.18 233.975 1103.58 236.169 1102.98 238.361C1102.27 240.52 1101.47 242.648 1100.59 244.742C1099.67 246.807 1098.67 248.836 1097.59 250.823C1096.5 252.716 1095.3 254.71 1094 256.505C1092.71 258.359 1091.35 260.155 1089.91 261.889C1088.41 263.683 1086.81 265.278 1085.22 266.871C1084.28 267.731 1083.31 268.562 1082.32 269.364C1081.52 270.062 1080.82 270.66 1080.02 271.358C1078.23 272.754 1076.43 274.05 1074.44 275.245C1072.54 276.442 1070.54 277.638 1068.55 278.636C1066.45 279.632 1064.35 280.529 1062.26 281.427C1060.16 282.224 1057.97 282.923 1055.77 283.52C1053.56 284.114 1051.33 284.613 1049.08 285.016C1046.79 285.414 1044.49 285.613 1042.3 285.812C1040.7 285.913 1039.1 286.013 1037.5 286.013C1035.21 286.013 1032.91 285.812 1030.72 285.612C1028.42 285.414 1026.13 285.115 1023.93 284.617C1021.64 284.216 1019.44 283.619 1017.24 282.921H1017.14C1019.34 282.721 1021.53 282.522 1023.73 282.124C1025.98 281.731 1028.21 281.232 1030.42 280.628C1032.61 280.035 1034.78 279.337 1036.91 278.536C1039.1 277.738 1041.2 276.742 1043.19 275.743C1045.29 274.747 1047.19 273.65 1049.18 272.454C1051.08 271.159 1052.98 269.863 1054.77 268.467C1056.56 267.078 1058.26 265.58 1059.86 263.98C1061.56 262.484 1063.06 260.79 1064.55 259.096C1066.01 257.351 1067.41 255.555 1068.75 253.712C1068.95 253.415 1069.15 253.015 1069.35 252.716C1070.34 251.121 1071.34 249.525 1072.24 247.93C1073.34 245.954 1074.34 243.925 1075.23 241.851C1076.14 239.764 1076.94 237.635 1077.63 235.47C1078.33 233.377 1078.83 231.183 1079.33 228.991C1079.73 226.698 1080.13 224.505 1080.32 222.311C1080.53 220.019 1080.72 217.726 1080.72 215.532C1080.72 213.937 1080.62 212.342 1080.52 210.747C1080.33 208.455 1080.03 206.262 1079.73 204.067C1079.33 201.819 1078.83 199.59 1078.23 197.389C1077.53 195.296 1076.83 193.103 1076.03 191.01C1075.23 188.917 1074.24 186.823 1073.24 184.828C1072.14 182.835 1071.04 180.842 1069.84 178.948C1068.57 177.08 1067.24 175.251 1065.85 173.465C1064.35 171.745 1062.82 170.05 1061.26 168.38C1060.42 167.525 1059.55 166.694 1058.67 165.889C1054.19 162.421 1049.56 159.161 1044.79 156.119C1044.09 155.72 1043.49 155.422 1042.79 155.123C1039.5 153.029 1036.41 151.931 1033.31 150.934Z"
      fill="#E0234E"
    />
    <g clip-path="url(#clip1_309_406)">
      <path
        d="M719 325C779.199 325 828 373.801 828 434C828 494.199 779.199 543 719 543C658.801 543 610 494.199 610 434C610 373.801 658.801 325 719 325Z"
        fill="#F73B95"
      />
      <path
        d="M719.262 346.289C767.994 346.289 807.499 385.794 807.499 434.528C807.499 483.26 767.994 522.765 719.262 522.765C670.529 522.765 631.021 483.26 631.021 434.528C631.021 385.794 670.528 346.289 719.262 346.289Z"
        fill="#BD399C"
      />
      <path
        d="M719.26 369.646C755.093 369.646 784.142 398.693 784.142 434.528C784.142 470.361 755.093 499.408 719.26 499.408C683.427 499.408 654.38 470.361 654.38 434.528C654.38 398.693 683.427 369.646 719.26 369.646Z"
        fill="#93388E"
      />
      <path
        d="M718.738 389.354C743.105 389.354 762.857 409.106 762.857 433.472C762.857 457.838 743.105 477.592 718.738 477.592C694.374 477.592 674.621 457.838 674.621 433.471C674.621 409.104 694.374 389.354 718.738 389.354Z"
        fill="#6030A2"
      />
    </g>
  </g>
  <rect x="0.5" y="0.5" width="1199" height="629" stroke="#69A8D4" />
  <defs>
    <filter
      id="filter0_f_309_406"
      x="-21.1481"
      y="-242.148"
      width="2338.95"
      height="2338.95"
      filterUnits="userSpaceOnUse"
      color-interpolation-filters="sRGB"
    >
      <feFlood flood-opacity="0" result="BackgroundImageFix" />
      <feBlend
        mode="normal"
        in="SourceGraphic"
        in2="BackgroundImageFix"
        result="shape"
      />
      <feGaussianBlur
        stdDeviation="350"
        result="effect1_foregroundBlur_309_406"
      />
    </filter>
    <clipPath id="clip0_309_406">
      <rect width="1200" height="630" fill="white" />
    </clipPath>
    <clipPath id="clip1_309_406">
      <rect
        width="218"
        height="218"
        fill="white"
        transform="translate(610 325)"
      />
    </clipPath>
  </defs>
</svg>
