<svg id="visual" viewBox="0 0 1200 675" width="1200" height="675" xmlns="http://www.w3.org/2000/svg"
    xmlns:xlink="http://www.w3.org/1999/xlink" version="1.1">

    <rect x="0" y="0" width="1200" height="675" fill="#0c0a09"></rect>
    <path
        d="M0 442L28.5 434.8C57 427.7 114 413.3 171.2 418.5C228.3 423.7 285.7 448.3 342.8 457.5C400 466.7 457 460.3 514.2 455.7C571.3 451 628.7 448 685.8 448.3C743 448.7 800 452.3 857.2 459.8C914.3 467.3 971.7 478.7 1028.8 482.5C1086 486.3 1143 482.7 1171.5 480.8L1200 479L1200 676L1171.5 676C1143 676 1086 676 1028.8 676C971.7 676 914.3 676 857.2 676C800 676 743 676 685.8 676C628.7 676 571.3 676 514.2 676C457 676 400 676 342.8 676C285.7 676 228.3 676 171.2 676C114 676 57 676 28.5 676L0 676Z"
        fill="#0a0a0a"></path>
    <path
        d="M0 533L28.5 523.8C57 514.7 114 496.3 171.2 490.5C228.3 484.7 285.7 491.3 342.8 492.5C400 493.7 457 489.3 514.2 489.5C571.3 489.7 628.7 494.3 685.8 493.2C743 492 800 485 857.2 481.3C914.3 477.7 971.7 477.3 1028.8 475.3C1086 473.3 1143 469.7 1171.5 467.8L1200 466L1200 676L1171.5 676C1143 676 1086 676 1028.8 676C971.7 676 914.3 676 857.2 676C800 676 743 676 685.8 676C628.7 676 571.3 676 514.2 676C457 676 400 676 342.8 676C285.7 676 228.3 676 171.2 676C114 676 57 676 28.5 676L0 676Z"
        fill="#0e0e0e"></path>
    <path
        d="M0 506L28.5 508.7C57 511.3 114 516.7 171.2 520.5C228.3 524.3 285.7 526.7 342.8 527.3C400 528 457 527 514.2 524.2C571.3 521.3 628.7 516.7 685.8 520.8C743 525 800 538 857.2 548.5C914.3 559 971.7 567 1028.8 568C1086 569 1143 563 1171.5 560L1200 557L1200 676L1171.5 676C1143 676 1086 676 1028.8 676C971.7 676 914.3 676 857.2 676C800 676 743 676 685.8 676C628.7 676 571.3 676 514.2 676C457 676 400 676 342.8 676C285.7 676 228.3 676 171.2 676C114 676 57 676 28.5 676L0 676Z"
        fill="#111111"></path>
    <path
        d="M0 596L28.5 592.7C57 589.3 114 582.7 171.2 575.2C228.3 567.7 285.7 559.3 342.8 556.7C400 554 457 557 514.2 564.8C571.3 572.7 628.7 585.3 685.8 584.3C743 583.3 800 568.7 857.2 566.5C914.3 564.3 971.7 574.7 1028.8 580.2C1086 585.7 1143 586.3 1171.5 586.7L1200 587L1200 676L1171.5 676C1143 676 1086 676 1028.8 676C971.7 676 914.3 676 857.2 676C800 676 743 676 685.8 676C628.7 676 571.3 676 514.2 676C457 676 400 676 342.8 676C285.7 676 228.3 676 171.2 676C114 676 57 676 28.5 676L0 676Z"
        fill="#141414"></path>
    <path
        d="M0 631L28.5 630.2C57 629.3 114 627.7 171.2 629.7C228.3 631.7 285.7 637.3 342.8 638.3C400 639.3 457 635.7 514.2 627.5C571.3 619.3 628.7 606.7 685.8 602.3C743 598 800 602 857.2 602.5C914.3 603 971.7 600 1028.8 599C1086 598 1143 599 1171.5 599.5L1200 600L1200 676L1171.5 676C1143 676 1086 676 1028.8 676C971.7 676 914.3 676 857.2 676C800 676 743 676 685.8 676C628.7 676 571.3 676 514.2 676C457 676 400 676 342.8 676C285.7 676 228.3 676 171.2 676C114 676 57 676 28.5 676L0 676Z"
        fill="#171717"></path>

    <text fill="#71717a" font-family="Inter" font-size="30">
        <tspan x="274" y="330">Adrián UB</tspan>
    </text>

    <text fill="#d4d4d8" xml:space="preserve" style="white-space:pre" font-family="Inter" font-size="50"
        letter-spacing="0em">
        <tspan x="274" y="382.898">{{line1}}</tspan>
        <tspan x="274" y="465">{{line2}}</tspan>
        <tspan x="274" y="547.102">{{line3}}</tspan>
    </text>
</svg>
