<svg xmlns="http://www.w3.org/2000/svg" viewBox="0 0 124.5 79.414">
  <g fill-rule="evenodd" stroke="#000" stroke-linecap="round" stroke-width=".25mm" font-size="12">
    <path
      d="M1 23.313H.9q-.866 0-.898-.556A.758.758 0 0 1 0 22.713a.919.919 0 0 1 .477-.833q.182-.11.433-.183a3.112 3.112 0 0 1 .39-.084 7.264 7.264 0 0 0 1.258-.273q1.244-.378 2.792-1.222a23.933 23.933 0 0 0 .1-.055q2.45-1.35 5.15-3.35t5.15-4.15a91.453 91.453 0 0 0 2.01-1.814q.905-.842 1.684-1.622a51.967 51.967 0 0 0 .506-.514q1.347-1.384 1.953-2.296a4.785 4.785 0 0 0 .297-.504.802.802 0 0 1 .208-.284q.359-.333 1.242-.616a8.335 8.335 0 0 1 1.752-.366 7.36 7.36 0 0 1 .698-.034 6.792 6.792 0 0 1 .875.054q.563.073 1.025.246a1.534 1.534 0 0 1 .273.132q.489.304.327.868-.571.899-1.977 3.232a694.683 694.683 0 0 0-.673 1.118 228.065 228.065 0 0 0-1.546 2.621q-.68 1.168-1.418 2.463a425.314 425.314 0 0 0-1.536 2.716 191.211 191.211 0 0 0-3.506 6.564 223.518 223.518 0 0 0-1.594 3.186q-2.55 5.2-4.5 10.25a68.295 68.295 0 0 0-1.486 4.237Q9.55 44.807 9.1 47.113a40.419 40.419 0 0 0-.211 1.567 33.2 33.2 0 0 0-.089.883q-.1 1.15-.1 2.25 0 4 1.4 5.65a4.746 4.746 0 0 0 1.44 1.171 4.424 4.424 0 0 0 2.06.479 11.06 11.06 0 0 0 2.559-.318q1.138-.271 2.364-.772a20.76 20.76 0 0 0 .827-.36 35.282 35.282 0 0 0 3.927-2.132 43.981 43.981 0 0 0 2.473-1.668q3.25-2.35 6.35-5.05 3.1-2.7 5.6-5.2 1-6.5 2.45-12.7a169.316 169.316 0 0 1 1.695-6.658 134.197 134.197 0 0 1 1.405-4.742q1.109-3.493 2.195-6.084a38.303 38.303 0 0 1 1.055-2.316q2.208-4.783 5.177-7.747a18.851 18.851 0 0 1 .523-.503A10.45 10.45 0 0 1 59.539.001a12.92 12.92 0 0 1 .561.012q2.014.178 3.29.882a4.211 4.211 0 0 1 1.41 1.218 6.881 6.881 0 0 1 1.289 3.751 8.56 8.56 0 0 1 .011.449q0 1.8-.6 3.8a34.215 34.215 0 0 1-2.33 5.797 41.95 41.95 0 0 1-1.72 3.053q-2.75 4.45-6.15 8.75-3.4 4.3-6.8 8.3-3.4 4-6.1 7.5a97.25 97.25 0 0 0-.457 2.696q-.222 1.419-.433 3a161.711 161.711 0 0 0-.06.454q-.45 3.45-.7 6.75a102.909 102.909 0 0 0-.152 2.349q-.061 1.157-.084 2.177a52.415 52.415 0 0 0-.014 1.174 45.007 45.007 0 0 0 .233 4.758q.512 4.795 2.148 7.68a10.155 10.155 0 0 0 .919 1.362 4.702 4.702 0 0 0 .852.839 3.185 3.185 0 0 0 1.948.661 2.649 2.649 0 0 0 1.812-.711 3.705 3.705 0 0 0 .288-.289q.375-.75 1.102-1.5a8.842 8.842 0 0 1 .098-.1 3.995 3.995 0 0 1 .271-.248q.278-.231.505-.31a.683.683 0 0 1 .224-.042.508.508 0 0 1 .248.056q.376.206.169 1.17a4.97 4.97 0 0 1-.017.074q-.1.4-.45.95-.35.55-.85 1.05a2.912 2.912 0 0 1-.679.619q-.696.469-1.821.781a14.146 14.146 0 0 1-1.935.401 11.205 11.205 0 0 1-1.465.099 7.3 7.3 0 0 1-2.308-.346 5.765 5.765 0 0 1-3.092-2.454 14.793 14.793 0 0 1-1.573-3.341q-.511-1.534-.79-3.319a24.671 24.671 0 0 1-.037-.24q-.2-1.5-.35-3.15-.15-1.65-.15-3.45a70.319 70.319 0 0 1 .141-4.35 88.108 88.108 0 0 1 .259-3.2 132.241 132.241 0 0 1 .93-7.278 146.443 146.443 0 0 1 .17-1.072 109.843 109.843 0 0 1-7.113 6.333 122.283 122.283 0 0 1-1.137.917q-4.45 3.55-9.2 5.85a23.032 23.032 0 0 1-5.952 1.976 20.201 20.201 0 0 1-3.598.324q-2.5 0-4.45-1.5a5.513 5.513 0 0 1-1.548-1.922q-.413-.815-.666-1.849a12.655 12.655 0 0 1-.236-1.229q-.1-.7-.15-1.35a17.363 17.363 0 0 1-.049-1.165 19.322 19.322 0 0 1-.001-.185 28.76 28.76 0 0 1 .646-5.947 35.482 35.482 0 0 1 .854-3.253 77.857 77.857 0 0 1 3.2-8.438 85.627 85.627 0 0 1 .55-1.212q2.25-4.85 4.6-9.55 2.35-4.7 3.95-8.7a1.522 1.522 0 0 0 .11-.191q.05-.106.073-.205a.699.699 0 0 0 .017-.154v-.35q0-.381-.273-.399a.421.421 0 0 0-.027-.001 1.008 1.008 0 0 0-.336.072q-.522.191-1.436.891a19.006 19.006 0 0 0-.428.337q-3.4 2.8-7 4.8t-6.7 2.2Zm50.133 5.753a95.517 95.517 0 0 0 .117-.153q3.75-4.9 6.8-10.3a53.486 53.486 0 0 0 2.475-4.93q1.185-2.72 1.875-5.27a14.52 14.52 0 0 0 .244-1.171 12.77 12.77 0 0 0 .056-.379q.1-.75.1-1.35a6.99 6.99 0 0 0-.063-.985q-.164-1.147-.754-1.607A1.55 1.55 0 0 0 61 2.613a2.617 2.617 0 0 0-1.005.225q-.859.359-1.892 1.292a15.373 15.373 0 0 0-.803.783q-5.5 6.1-8.45 14.35a124.363 124.363 0 0 0-3.316 10.879 149.575 149.575 0 0 0-1.634 7.071q3.544-3.346 7.233-8.147Z"
      vector-effect="non-scaling-stroke" />
    <path
      d="M74.8 57.713v-.6q-.55.757-1.218 1.702a241.118 241.118 0 0 0-.632.898 17.174 17.174 0 0 1-1.178 1.506 13.459 13.459 0 0 1-1.022 1.044q-.926.846-1.884 1.011a2.744 2.744 0 0 1-.466.039.978.978 0 0 1-.101-.007q-.277-.03-1.049-.193a14.483 14.483 0 0 1-1.477-.391 12.985 12.985 0 0 1-.323-.109 3.665 3.665 0 0 1-.336-.136q-.332-.156-.489-.335a.553.553 0 0 1-.125-.229 4.789 4.789 0 0 1-.052-.534q-.081-1.838 1.002-4.916 1.25-3.55 3.3-7.85t4.3-8.6q2.25-4.3 4.15-7.75 1.455-2.641 2.265-4.315a32.144 32.144 0 0 0 .435-.935 14.108 14.108 0 0 0 .336-.653q.316-.659.455-1.163a4.141 4.141 0 0 0 .009-.034 9.379 9.379 0 0 0 .097-.394q.079-.358.098-.611a1.983 1.983 0 0 0 .005-.145q0-.6-.2-1a4.627 4.627 0 0 1 .212-.783q.279-.785.873-1.81a21.039 21.039 0 0 1 .365-.607 23.088 23.088 0 0 1 1.714-2.375 29.266 29.266 0 0 1 1.436-1.625 20.58 20.58 0 0 1 3.488-2.957 18.885 18.885 0 0 1 .612-.393 10.987 10.987 0 0 1 1.543-.796q1.34-.554 2.557-.554a3.125 3.125 0 0 1 .377.027q.409.05.997.197a17.524 17.524 0 0 1 .476.126q1.25.35 2.4 1.05a3.117 3.117 0 0 1 1.086 1.076 3.216 3.216 0 0 1 .364.924 1.89 1.89 0 0 1 .1.591 1.801 1.801 0 0 1 0 .009.666.666 0 0 1-.007.106q-.03.186-.178.194a.253.253 0 0 1-.015 0 .749.749 0 0 1-.135-.014q-.133-.024-.31-.093a3.256 3.256 0 0 1-.105-.043q-.288-.123-.475-.145a.649.649 0 0 0-.075-.005q-1.718 0-3.659 1.228a13.858 13.858 0 0 0-1.341.972q-2.7 2.2-5.55 5.9a89.182 89.182 0 0 0-4.105 5.812 103.671 103.671 0 0 0-1.445 2.288q-2.7 4.4-5.15 8.85-2.45 4.45-4.25 8.2-1.378 2.872-2.287 4.893a100.952 100.952 0 0 0-.513 1.157q-.8 2.2-.8 3.1a2.614 2.614 0 0 0 .046.511q.16.802.89.881a1.541 1.541 0 0 0 .164.008 2.484 2.484 0 0 0 1.102-.278q.786-.388 1.63-1.314a10.623 10.623 0 0 0 .268-.308q1.1-1.3 2.05-2.45a5.292 5.292 0 0 1 .346-.381q.735-.731 1.304-.569a4.066 4.066 0 0 1 .662.05q.867.144 1.238.7a3.636 3.636 0 0 1 .538 1.325 4.475 4.475 0 0 1 .062.425 87.323 87.323 0 0 0 .099.936q.049.444.098.839a53.095 53.095 0 0 0 .003.025q.7 3.1 3.25 5.15a8.526 8.526 0 0 0 2.896 1.489q1.212.368 2.665.495a18.308 18.308 0 0 0 1.589.066 25.757 25.757 0 0 0 4.924-.451 20.499 20.499 0 0 0 3.876-1.149q3.9-1.6 6.2-4.45 2.3-2.85 2.3-6.45a11.739 11.739 0 0 0-.42-3.046 15.658 15.658 0 0 0-.78-2.204 16.773 16.773 0 0 0-1.535-2.74q-.835-1.224-1.943-2.457a28.728 28.728 0 0 0-.322-.353q-2.2-2.6-4.9-4.9a98.306 98.306 0 0 1-2.219-1.945q-1.334-1.208-2.431-2.305a12.013 12.013 0 0 1-.847-.933Q90.6 30.366 90.6 29.313q0-.937.977-1.722a5.374 5.374 0 0 1 .623-.428q1.379-.818 2.312-.931a2.394 2.394 0 0 1 .288-.019 15.436 15.436 0 0 0 1.729-.106q1.792-.203 4.121-.794 3.55-.9 7.35-2.45a52.676 52.676 0 0 0 4.892-2.282 44.746 44.746 0 0 0 2.058-1.168q2.179-1.313 3.568-2.627a11.037 11.037 0 0 0 1.082-1.173q.9-1.1 1.45-2.35a6.644 6.644 0 0 0 .443-1.38 5.476 5.476 0 0 0 .107-1.07 4.29 4.29 0 0 0-.871-2.576 6.267 6.267 0 0 0-.779-.874 6.205 6.205 0 0 0-1.399-.964q-1.376-.715-3.478-1.155a23.729 23.729 0 0 0-.673-.131 10.543 10.543 0 0 0-1.039-.224q-.538-.089-1.147-.144a18.925 18.925 0 0 0-.414-.032 44.997 44.997 0 0 0-1.953-.086 54.064 54.064 0 0 0-1.247-.014q-4.382 0-9.947.702a121.194 121.194 0 0 0-1.853.248q-6.7.95-13.6 2.75a83.554 83.554 0 0 0-10.425 3.441 74.327 74.327 0 0 0-2.475 1.059q-6 2.7-9.85 6.25a15.858 15.858 0 0 0-2.476 2.858 11.273 11.273 0 0 0-1.874 4.992 7.746 7.746 0 0 0-.024.496q-.012.787.151 1.443a3.691 3.691 0 0 0 1.073 1.861q1.4 1.3 3.3 1.95a31.62 31.62 0 0 1 1.11.402q1.098.422 1.841.822a9.438 9.438 0 0 1 .049.026q.9.4.9.8a.384.384 0 0 1-.224.35q-.272.15-.876.15-.806 0-1.883-.27a15.494 15.494 0 0 1-1.117-.33 12.651 12.651 0 0 1-2.448-1.13 15.43 15.43 0 0 1-1.102-.72q-1.75-1.25-2.85-3.05-1.07-1.751-.815-4.071a8.787 8.787 0 0 1 .015-.129 1.395 1.395 0 0 0-.005-.113q-.014-.165-.062-.45a14.583 14.583 0 0 0-.033-.187q-.082-.453-.096-.736a2.225 2.225 0 0 1-.004-.114 10.09 10.09 0 0 1 1.374-4.164 13.619 13.619 0 0 1 1.376-1.936 30.981 30.981 0 0 1 4.576-4.382 35.44 35.44 0 0 1 1.224-.918 75.298 75.298 0 0 1 3.14-2.137q1.514-.973 2.923-1.759a45.951 45.951 0 0 1 .187-.104 37.999 37.999 0 0 1 3.049-1.439q1.59-.671 3.411-1.298a66.65 66.65 0 0 1 1.24-.413 93.866 93.866 0 0 1 6.495-1.828 110.343 110.343 0 0 1 3.155-.722q5.15-1.1 10.45-1.75a89.997 89.997 0 0 1 5.741-.525A71.92 71.92 0 0 1 105.5.413q4.9 0 8.6.8a19.912 19.912 0 0 1 3.395 1.051q1.874.782 3.278 1.912a11.023 11.023 0 0 1 1.027.937 10.451 10.451 0 0 1 1.749 2.374 8.095 8.095 0 0 1 .951 3.826 11.151 11.151 0 0 1-.862 4.108 10.429 10.429 0 0 1-1.388 2.342q-2.15 2.75-5.55 4.65-3.4 1.9-7.35 3.15a54.307 54.307 0 0 1-6.319 1.603 48.743 48.743 0 0 1-1.431.247 74.627 74.627 0 0 1-2.709.38q-2.141.258-3.891.32 4.2 2.5 8.35 5.55a36.538 36.538 0 0 1 4.435 3.816 30.19 30.19 0 0 1 2.465 2.834 13.252 13.252 0 0 1 2.331 4.648 12.564 12.564 0 0 1 .419 3.252 12.094 12.094 0 0 1-.474 3.293 15.177 15.177 0 0 1-.576 1.657q-1.05 2.55-3.35 5.45a18.226 18.226 0 0 1-4.391 3.865 24.959 24.959 0 0 1-3.959 2.035 29.786 29.786 0 0 1-11.354 2.2 33.748 33.748 0 0 1-.096 0q-4.913 0-8.414-1.634a13.898 13.898 0 0 1-1.086-.566 8.828 8.828 0 0 1-4.309-5.822 11.843 11.843 0 0 1-.191-.978Z"
      vector-effect="non-scaling-stroke" />
  </g>
</svg>
