<svg width="124.5" height="79.414" viewBox="0 0 124.5 79.414" xmlns="http://www.w3.org/2000/svg"><g id="svgGroup" stroke-linecap="round" fill-rule="evenodd" font-size="9pt" stroke="#ffffff" stroke-width="0.25mm" fill="#ffffff" style="stroke:#ffffff;stroke-width:0.25mm;fill:#ffffff"><path d="M 1 23.313 L 0.9 23.313 Q 0.034 23.313 0.002 22.757 A 0.758 0.758 0 0 1 0 22.713 A 0.919 0.919 0 0 1 0.477 21.88 Q 0.659 21.77 0.91 21.697 A 3.112 3.112 0 0 1 1.3 21.613 A 7.264 7.264 0 0 0 2.558 21.34 Q 3.802 20.962 5.35 20.118 A 23.933 23.933 0 0 0 5.45 20.063 Q 7.9 18.713 10.6 16.713 Q 13.3 14.713 15.75 12.563 A 91.453 91.453 0 0 0 17.76 10.749 Q 18.665 9.907 19.444 9.127 A 51.967 51.967 0 0 0 19.95 8.613 Q 21.297 7.229 21.903 6.317 A 4.785 4.785 0 0 0 22.2 5.813 A 0.802 0.802 0 0 1 22.408 5.529 Q 22.767 5.196 23.65 4.913 A 8.335 8.335 0 0 1 25.402 4.547 A 7.36 7.36 0 0 1 26.1 4.513 A 6.792 6.792 0 0 1 26.975 4.567 Q 27.538 4.64 28 4.813 A 1.534 1.534 0 0 1 28.273 4.945 Q 28.762 5.249 28.6 5.813 Q 28.029 6.712 26.623 9.045 A 694.683 694.683 0 0 0 25.95 10.163 A 228.065 228.065 0 0 0 24.404 12.784 Q 23.724 13.952 22.986 15.247 A 425.314 425.314 0 0 0 21.45 17.963 A 191.211 191.211 0 0 0 17.944 24.527 A 223.518 223.518 0 0 0 16.35 27.713 Q 13.8 32.913 11.85 37.963 A 68.295 68.295 0 0 0 10.364 42.2 Q 9.55 44.807 9.1 47.113 A 40.419 40.419 0 0 0 8.889 48.68 A 33.2 33.2 0 0 0 8.8 49.563 Q 8.7 50.713 8.7 51.813 Q 8.7 55.813 10.1 57.463 A 4.746 4.746 0 0 0 11.54 58.634 A 4.424 4.424 0 0 0 13.6 59.113 A 11.06 11.06 0 0 0 16.159 58.795 Q 17.297 58.524 18.523 58.023 A 20.76 20.76 0 0 0 19.35 57.663 A 35.282 35.282 0 0 0 23.277 55.531 A 43.981 43.981 0 0 0 25.75 53.863 Q 29 51.513 32.1 48.813 Q 35.2 46.113 37.7 43.613 Q 38.7 37.113 40.15 30.913 A 169.316 169.316 0 0 1 41.845 24.255 A 134.197 134.197 0 0 1 43.25 19.513 Q 44.359 16.02 45.445 13.429 A 38.303 38.303 0 0 1 46.5 11.113 Q 48.708 6.33 51.677 3.366 A 18.851 18.851 0 0 1 52.2 2.863 A 10.45 10.45 0 0 1 59.539 0.001 A 12.92 12.92 0 0 1 60.1 0.013 Q 62.114 0.191 63.39 0.895 A 4.211 4.211 0 0 1 64.8 2.113 A 6.881 6.881 0 0 1 66.089 5.864 A 8.56 8.56 0 0 1 66.1 6.313 Q 66.1 8.113 65.5 10.113 A 34.215 34.215 0 0 1 63.17 15.91 A 41.95 41.95 0 0 1 61.45 18.963 Q 58.7 23.413 55.3 27.713 Q 51.9 32.013 48.5 36.013 Q 45.1 40.013 42.4 43.513 A 97.25 97.25 0 0 0 41.943 46.209 Q 41.721 47.628 41.51 49.209 A 161.711 161.711 0 0 0 41.45 49.663 Q 41 53.113 40.75 56.413 A 102.909 102.909 0 0 0 40.598 58.762 Q 40.537 59.919 40.514 60.939 A 52.415 52.415 0 0 0 40.5 62.113 A 45.007 45.007 0 0 0 40.733 66.871 Q 41.245 71.666 42.881 74.551 A 10.155 10.155 0 0 0 43.8 75.913 A 4.702 4.702 0 0 0 44.652 76.752 A 3.185 3.185 0 0 0 46.6 77.413 A 2.649 2.649 0 0 0 48.412 76.702 A 3.705 3.705 0 0 0 48.7 76.413 Q 49.075 75.663 49.802 74.913 A 8.842 8.842 0 0 1 49.9 74.813 A 3.995 3.995 0 0 1 50.171 74.565 Q 50.449 74.334 50.676 74.255 A 0.683 0.683 0 0 1 50.9 74.213 A 0.508 0.508 0 0 1 51.148 74.269 Q 51.524 74.475 51.317 75.439 A 4.97 4.97 0 0 1 51.3 75.513 Q 51.2 75.913 50.85 76.463 Q 50.5 77.013 50 77.513 A 2.912 2.912 0 0 1 49.321 78.132 Q 48.625 78.601 47.5 78.913 A 14.146 14.146 0 0 1 45.565 79.314 A 11.205 11.205 0 0 1 44.1 79.413 A 7.3 7.3 0 0 1 41.792 79.067 A 5.765 5.765 0 0 1 38.7 76.613 A 14.793 14.793 0 0 1 37.127 73.272 Q 36.616 71.738 36.337 69.953 A 24.671 24.671 0 0 1 36.3 69.713 Q 36.1 68.213 35.95 66.563 Q 35.8 64.913 35.8 63.113 A 70.319 70.319 0 0 1 35.941 58.763 A 88.108 88.108 0 0 1 36.2 55.563 A 132.241 132.241 0 0 1 37.13 48.285 A 146.443 146.443 0 0 1 37.3 47.213 A 109.843 109.843 0 0 1 30.187 53.546 A 122.283 122.283 0 0 1 29.05 54.463 Q 24.6 58.013 19.85 60.313 A 23.032 23.032 0 0 1 13.898 62.289 A 20.201 20.201 0 0 1 10.3 62.613 Q 7.8 62.613 5.85 61.113 A 5.513 5.513 0 0 1 4.302 59.191 Q 3.889 58.376 3.636 57.342 A 12.655 12.655 0 0 1 3.4 56.113 Q 3.3 55.413 3.25 54.763 A 17.363 17.363 0 0 1 3.201 53.598 A 19.322 19.322 0 0 1 3.2 53.413 A 28.76 28.76 0 0 1 3.846 47.466 A 35.482 35.482 0 0 1 4.7 44.213 A 77.857 77.857 0 0 1 7.9 35.775 A 85.627 85.627 0 0 1 8.45 34.563 Q 10.7 29.713 13.05 25.013 Q 15.4 20.313 17 16.313 A 1.522 1.522 0 0 0 17.11 16.122 Q 17.16 16.016 17.183 15.917 A 0.699 0.699 0 0 0 17.2 15.763 L 17.2 15.413 Q 17.2 15.032 16.927 15.014 A 0.421 0.421 0 0 0 16.9 15.013 A 1.008 1.008 0 0 0 16.564 15.085 Q 16.042 15.276 15.128 15.976 A 19.006 19.006 0 0 0 14.7 16.313 Q 11.3 19.113 7.7 21.113 Q 4.1 23.113 1 23.313 Z M 51.133 29.066 A 95.517 95.517 0 0 0 51.25 28.913 Q 55 24.013 58.05 18.613 A 53.486 53.486 0 0 0 60.525 13.683 Q 61.71 10.963 62.4 8.413 A 14.52 14.52 0 0 0 62.644 7.242 A 12.77 12.77 0 0 0 62.7 6.863 Q 62.8 6.113 62.8 5.513 A 6.99 6.99 0 0 0 62.737 4.528 Q 62.573 3.381 61.983 2.921 A 1.55 1.55 0 0 0 61 2.613 A 2.617 2.617 0 0 0 59.995 2.838 Q 59.136 3.197 58.103 4.13 A 15.373 15.373 0 0 0 57.3 4.913 Q 51.8 11.013 48.85 19.263 A 124.363 124.363 0 0 0 45.534 30.142 A 149.575 149.575 0 0 0 43.9 37.213 Q 47.444 33.867 51.133 29.066 Z" id="0" vector-effect="non-scaling-stroke"/><path d="M 74.8 57.713 L 74.8 57.113 Q 74.25 57.87 73.582 58.815 A 241.118 241.118 0 0 0 72.95 59.713 A 17.174 17.174 0 0 1 71.772 61.219 A 13.459 13.459 0 0 1 70.75 62.263 Q 69.824 63.109 68.866 63.274 A 2.744 2.744 0 0 1 68.4 63.313 A 0.978 0.978 0 0 1 68.299 63.306 Q 68.022 63.276 67.25 63.113 A 14.483 14.483 0 0 1 65.773 62.722 A 12.985 12.985 0 0 1 65.45 62.613 A 3.665 3.665 0 0 1 65.114 62.477 Q 64.782 62.321 64.625 62.142 A 0.553 0.553 0 0 1 64.5 61.913 A 4.789 4.789 0 0 1 64.448 61.379 Q 64.367 59.541 65.45 56.463 Q 66.7 52.913 68.75 48.613 Q 70.8 44.313 73.05 40.013 Q 75.3 35.713 77.2 32.263 Q 78.655 29.622 79.465 27.948 A 32.144 32.144 0 0 0 79.9 27.013 A 14.108 14.108 0 0 0 80.236 26.36 Q 80.552 25.701 80.691 25.197 A 4.141 4.141 0 0 0 80.7 25.163 A 9.379 9.379 0 0 0 80.797 24.769 Q 80.876 24.411 80.895 24.158 A 1.983 1.983 0 0 0 80.9 24.013 Q 80.9 23.413 80.7 23.013 A 4.627 4.627 0 0 1 80.912 22.23 Q 81.191 21.445 81.785 20.42 A 21.039 21.039 0 0 1 82.15 19.813 A 23.088 23.088 0 0 1 83.864 17.438 A 29.266 29.266 0 0 1 85.3 15.813 A 20.58 20.58 0 0 1 88.788 12.856 A 18.885 18.885 0 0 1 89.4 12.463 A 10.987 10.987 0 0 1 90.943 11.667 Q 92.283 11.113 93.5 11.113 A 3.125 3.125 0 0 1 93.877 11.14 Q 94.286 11.19 94.874 11.337 A 17.524 17.524 0 0 1 95.35 11.463 Q 96.6 11.813 97.75 12.513 A 3.117 3.117 0 0 1 98.836 13.589 A 3.216 3.216 0 0 1 99.2 14.513 A 1.89 1.89 0 0 1 99.3 15.104 A 1.801 1.801 0 0 1 99.3 15.113 A 0.666 0.666 0 0 1 99.293 15.219 Q 99.263 15.405 99.115 15.413 A 0.253 0.253 0 0 1 99.1 15.413 A 0.749 0.749 0 0 1 98.965 15.399 Q 98.832 15.375 98.655 15.306 A 3.256 3.256 0 0 1 98.55 15.263 Q 98.262 15.14 98.075 15.118 A 0.649 0.649 0 0 0 98 15.113 Q 96.282 15.113 94.341 16.341 A 13.858 13.858 0 0 0 93 17.313 Q 90.3 19.513 87.45 23.213 A 89.182 89.182 0 0 0 83.345 29.025 A 103.671 103.671 0 0 0 81.9 31.313 Q 79.2 35.713 76.75 40.163 Q 74.3 44.613 72.5 48.363 Q 71.122 51.235 70.213 53.256 A 100.952 100.952 0 0 0 69.7 54.413 Q 68.9 56.613 68.9 57.513 A 2.614 2.614 0 0 0 68.946 58.024 Q 69.106 58.826 69.836 58.905 A 1.541 1.541 0 0 0 70 58.913 A 2.484 2.484 0 0 0 71.102 58.635 Q 71.888 58.247 72.732 57.321 A 10.623 10.623 0 0 0 73 57.013 Q 74.1 55.713 75.05 54.563 A 5.292 5.292 0 0 1 75.396 54.182 Q 76.131 53.451 76.7 53.613 A 4.066 4.066 0 0 1 77.362 53.663 Q 78.229 53.807 78.6 54.363 A 3.636 3.636 0 0 1 79.138 55.688 A 4.475 4.475 0 0 1 79.2 56.113 A 87.323 87.323 0 0 0 79.299 57.049 Q 79.348 57.493 79.397 57.888 A 53.095 53.095 0 0 0 79.4 57.913 Q 80.1 61.013 82.65 63.063 A 8.526 8.526 0 0 0 85.546 64.552 Q 86.758 64.92 88.211 65.047 A 18.308 18.308 0 0 0 89.8 65.113 A 25.757 25.757 0 0 0 94.724 64.662 A 20.499 20.499 0 0 0 98.6 63.513 Q 102.5 61.913 104.8 59.063 Q 107.1 56.213 107.1 52.613 A 11.739 11.739 0 0 0 106.68 49.567 A 15.658 15.658 0 0 0 105.9 47.363 A 16.773 16.773 0 0 0 104.365 44.623 Q 103.53 43.399 102.422 42.166 A 28.728 28.728 0 0 0 102.1 41.813 Q 99.9 39.213 97.2 36.913 A 98.306 98.306 0 0 1 94.981 34.968 Q 93.647 33.76 92.55 32.663 A 12.013 12.013 0 0 1 91.703 31.73 Q 90.6 30.366 90.6 29.313 Q 90.6 28.376 91.577 27.591 A 5.374 5.374 0 0 1 92.2 27.163 Q 93.579 26.345 94.512 26.232 A 2.394 2.394 0 0 1 94.8 26.213 A 15.436 15.436 0 0 0 96.529 26.107 Q 98.321 25.904 100.65 25.313 Q 104.2 24.413 108 22.863 A 52.676 52.676 0 0 0 112.892 20.581 A 44.746 44.746 0 0 0 114.95 19.413 Q 117.129 18.1 118.518 16.786 A 11.037 11.037 0 0 0 119.6 15.613 Q 120.5 14.513 121.05 13.263 A 6.644 6.644 0 0 0 121.493 11.883 A 5.476 5.476 0 0 0 121.6 10.813 A 4.29 4.29 0 0 0 120.729 8.237 A 6.267 6.267 0 0 0 119.95 7.363 A 6.205 6.205 0 0 0 118.551 6.399 Q 117.175 5.684 115.073 5.244 A 23.729 23.729 0 0 0 114.4 5.113 A 10.543 10.543 0 0 0 113.361 4.889 Q 112.823 4.8 112.214 4.745 A 18.925 18.925 0 0 0 111.8 4.713 A 44.997 44.997 0 0 0 109.847 4.627 A 54.064 54.064 0 0 0 108.6 4.613 Q 104.218 4.613 98.653 5.315 A 121.194 121.194 0 0 0 96.8 5.563 Q 90.1 6.513 83.2 8.313 A 83.554 83.554 0 0 0 72.775 11.754 A 74.327 74.327 0 0 0 70.3 12.813 Q 64.3 15.513 60.45 19.063 A 15.858 15.858 0 0 0 57.974 21.921 A 11.273 11.273 0 0 0 56.1 26.913 A 7.746 7.746 0 0 0 56.076 27.409 Q 56.064 28.196 56.227 28.852 A 3.691 3.691 0 0 0 57.3 30.713 Q 58.7 32.013 60.6 32.663 A 31.62 31.62 0 0 1 61.71 33.065 Q 62.808 33.487 63.551 33.887 A 9.438 9.438 0 0 1 63.6 33.913 Q 64.5 34.313 64.5 34.713 A 0.384 0.384 0 0 1 64.276 35.063 Q 64.004 35.213 63.4 35.213 Q 62.594 35.213 61.517 34.943 A 15.494 15.494 0 0 1 60.4 34.613 A 12.651 12.651 0 0 1 57.952 33.483 A 15.43 15.43 0 0 1 56.85 32.763 Q 55.1 31.513 54 29.713 Q 52.93 27.962 53.185 25.642 A 8.787 8.787 0 0 1 53.2 25.513 A 1.395 1.395 0 0 0 53.195 25.4 Q 53.181 25.235 53.133 24.95 A 14.583 14.583 0 0 0 53.1 24.763 Q 53.018 24.31 53.004 24.027 A 2.225 2.225 0 0 1 53 23.913 A 10.09 10.09 0 0 1 54.374 19.749 A 13.619 13.619 0 0 1 55.75 17.813 A 30.981 30.981 0 0 1 60.326 13.431 A 35.44 35.44 0 0 1 61.55 12.513 A 75.298 75.298 0 0 1 64.69 10.376 Q 66.204 9.403 67.613 8.617 A 45.951 45.951 0 0 1 67.8 8.513 A 37.999 37.999 0 0 1 70.849 7.074 Q 72.439 6.403 74.26 5.776 A 66.65 66.65 0 0 1 75.5 5.363 A 93.866 93.866 0 0 1 81.995 3.535 A 110.343 110.343 0 0 1 85.15 2.813 Q 90.3 1.713 95.6 1.063 A 89.997 89.997 0 0 1 101.341 0.538 A 71.92 71.92 0 0 1 105.5 0.413 Q 110.4 0.413 114.1 1.213 A 19.912 19.912 0 0 1 117.495 2.264 Q 119.369 3.046 120.773 4.176 A 11.023 11.023 0 0 1 121.8 5.113 A 10.451 10.451 0 0 1 123.549 7.487 A 8.095 8.095 0 0 1 124.5 11.313 A 11.151 11.151 0 0 1 123.638 15.421 A 10.429 10.429 0 0 1 122.25 17.763 Q 120.1 20.513 116.7 22.413 Q 113.3 24.313 109.35 25.563 A 54.307 54.307 0 0 1 103.031 27.166 A 48.743 48.743 0 0 1 101.6 27.413 A 74.627 74.627 0 0 1 98.891 27.793 Q 96.75 28.051 95 28.113 Q 99.2 30.613 103.35 33.663 A 36.538 36.538 0 0 1 107.785 37.479 A 30.19 30.19 0 0 1 110.25 40.313 A 13.252 13.252 0 0 1 112.581 44.961 A 12.564 12.564 0 0 1 113 48.213 A 12.094 12.094 0 0 1 112.526 51.506 A 15.177 15.177 0 0 1 111.95 53.163 Q 110.9 55.713 108.6 58.613 A 18.226 18.226 0 0 1 104.209 62.478 A 24.959 24.959 0 0 1 100.25 64.513 A 29.786 29.786 0 0 1 88.896 66.713 A 33.748 33.748 0 0 1 88.8 66.713 Q 83.887 66.713 80.386 65.079 A 13.898 13.898 0 0 1 79.3 64.513 A 8.828 8.828 0 0 1 74.991 58.691 A 11.843 11.843 0 0 1 74.8 57.713 Z" id="1" vector-effect="non-scaling-stroke"/></g></svg>
