<svg
  width="1200"
  height="630"
  viewBox="0 0 1200 630"
  fill="none"
  xmlns="http://www.w3.org/2000/svg"
>
  <g clip-path="url(#clip0_307_371)">
    <rect width="1200" height="630" fill="#142538" />
    <g filter="url(#filter0_f_307_371)">
      <circle
        cx="469.456"
        cy="469.456"
        r="469.456"
        transform="matrix(-0.997521 0.0703694 0.0703694 0.997521 1583.58 256)"
        fill="#69A8D4"
      />
    </g>
    <path
      d="M132.906 444H123.281V410.875L111.562 436.125H104.125L92.4375 410.969V444H82.8125V397.125H95.0312L107.844 425.438L120.656 397.125H132.906V444ZM156.469 407.688H150.062L154.5 397.125H162.625L156.469 407.688ZM171.125 444H163.844L163.531 439C162.427 440.833 160.958 442.229 159.125 443.188C157.312 444.146 155.188 444.625 152.75 444.625C148.75 444.625 145.615 443.396 143.344 440.938C141.073 438.479 139.938 435.104 139.938 430.812V412.75H148.906V428.75C148.906 431.188 149.479 433.104 150.625 434.5C151.792 435.875 153.375 436.562 155.375 436.562C157.458 436.562 159.104 435.844 160.312 434.406C161.542 432.948 162.156 430.979 162.156 428.5V412.75H171.125V444ZM188.344 444H178.75V395.875H188.344V444ZM217.844 443.188C215.448 444.146 213.125 444.625 210.875 444.625C208.542 444.625 206.479 444.135 204.688 443.156C202.917 442.156 201.531 440.771 200.531 439C199.531 437.208 199.031 435.146 199.031 432.812V420.75H193.562V412.75H199.5V404.938H208V412.75H216.656V420.75H208V431.188C208 432.896 208.469 434.229 209.406 435.188C210.344 436.125 211.51 436.594 212.906 436.594C214.177 436.594 215.417 436.198 216.625 435.406L217.844 443.188ZM226.656 405.281C225.469 405.281 224.469 404.865 223.656 404.031C222.844 403.198 222.438 402.188 222.438 401C222.438 399.812 222.844 398.812 223.656 398C224.469 397.167 225.469 396.75 226.656 396.75C227.865 396.75 228.875 397.167 229.688 398C230.521 398.812 230.938 399.812 230.938 401C230.938 402.188 230.521 403.198 229.688 404.031C228.875 404.865 227.865 405.281 226.656 405.281ZM231.156 444H222.188V412.75H231.156V444ZM247.875 459.625H238.875V412.75H246.75L247.219 417C248.552 415.479 250.146 414.292 252 413.438C253.875 412.562 255.917 412.125 258.125 412.125C261 412.125 263.552 412.833 265.781 414.25C268.01 415.646 269.771 417.573 271.062 420.031C272.354 422.469 273 425.25 273 428.375C273 431.479 272.354 434.26 271.062 436.719C269.771 439.177 268.01 441.115 265.781 442.531C263.552 443.927 261 444.625 258.125 444.625C256.083 444.625 254.188 444.26 252.438 443.531C250.708 442.781 249.188 441.75 247.875 440.438V459.625ZM255.844 436.562C257.406 436.562 258.781 436.219 259.969 435.531C261.156 434.823 262.083 433.854 262.75 432.625C263.438 431.375 263.781 429.958 263.781 428.375C263.781 426.771 263.438 425.354 262.75 424.125C262.083 422.896 261.156 421.927 259.969 421.219C258.781 420.51 257.417 420.156 255.875 420.156C254.417 420.156 253.104 420.479 251.938 421.125C250.771 421.75 249.823 422.625 249.094 423.75C248.385 424.875 247.979 426.167 247.875 427.625V429.188C247.979 430.604 248.385 431.875 249.094 433C249.802 434.104 250.74 434.979 251.906 435.625C253.073 436.25 254.385 436.562 255.844 436.562ZM288.281 444H278.688V395.875H288.281V444ZM324.719 440.5C320.844 443.25 316.604 444.625 312 444.625C308.583 444.625 305.51 443.896 302.781 442.438C300.073 440.958 297.927 438.958 296.344 436.438C294.781 433.917 294 431.073 294 427.906C294 424.885 294.708 422.188 296.125 419.812C297.562 417.438 299.51 415.562 301.969 414.188C304.427 412.812 307.219 412.125 310.344 412.125C313.573 412.125 316.417 412.885 318.875 414.406C321.333 415.906 323.25 418.01 324.625 420.719C326 423.406 326.688 426.521 326.688 430.062V431.062H303.656C304.031 432.292 304.646 433.375 305.5 434.312C306.354 435.229 307.417 435.958 308.688 436.5C309.958 437.042 311.417 437.312 313.062 437.312C316.25 437.312 319.219 436.281 321.969 434.219L324.719 440.5ZM303.25 426.5H318.406C318.24 425.146 317.812 423.958 317.125 422.938C316.458 421.896 315.573 421.083 314.469 420.5C313.385 419.917 312.167 419.625 310.812 419.625C309.438 419.625 308.208 419.927 307.125 420.531C306.062 421.135 305.198 421.948 304.531 422.969C303.865 423.99 303.438 425.167 303.25 426.5ZM330.188 441.312L332.156 433.688C332.781 434.375 333.615 435.01 334.656 435.594C335.719 436.177 336.854 436.646 338.062 437C339.292 437.333 340.448 437.5 341.531 437.5C342.823 437.5 343.833 437.26 344.562 436.781C345.292 436.281 345.656 435.615 345.656 434.781C345.656 434.094 345.406 433.521 344.906 433.062C344.427 432.583 343.771 432.167 342.938 431.812C342.125 431.438 341.219 431.073 340.219 430.719C338.865 430.198 337.469 429.594 336.031 428.906C334.615 428.219 333.417 427.281 332.438 426.094C331.458 424.906 330.969 423.333 330.969 421.375C330.969 419.5 331.458 417.875 332.438 416.5C333.417 415.104 334.802 414.031 336.594 413.281C338.385 412.51 340.469 412.125 342.844 412.125C346.698 412.125 350.542 413.094 354.375 415.031L351.844 422.125C351.177 421.604 350.344 421.125 349.344 420.688C348.344 420.229 347.312 419.865 346.25 419.594C345.208 419.323 344.271 419.188 343.438 419.188C342.417 419.188 341.615 419.396 341.031 419.812C340.469 420.229 340.188 420.802 340.188 421.531C340.188 422.073 340.385 422.562 340.781 423C341.177 423.417 341.76 423.823 342.531 424.219C343.323 424.594 344.292 425 345.438 425.438C346.854 425.958 348.281 426.583 349.719 427.312C351.177 428.021 352.396 428.979 353.375 430.188C354.375 431.375 354.875 432.958 354.875 434.938C354.875 436.875 354.344 438.573 353.281 440.031C352.24 441.49 350.76 442.625 348.844 443.438C346.948 444.229 344.719 444.625 342.156 444.625C337.885 444.625 333.896 443.521 330.188 441.312ZM386.312 444H377.344V420.75H371.875V412.75H377.344V407.875C377.344 405.625 377.875 403.625 378.938 401.875C380 400.104 381.458 398.719 383.312 397.719C385.188 396.698 387.312 396.188 389.688 396.188C391.188 396.188 392.719 396.406 394.281 396.844C395.844 397.26 397.385 397.927 398.906 398.844L395.5 405.812C394.833 405.271 394.125 404.875 393.375 404.625C392.646 404.354 391.917 404.219 391.188 404.219C389.812 404.219 388.656 404.698 387.719 405.656C386.781 406.615 386.312 407.938 386.312 409.625V412.75H395.656V420.75H386.312V444ZM413.219 444H403.625V395.875H413.219V444ZM451.438 444H444.156L443.844 439C442.74 440.833 441.271 442.229 439.438 443.188C437.625 444.146 435.5 444.625 433.062 444.625C429.062 444.625 425.927 443.396 423.656 440.938C421.385 438.479 420.25 435.104 420.25 430.812V412.75H429.219V428.75C429.219 431.188 429.792 433.104 430.938 434.5C432.104 435.875 433.688 436.562 435.688 436.562C437.771 436.562 439.417 435.844 440.625 434.406C441.854 432.948 442.469 430.979 442.469 428.5V412.75H451.438V444ZM463.719 405.281C462.531 405.281 461.531 404.865 460.719 404.031C459.906 403.198 459.5 402.188 459.5 401C459.5 399.812 459.906 398.812 460.719 398C461.531 397.167 462.531 396.75 463.719 396.75C464.906 396.75 465.906 397.167 466.719 398C467.552 398.812 467.969 399.812 467.969 401C467.969 402.188 467.552 403.198 466.719 404.031C465.906 404.865 464.906 405.281 463.719 405.281ZM450.656 459.688V452.625C450.99 452.688 451.312 452.729 451.625 452.75C451.917 452.771 452.198 452.781 452.469 452.781C454.573 452.781 456.229 452.094 457.438 450.719C458.646 449.365 459.25 447.479 459.25 445.062V412.75H468.219V445.469C468.219 450.323 467.156 454 465.031 456.5C462.906 459 459.802 460.25 455.719 460.25C454.948 460.25 454.146 460.198 453.312 460.094C452.479 460.01 451.594 459.875 450.656 459.688ZM490.531 444.625C487.323 444.625 484.448 443.927 481.906 442.531C479.365 441.115 477.365 439.188 475.906 436.75C474.469 434.292 473.75 431.5 473.75 428.375C473.75 425.271 474.469 422.5 475.906 420.062C477.365 417.604 479.365 415.667 481.906 414.25C484.448 412.833 487.323 412.125 490.531 412.125C493.74 412.125 496.594 412.833 499.094 414.25C501.615 415.667 503.594 417.604 505.031 420.062C506.49 422.5 507.219 425.271 507.219 428.375C507.219 431.5 506.49 434.292 505.031 436.75C503.594 439.188 501.615 441.115 499.094 442.531C496.594 443.927 493.74 444.625 490.531 444.625ZM490.5 436.594C491.938 436.594 493.219 436.24 494.344 435.531C495.49 434.802 496.385 433.823 497.031 432.594C497.698 431.344 498.031 429.917 498.031 428.312C498.031 426.771 497.698 425.385 497.031 424.156C496.385 422.927 495.49 421.958 494.344 421.25C493.219 420.521 491.938 420.156 490.5 420.156C489.042 420.156 487.74 420.521 486.594 421.25C485.469 421.958 484.573 422.927 483.906 424.156C483.26 425.385 482.938 426.771 482.938 428.312C482.938 429.917 483.26 431.344 483.906 432.594C484.573 433.823 485.469 434.802 486.594 435.531C487.74 436.24 489.042 436.594 490.5 436.594ZM510.75 441.312L512.719 433.688C513.344 434.375 514.177 435.01 515.219 435.594C516.281 436.177 517.417 436.646 518.625 437C519.854 437.333 521.01 437.5 522.094 437.5C523.385 437.5 524.396 437.26 525.125 436.781C525.854 436.281 526.219 435.615 526.219 434.781C526.219 434.094 525.969 433.521 525.469 433.062C524.99 432.583 524.333 432.167 523.5 431.812C522.688 431.438 521.781 431.073 520.781 430.719C519.427 430.198 518.031 429.594 516.594 428.906C515.177 428.219 513.979 427.281 513 426.094C512.021 424.906 511.531 423.333 511.531 421.375C511.531 419.5 512.021 417.875 513 416.5C513.979 415.104 515.365 414.031 517.156 413.281C518.948 412.51 521.031 412.125 523.406 412.125C527.26 412.125 531.104 413.094 534.938 415.031L532.406 422.125C531.74 421.604 530.906 421.125 529.906 420.688C528.906 420.229 527.875 419.865 526.812 419.594C525.771 419.323 524.833 419.188 524 419.188C522.979 419.188 522.177 419.396 521.594 419.812C521.031 420.229 520.75 420.802 520.75 421.531C520.75 422.073 520.948 422.562 521.344 423C521.74 423.417 522.323 423.823 523.094 424.219C523.885 424.594 524.854 425 526 425.438C527.417 425.958 528.844 426.583 530.281 427.312C531.74 428.021 532.958 428.979 533.938 430.188C534.938 431.375 535.438 432.958 535.438 434.938C535.438 436.875 534.906 438.573 533.844 440.031C532.802 441.49 531.323 442.625 529.406 443.438C527.51 444.229 525.281 444.625 522.719 444.625C518.448 444.625 514.458 443.521 510.75 441.312ZM583.062 439.031C581.542 440.781 579.677 442.156 577.469 443.156C575.26 444.135 572.833 444.625 570.188 444.625C566.979 444.625 564.104 443.927 561.562 442.531C559.042 441.115 557.052 439.177 555.594 436.719C554.156 434.26 553.438 431.479 553.438 428.375C553.438 425.25 554.156 422.469 555.594 420.031C557.052 417.573 559.042 415.646 561.562 414.25C564.104 412.833 566.979 412.125 570.188 412.125C572.812 412.125 575.229 412.615 577.438 413.594C579.646 414.573 581.51 415.927 583.031 417.656L577.75 423.188C576.938 422.25 575.906 421.521 574.656 421C573.427 420.458 572.135 420.188 570.781 420.188C569.219 420.188 567.823 420.542 566.594 421.25C565.365 421.938 564.396 422.896 563.688 424.125C562.979 425.333 562.625 426.729 562.625 428.312C562.625 429.917 562.979 431.344 563.688 432.594C564.396 433.844 565.365 434.823 566.594 435.531C567.823 436.219 569.219 436.562 570.781 436.562C572.135 436.562 573.438 436.302 574.688 435.781C575.938 435.24 576.958 434.5 577.75 433.562L583.062 439.031ZM603.406 444.625C600.198 444.625 597.323 443.927 594.781 442.531C592.24 441.115 590.24 439.188 588.781 436.75C587.344 434.292 586.625 431.5 586.625 428.375C586.625 425.271 587.344 422.5 588.781 420.062C590.24 417.604 592.24 415.667 594.781 414.25C597.323 412.833 600.198 412.125 603.406 412.125C606.615 412.125 609.469 412.833 611.969 414.25C614.49 415.667 616.469 417.604 617.906 420.062C619.365 422.5 620.094 425.271 620.094 428.375C620.094 431.5 619.365 434.292 617.906 436.75C616.469 439.188 614.49 441.115 611.969 442.531C609.469 443.927 606.615 444.625 603.406 444.625ZM603.375 436.594C604.812 436.594 606.094 436.24 607.219 435.531C608.365 434.802 609.26 433.823 609.906 432.594C610.573 431.344 610.906 429.917 610.906 428.312C610.906 426.771 610.573 425.385 609.906 424.156C609.26 422.927 608.365 421.958 607.219 421.25C606.094 420.521 604.812 420.156 603.375 420.156C601.917 420.156 600.615 420.521 599.469 421.25C598.344 421.958 597.448 422.927 596.781 424.156C596.135 425.385 595.812 426.771 595.812 428.312C595.812 429.917 596.135 431.344 596.781 432.594C597.448 433.823 598.344 434.802 599.469 435.531C600.615 436.24 601.917 436.594 603.375 436.594ZM657 444H648.031V428C648.031 425.562 647.448 423.656 646.281 422.281C645.135 420.885 643.562 420.188 641.562 420.188C639.479 420.188 637.823 420.917 636.594 422.375C635.385 423.812 634.781 425.771 634.781 428.25V444H625.812V412.75H633.062L633.375 417.75C634.5 415.917 635.969 414.521 637.781 413.562C639.594 412.604 641.729 412.125 644.188 412.125C648.167 412.125 651.292 413.354 653.562 415.812C655.854 418.25 657 421.625 657 425.938V444ZM120.688 523H110.031L100.188 506.062H92.4375V523H82.8125V476.125H100.625C104.396 476.125 107.625 476.719 110.312 477.906C113 479.094 115.052 480.812 116.469 483.062C117.906 485.292 118.625 487.969 118.625 491.094C118.625 494.302 117.865 497.042 116.344 499.312C114.844 501.562 112.698 503.25 109.906 504.375L120.688 523ZM92.4375 498.406H99.9062C102.76 498.406 104.948 497.812 106.469 496.625C108.01 495.417 108.781 493.698 108.781 491.469C108.781 489.24 108.01 487.531 106.469 486.344C104.948 485.135 102.76 484.531 99.9062 484.531H92.4375V498.406ZM134.688 523H122.375L135.75 507L123.062 491.75H135.438L141.938 500.969L148.375 491.75H160.656L148.062 506.938L161.438 523H149.031L141.875 512.844L134.688 523ZM155.156 534.25L154.688 525.844C158.333 525.844 161.042 524.979 162.812 523.25C164.583 521.521 165.469 518.917 165.469 515.438V476.125H175.094V515.312C175.094 519.812 174.417 523.448 173.062 526.219C171.729 529.01 169.594 531.042 166.656 532.312C163.74 533.604 159.906 534.25 155.156 534.25ZM180.562 517.938L185.125 510.594C186.562 511.76 187.948 512.719 189.281 513.469C190.635 514.198 191.969 514.74 193.281 515.094C194.594 515.427 195.938 515.594 197.312 515.594C198.938 515.594 200.344 515.365 201.531 514.906C202.719 514.448 203.635 513.792 204.281 512.938C204.948 512.083 205.281 511.094 205.281 509.969C205.281 508.656 204.865 507.552 204.031 506.656C203.198 505.76 202.104 504.979 200.75 504.312C199.417 503.625 197.969 502.969 196.406 502.344C194.885 501.719 193.354 501.042 191.812 500.312C190.292 499.562 188.885 498.677 187.594 497.656C186.323 496.635 185.292 495.396 184.5 493.938C183.729 492.458 183.344 490.667 183.344 488.562C183.344 485.812 184.031 483.438 185.406 481.438C186.802 479.438 188.708 477.896 191.125 476.812C193.542 475.729 196.302 475.188 199.406 475.188C201.594 475.188 203.865 475.479 206.219 476.062C208.594 476.646 210.958 477.531 213.312 478.719L209.531 486.5C208.052 485.604 206.458 484.896 204.75 484.375C203.042 483.854 201.438 483.594 199.938 483.594C198.583 483.594 197.396 483.802 196.375 484.219C195.375 484.635 194.594 485.219 194.031 485.969C193.469 486.698 193.188 487.562 193.188 488.562C193.188 489.75 193.594 490.781 194.406 491.656C195.219 492.51 196.271 493.271 197.562 493.938C198.875 494.604 200.281 495.271 201.781 495.938C203.323 496.604 204.875 497.333 206.438 498.125C208.021 498.917 209.458 499.854 210.75 500.938C212.062 502 213.115 503.281 213.906 504.781C214.719 506.26 215.125 508.042 215.125 510.125C215.125 512.875 214.396 515.292 212.938 517.375C211.479 519.438 209.448 521.052 206.844 522.219C204.24 523.365 201.208 523.938 197.75 523.938C194.583 523.938 191.552 523.427 188.656 522.406C185.76 521.385 183.062 519.896 180.562 517.938ZM264.469 519.5C260.594 522.25 256.354 523.625 251.75 523.625C248.333 523.625 245.26 522.896 242.531 521.438C239.823 519.958 237.677 517.958 236.094 515.438C234.531 512.917 233.75 510.073 233.75 506.906C233.75 503.885 234.458 501.188 235.875 498.812C237.312 496.438 239.26 494.562 241.719 493.188C244.177 491.812 246.969 491.125 250.094 491.125C253.323 491.125 256.167 491.885 258.625 493.406C261.083 494.906 263 497.01 264.375 499.719C265.75 502.406 266.438 505.521 266.438 509.062V510.062H243.406C243.781 511.292 244.396 512.375 245.25 513.312C246.104 514.229 247.167 514.958 248.438 515.5C249.708 516.042 251.167 516.312 252.812 516.312C256 516.312 258.969 515.281 261.719 513.219L264.469 519.5ZM243 505.5H258.156C257.99 504.146 257.562 502.958 256.875 501.938C256.208 500.896 255.323 500.083 254.219 499.5C253.135 498.917 251.917 498.625 250.562 498.625C249.188 498.625 247.958 498.927 246.875 499.531C245.812 500.135 244.948 500.948 244.281 501.969C243.615 502.99 243.188 504.167 243 505.5ZM303.312 523H294.344V507C294.344 504.562 293.76 502.656 292.594 501.281C291.448 499.885 289.875 499.188 287.875 499.188C285.792 499.188 284.135 499.917 282.906 501.375C281.698 502.812 281.094 504.771 281.094 507.25V523H272.125V491.75H279.375L279.688 496.75C280.812 494.917 282.281 493.521 284.094 492.562C285.906 491.604 288.042 491.125 290.5 491.125C294.479 491.125 297.604 492.354 299.875 494.812C302.167 497.25 303.312 500.625 303.312 504.938V523ZM331.844 523H321.75L340.438 476.125H350.594L369.25 523H359.156L355.312 512.938H335.688L331.844 523ZM338.844 504.5H352.188L345.5 487.125L338.844 504.5ZM405 523H396.031V507C396.031 504.562 395.448 502.656 394.281 501.281C393.135 499.885 391.562 499.188 389.562 499.188C387.479 499.188 385.823 499.917 384.594 501.375C383.385 502.812 382.781 504.771 382.781 507.25V523H373.812V491.75H381.062L381.375 496.75C382.5 494.917 383.969 493.521 385.781 492.562C387.594 491.604 389.729 491.125 392.188 491.125C396.167 491.125 399.292 492.354 401.562 494.812C403.854 497.25 405 500.625 405 504.938V523ZM424.781 523.375C421.969 523.375 419.448 522.677 417.219 521.281C414.99 519.865 413.24 517.948 411.969 515.531C410.698 513.094 410.062 510.333 410.062 507.25C410.062 504.146 410.698 501.385 411.969 498.969C413.24 496.552 414.99 494.646 417.219 493.25C419.448 491.833 421.979 491.125 424.812 491.125C427.021 491.125 429.042 491.562 430.875 492.438C432.729 493.292 434.323 494.479 435.656 496L436.062 491.75H443.938V522.125C443.938 525.583 443.177 528.594 441.656 531.156C440.156 533.74 438.031 535.729 435.281 537.125C432.531 538.542 429.312 539.25 425.625 539.25C420.5 539.25 415.854 537.646 411.688 534.438L415.312 527.125C418.083 529.854 421.312 531.219 425 531.219C426.979 531.219 428.708 530.823 430.188 530.031C431.688 529.24 432.854 528.135 433.688 526.719C434.542 525.302 434.969 523.656 434.969 521.781V519.219C433.677 520.51 432.167 521.531 430.438 522.281C428.708 523.01 426.823 523.375 424.781 523.375ZM427.094 515.375C428.552 515.375 429.875 515.062 431.062 514.438C432.25 513.792 433.198 512.906 433.906 511.781C434.615 510.635 434.969 509.344 434.969 507.906V506.562C434.969 505.125 434.604 503.844 433.875 502.719C433.167 501.594 432.219 500.719 431.031 500.094C429.865 499.448 428.552 499.125 427.094 499.125C425.594 499.125 424.25 499.479 423.062 500.188C421.875 500.896 420.938 501.865 420.25 503.094C419.562 504.302 419.219 505.688 419.219 507.25C419.219 508.812 419.562 510.208 420.25 511.438C420.938 512.667 421.875 513.635 423.062 514.344C424.25 515.031 425.594 515.375 427.094 515.375ZM481.812 523H474.531L474.219 518C473.115 519.833 471.646 521.229 469.812 522.188C468 523.146 465.875 523.625 463.438 523.625C459.438 523.625 456.302 522.396 454.031 519.938C451.76 517.479 450.625 514.104 450.625 509.812V491.75H459.594V507.75C459.594 510.188 460.167 512.104 461.312 513.5C462.479 514.875 464.062 515.562 466.062 515.562C468.146 515.562 469.792 514.844 471 513.406C472.229 511.948 472.844 509.979 472.844 507.5V491.75H481.812V523ZM499.031 523H489.438V474.875H499.031V523ZM534.562 523H526.75L526.281 519.281C525.135 520.656 523.719 521.729 522.031 522.5C520.344 523.25 518.49 523.625 516.469 523.625C514.281 523.625 512.333 523.208 510.625 522.375C508.917 521.521 507.573 520.354 506.594 518.875C505.615 517.375 505.125 515.677 505.125 513.781C505.125 511.781 505.656 510.021 506.719 508.5C507.781 506.979 509.24 505.792 511.094 504.938C512.969 504.062 515.094 503.625 517.469 503.625C518.865 503.625 520.26 503.781 521.656 504.094C523.073 504.406 524.385 504.844 525.594 505.406V504.594C525.594 503.344 525.24 502.271 524.531 501.375C523.844 500.458 522.885 499.75 521.656 499.25C520.448 498.75 519.094 498.5 517.594 498.5C516.156 498.5 514.729 498.729 513.312 499.188C511.917 499.646 510.625 500.333 509.438 501.25L507 494.406C509.104 493.323 511.229 492.51 513.375 491.969C515.542 491.406 517.635 491.125 519.656 491.125C522.698 491.125 525.333 491.729 527.562 492.938C529.792 494.125 531.51 495.812 532.719 498C533.948 500.167 534.562 502.74 534.562 505.719V523ZM518.438 516.719C519.625 516.719 520.76 516.458 521.844 515.938C522.927 515.417 523.802 514.708 524.469 513.812C525.156 512.917 525.521 511.927 525.562 510.844V510.625C524.646 510 523.625 509.521 522.5 509.188C521.396 508.833 520.271 508.656 519.125 508.656C517.417 508.656 516.021 509.031 514.938 509.781C513.854 510.531 513.312 511.5 513.312 512.688C513.312 513.458 513.531 514.156 513.969 514.781C514.427 515.385 515.042 515.865 515.812 516.219C516.583 516.552 517.458 516.719 518.438 516.719ZM550.531 523H541.562V491.75H549.375L549.688 497.156C550.729 495.26 552.146 493.781 553.938 492.719C555.729 491.656 557.781 491.125 560.094 491.125C560.76 491.125 561.427 491.177 562.094 491.281C562.781 491.365 563.479 491.5 564.188 491.688L563.062 499.75C561.688 499.354 560.385 499.156 559.156 499.156C557.427 499.156 555.906 499.552 554.594 500.344C553.302 501.115 552.302 502.198 551.594 503.594C550.885 504.969 550.531 506.583 550.531 508.438V523Z"
      fill="#F4F4F4"
    />
    <g clip-path="url(#clip1_307_371)">
      <path
        fill-rule="evenodd"
        clip-rule="evenodd"
        d="M480.379 -10.2945L648.809 -31.3778L797.047 58.7314L725.387 259.545L574.555 304.231L458.535 201.541L480.379 -10.2945V-10.2945Z"
        fill="#E23237"
      />
      <path
        fill-rule="evenodd"
        clip-rule="evenodd"
        d="M797.047 58.7314L648.809 -31.3778L574.555 304.231L725.359 259.669L797.047 58.7314V58.7314V58.7314Z"
        fill="#B52E31"
      />
      <path
        fill-rule="evenodd"
        clip-rule="evenodd"
        d="M640.387 7.86222V7.86222L495.214 202.784L531.693 210.207L562.027 165.701L603.561 174.89L603.685 174.918L649.298 185.01L659.743 239.186L694.341 247.49L640.387 7.86222V7.86222V7.86222ZM625.291 77.2637L642.965 153.267L611.444 146.293L609.837 145.938L581.159 139.593L625.291 77.2637V77.2637V77.2637Z"
        fill="white"
      />
    </g>
    <path
      d="M770.368 427.901C761.938 401.654 759.507 373.95 764.37 345.435C766.477 333.607 769.719 322.266 773.285 310.763C773.285 310.763 795.655 237.37 871.356 203.832C871.356 203.832 897.454 190.061 936.683 189.089C936.683 189.089 931.333 183.904 927.929 181.636C909.45 169.323 881.893 165.272 865.196 182.608C860.171 187.793 855.957 193.463 851.256 198.648C845.906 204.48 839.422 209.341 831.966 212.095C825.482 214.525 818.998 214.039 812.352 215.173C805.543 216.308 798.573 218.738 793.062 223.112C787.064 227.973 784.632 234.453 783.984 241.906C783.336 247.739 783.498 253.733 783.174 259.566C782.363 276.74 776.852 281.6 764.532 291.159C759.345 295.048 754.968 300.232 751.726 305.741C742 322.914 757.562 340.736 758.372 358.072C758.534 361.636 758.21 365.201 756.913 368.603C755.616 372.329 753.023 374.76 750.916 377.838C747.998 381.888 746.053 386.749 746.863 391.771C747.674 396.794 750.267 401.492 752.699 405.867C757.4 413.644 763.235 420.61 769.395 427.253C769.719 427.253 770.043 427.577 770.368 427.901Z"
      fill="#E32286"
    />
    <path
      d="M1079.66 490.115C1116.94 473.914 1132.82 445.885 1132.82 445.885C1167.68 398.414 1155.84 348.351 1155.84 348.351C1133.63 396.632 1113.37 409.917 1113.37 409.917C1168 326.803 1113.7 276.578 1113.7 276.578C1135.9 323.886 1106.4 381.564 1106.4 381.564C1081.6 433.734 1046.42 452.365 1046.42 452.365C1085.65 459.656 1114.51 433.248 1114.51 433.248C1058.26 494.004 997.308 491.087 997.308 491.087C1022.92 519.764 1061.34 517.334 1061.34 517.334C1011.09 529.161 963.916 512.474 925.174 480.232C917.879 474.238 910.909 467.757 904.425 460.79C904.425 460.79 898.589 454.634 897.454 453.014L897.292 452.852C896.482 482.825 927.767 510.691 927.767 510.691C888.539 494.49 870.546 459.332 870.546 459.332C870.546 459.332 844.123 414.292 863.251 362.932C882.379 311.573 940.249 300.556 940.249 300.556C988.068 323.724 1028.59 331.015 1028.59 331.015C1114.02 345.273 1109.16 303.472 1109.16 303.472C1109.97 267.505 1055.66 229.269 1055.66 229.269C958.89 157.496 871.356 203.832 871.356 203.832C795.655 237.37 773.285 310.763 773.285 310.763C769.719 322.266 766.477 333.607 764.37 345.435C756.103 393.554 768.584 439.08 795.655 479.584C837.801 542.447 906.208 564.157 906.208 564.157C1007.52 598.504 1076.74 547.955 1076.74 547.955C1140.44 504.211 1153.25 453.662 1153.25 453.662C1101.86 493.842 1079.66 490.115 1079.66 490.115ZM1000.55 253.733C1005.41 253.733 1009.3 257.622 1009.3 262.482C1009.3 267.343 1005.41 271.231 1000.55 271.231C995.687 271.231 991.797 267.343 991.797 262.482C991.797 257.622 995.687 253.733 1000.55 253.733Z"
      fill="url(#paint0_linear_307_371)"
    />
    <path
      d="M1109 303.31C1109.81 267.343 1055.5 229.107 1055.5 229.107C958.728 157.496 871.194 203.832 871.194 203.832C795.493 237.37 773.123 310.763 773.123 310.763C768.747 323.238 764.856 342.356 764.856 342.356C760.155 366.335 762.263 388.531 762.263 388.531C764.208 409.755 768.909 424.013 768.909 424.013C773.772 439.242 776.041 443.941 776.041 443.941C775.879 443.455 775.068 439.89 775.068 439.89C775.068 439.89 768.26 407.163 774.582 375.732C774.582 375.732 780.094 343.004 802.463 317.73C802.463 317.73 838.774 266.047 906.37 286.299C906.37 286.299 920.959 291.483 925.984 294.075C931.009 296.506 939.763 300.232 939.763 300.232C987.582 323.4 1028.11 330.691 1028.11 330.691C1113.86 345.111 1109 303.31 1109 303.31ZM1000.55 271.393C995.687 271.393 991.797 267.505 991.797 262.644C991.797 257.784 995.687 253.895 1000.55 253.895C1005.41 253.895 1009.3 257.784 1009.3 262.644C1009.3 267.505 1005.41 271.393 1000.55 271.393Z"
      fill="url(#paint1_radial_307_371)"
    />
    <path
      d="M945.112 238.18L889.836 221.006C889.511 221.006 887.89 220.196 884.973 221.006C884.973 221.006 852.39 229.269 858.064 247.091C858.064 247.091 861.468 258.27 870.708 269.125L931.495 266.209L945.112 238.18Z"
      fill="url(#paint2_linear_307_371)"
    />
  </g>
  <rect x="0.5" y="0.5" width="1199" height="629" stroke="#69A8D4" />
  <defs>
    <filter
      id="filter0_f_307_371"
      x="-21.1481"
      y="-412.148"
      width="2338.95"
      height="2338.95"
      filterUnits="userSpaceOnUse"
      color-interpolation-filters="sRGB"
    >
      <feFlood flood-opacity="0" result="BackgroundImageFix" />
      <feBlend
        mode="normal"
        in="SourceGraphic"
        in2="BackgroundImageFix"
        result="shape"
      />
      <feGaussianBlur
        stdDeviation="350"
        result="effect1_foregroundBlur_307_371"
      />
    </filter>
    <linearGradient
      id="paint0_linear_307_371"
      x1="809.103"
      y1="545.203"
      x2="1010.7"
      y2="330.624"
      gradientUnits="userSpaceOnUse"
    >
      <stop stop-color="#E01D84" />
      <stop offset="0.401" stop-color="#DF1D85" />
      <stop offset="0.77" stop-color="#932C87" />
      <stop offset="1" stop-color="#5D2F88" />
    </linearGradient>
    <radialGradient
      id="paint1_radial_307_371"
      cx="0"
      cy="0"
      r="1"
      gradientUnits="userSpaceOnUse"
      gradientTransform="translate(1031.12 273.829) rotate(0.136866) scale(197.086 164.717)"
    >
      <stop stop-color="#E01D84" />
      <stop offset="0.139" stop-color="#DE1E85" />
      <stop offset="0.285" stop-color="#D62085" />
      <stop offset="0.434" stop-color="#C92386" />
      <stop offset="0.586" stop-color="#B72786" />
      <stop offset="0.739" stop-color="#9D2B87" />
      <stop offset="0.891" stop-color="#7C2E88" />
      <stop offset="1" stop-color="#5D2F88" />
    </radialGradient>
    <linearGradient
      id="paint2_linear_307_371"
      x1="857.273"
      y1="244.881"
      x2="945.065"
      y2="244.881"
      gradientUnits="userSpaceOnUse"
    >
      <stop stop-color="#E01D84" />
      <stop offset="0.238" stop-color="#DA1E85" />
      <stop offset="0.658" stop-color="#C72085" />
      <stop offset="0.999" stop-color="#B52284" />
    </linearGradient>
    <clipPath id="clip0_307_371">
      <rect width="1200" height="630" fill="white" />
    </clipPath>
    <clipPath id="clip1_307_371">
      <rect
        width="354"
        height="354"
        fill="white"
        transform="translate(479.474 -74) rotate(12.4758)"
      />
    </clipPath>
  </defs>
</svg>
